<svg width="120" height="82" viewBox="0 0 120 82" fill="none" xmlns="http://www.w3.org/2000/svg">
<path d="M35.0985 75.0592L1.02229 73.6853C1.02229 73.6853 -3.40762 53.7625 9.54135 40.3662C9.54135 40.3662 22.0133 29.4087 21.5703 24.6685C21.5362 24.325 21.5021 23.9815 21.468 23.638C21.3999 21.8862 20.8206 16.6994 16.0158 17.0085C16.0158 17.0085 11.9267 17.0085 8.85982 24.9089L1.62488e-08 15.978C1.62488e-08 15.978 5.65666 -1.26543 19.0827 0.0742012C19.0827 0.0742012 34.0422 0.555097 34.5533 22.1266C34.5533 22.1266 35.5075 35.9008 24.0238 45.8621C12.5401 55.8235 13.6987 58.8463 13.6987 58.8463L35.4052 59.3615L35.0985 75.0592Z" transform="translate(1 3.159)" stroke="white"/>
<path d="M1.29991e-07 6.66381L7.15601 6.49206C7.15601 6.49206 9.50727 0.480893 10.9385 -5.24132e-07" transform="translate(9.99609 21.7816)" stroke="white"/>
<path d="M2.59981e-07 6.55165e-08L6.40633 0.0686991C6.40633 0.0686991 21.3999 1.95792 21.3317 22.2928C21.3317 22.2928 22.7629 34.2808 10.1547 46.6123C10.1547 46.6123 -0.579296 55.6462 0.340763 58.8064" transform="translate(21.4463 3.12982)" stroke="white"/>
<path d="M0 -1.04826e-06H7.08786V15.4916L0 15.6977" transform="translate(36.3721 62.5201)" stroke="white"/>
<path d="M15.9136 0.274796C22.354 1.71748 27.261 9.27438 27.261 18.3427C27.261 27.8231 21.9451 35.6205 15.0958 36.5823C14.6187 36.651 14.1416 36.6853 13.6305 36.6853C6.09965 36.6853 0 28.4758 0 18.3427C0 8.20954 6.09965 0 13.6305 0C14.4143 0 15.1639 0.103049 15.9136 0.274796Z" transform="translate(43.6367 1.48096)" stroke="white"/>
<path d="M4.19138 11.1293C6.50621 11.1293 8.38276 8.63788 8.38276 5.56462C8.38276 2.49137 6.50621 0 4.19138 0C1.87654 0 -2.07985e-06 2.49137 -2.07985e-06 5.56462C-2.07985e-06 8.63788 1.87654 11.1293 4.19138 11.1293Z" transform="translate(52.9741 14.3962)" stroke="white"/>
<path d="M0.88598 0L6.37226 0.240447C6.37226 0.240447 20.105 0.515243 19.0827 21.2624C19.0827 21.2624 18.6397 33.6969 6.91748 36.7197H1.03992e-06" transform="translate(58.7329 1.48077)" stroke="white"/>
<path d="M11.1429 77.8017L1.03992e-06 77.4582L41.9819 0.618292L54.1812 8.18957e-09L11.1429 77.8017Z" transform="translate(50.6191 1)" stroke="white"/>
<path d="M43.3109 8.18957e-09L50.3647 0.309146L7.19009 77.5269L0 77.8017" transform="translate(61.7617 1)" stroke="white"/>
<path d="M16.4588 0.274797C23.1378 1.78618 28.2492 9.61787 28.2492 19.0296C28.2492 28.8536 22.7289 36.9258 15.641 37.9562C15.1299 38.0249 14.6528 38.0593 14.1416 38.0593C6.33818 38.0593 -2.07985e-06 29.5406 -2.07985e-06 19.0296C-2.07985e-06 8.51869 6.33818 -5.24132e-07 14.1416 -5.24132e-07C14.8913 -5.24132e-07 15.6751 0.103049 16.4588 0.274797Z" transform="translate(83.1045 42.9066)" stroke="white"/>
<path d="M8.72353 5.77072C8.72353 8.96523 6.78117 11.5414 4.36176 11.5414C1.94234 11.5414 2.07985e-06 8.96523 2.07985e-06 5.77072C2.07985e-06 2.57621 1.94234 2.09653e-06 4.36176 2.09653e-06C6.78117 2.09653e-06 8.72353 2.57621 8.72353 5.77072Z" transform="translate(92.7139 56.3027)" stroke="white"/>
<path d="M0.88598 -5.24132e-07L6.6108 0.240448C6.6108 0.240448 20.8547 0.549595 19.7983 22.0524C19.7983 22.0524 19.3212 34.9335 7.19009 38.0936H-4.1597e-06" transform="translate(98.7451 42.9063)" stroke="white"/>
</svg>
