<svg width="90" height="80" viewBox="0 0 90 80" fill="none" xmlns="http://www.w3.org/2000/svg">
<path d="M5.14945 3.31036C2.20691 3.31036 -7.01557e-07 2.20691 -7.01557e-07 0.827591C-7.01557e-07 0.551728 0.0919548 0.275863 0.275864 0L0.919543 0.459772C0.827589 0.643681 0.735636 0.735637 0.735636 0.827591C0.735636 1.65518 2.57472 2.57473 5.14945 2.57473C5.51726 2.57473 5.88508 2.57472 6.2529 2.48277V3.31036C5.97704 3.31036 5.51726 3.31036 5.14945 3.31036Z" transform="translate(22.3462 76.3222)" fill="white"/>
<path d="M7.72417 3.31036C5.60922 3.2184 3.58622 2.66668 1.74713 1.65518L7.01557e-07 0.643684L0.367818 -1.40311e-06L2.11495 1.0115C3.86209 2.02299 5.79313 2.57473 7.72417 2.57473V3.31036Z" transform="translate(23.6309 75.4943)" fill="white"/>
<path d="M3.95404 1.56323C2.57472 1.56323 1.28736 1.28736 7.01557e-07 0.735635L0.367818 -2.80623e-06C1.47127 0.551724 2.66668 0.735634 3.95404 0.827588V1.56323Z" transform="translate(27.3096 74.6671)" fill="white"/>
<path d="M5.14945 3.49427C2.20691 3.49427 0 2.39082 0 1.0115C0 0.643682 0.0919545 0.36782 0.367818 2.80623e-06L0.919544 0.551728C0.82759 0.735637 0.735635 0.827591 0.735635 1.0115C0.735635 1.83909 2.57472 2.75864 5.14945 2.75864C5.2414 2.75864 5.42531 2.75864 5.60922 2.75864L5.70117 3.58622C5.42531 3.49427 5.2414 3.49427 5.14945 3.49427Z" transform="translate(2.75928 65.1037)" fill="white"/>
<path d="M5.79313 4.046L-8.76946e-08 0.735633L0.367818 1.40311e-06L6.16095 3.31036L5.79313 4.046Z" transform="translate(4.22949 64.2766)" fill="white"/>
<path d="M5.42531 2.11495C3.58622 2.11495 1.74713 1.65518 0 0.735637L0.367819 -1.40311e-06C3.77013 1.83909 7.17244 1.74713 10.6667 -1.40311e-06L11.0345 0.735637C9.10349 1.65518 7.2644 2.11495 5.42531 2.11495Z" transform="translate(62.0688 57.563)" fill="white"/>
<path d="M31.6323 20.6897C31.5404 20.6897 31.4484 20.6897 31.2645 20.6897C29.1495 20.5978 27.1266 20.0461 25.2875 19.0346L1.65518 5.33336C1.37932 5.14945 1.10345 4.96554 0.919544 4.78163C0.367818 4.13795 0 3.31036 0 2.48277V7.01557e-07H0.82759V2.48277C0.82759 3.12645 1.10345 3.77013 1.56323 4.22991C1.65518 4.41382 1.83909 4.59772 2.023 4.68968L25.7472 18.2989C27.4944 19.3104 29.4254 19.8622 31.3565 19.8622C34.5749 19.9541 37.6094 18.7587 39.9082 16.5518L40.4599 17.1035C38.0691 19.4024 34.9427 20.6897 31.6323 20.6897Z" transform="translate(0 58.1154)" fill="white"/>
<path d="M25.6898 56.3445C25.5059 56.3445 25.23 56.2526 25.0461 56.1606L0.58621 41.9077C0.218392 41.7238 0.0344827 41.356 0.0344827 40.9882C-0.0574717 40.7123 0.0344829 40.3445 0.310346 40.0686L38.6553 0.344308C39.0232 -0.0235097 39.6668 -0.115464 40.1266 0.160399L64.6785 14.6892C65.0463 14.8731 65.2302 15.2409 65.2302 15.6087C65.3221 15.9766 65.1382 16.3444 64.8624 16.6202L26.5174 55.9767C26.2415 56.2526 25.9656 56.3445 25.6898 56.3445ZM39.4829 0.712125C39.391 0.712125 39.299 0.712126 39.2071 0.80408L0.862073 40.6203C0.770119 40.7123 0.770118 40.8042 0.770118 40.9882C0.770118 41.0801 0.862073 41.264 0.954027 41.264L25.4139 55.517C25.5978 55.6089 25.7817 55.6089 25.9656 55.425L64.3106 16.0685C64.4026 15.9766 64.4026 15.8846 64.4026 15.7007C64.4026 15.6087 64.3106 15.4248 64.2187 15.4248L39.7588 0.80408C39.6668 0.80408 39.5749 0.712125 39.4829 0.712125Z" transform="translate(8.88525 13.9091)" fill="white"/>
<path d="M30.9886 42.0232C28.6898 42.0232 26.3909 41.4714 24.3679 40.276C17.5633 36.414 5.70117 29.7013 2.66668 27.9541C1.47127 27.2185 0.459772 26.1151 0 24.8277L0.643681 24.5518C1.10345 25.6553 1.93104 26.6668 3.0345 27.3105C6.16095 29.0576 17.9311 35.7703 24.7357 39.6324C29.6093 42.391 35.8622 41.5634 39.9082 37.6094L77.6095 -7.01557e-07L78.1613 0.551728L40.4599 38.1611C37.8852 40.7358 34.391 42.0232 30.9886 42.0232Z" transform="translate(0.919922 37.9768)" fill="white"/>
<path d="M31.3565 70.4503C31.2645 70.4503 31.2645 70.4503 31.3565 70.4503C29.9771 70.4503 28.5978 70.1745 27.4024 69.6228H27.3105C27.0346 69.5308 26.6668 69.3469 26.3909 69.163L1.10345 54.5422C0.459772 54.1744 0 53.4388 0 52.7031C0 52.6112 0 52.5192 0 52.4273C0 51.8755 0.275863 51.4158 0.643681 50.956L49.7473 0.840844C50.6669 -0.0787003 52.0462 -0.262609 53.2416 0.381072L80.9199 16.1053C83.9544 18.1283 84.8739 20.2432 85.2417 22.1743C86.2532 26.5881 89.1038 40.4732 89.1038 40.5652C90.1153 43.7836 89.1958 46.3583 86.3452 48.0135L74.667 54.91C69.4256 57.9445 64.552 57.5767 57.8393 53.7146L58.2071 53.071C64.644 56.7491 69.2417 57.117 74.2072 54.2664L85.9774 47.4617C88.5521 45.9905 89.3797 43.6916 88.3682 40.841C88.3682 40.6571 85.4257 26.772 84.5061 22.3582C84.1383 20.5191 83.3107 18.588 80.5521 16.749L52.8738 1.11671C52.0462 0.656935 51.0347 0.840844 50.391 1.48453L1.19541 51.5077C0.919544 51.7836 0.82759 52.0595 0.735635 52.4273C0.735635 52.5192 0.735635 52.5192 0.735635 52.6112C0.735635 53.1629 1.0115 53.6227 1.47127 53.8066L26.7587 68.4273C27.0346 68.6113 27.2185 68.7032 27.4944 68.7952H27.5863C28.6898 69.3469 29.8852 69.5308 31.1725 69.6228C31.1725 69.6228 31.1725 69.6228 31.2645 69.6228C33.6553 69.6228 35.8622 68.7032 37.5174 67.048L80.736 22.3582C81.1958 21.8984 81.3797 21.2547 81.3797 20.5191C81.2877 19.8754 80.9199 19.2317 80.3682 18.9559L76.598 16.5651L77.0578 15.9214L80.8279 18.3122C81.5636 18.772 82.1153 19.5995 82.2072 20.5191C82.2992 21.4386 82.0233 22.3582 81.3797 23.0019L38.1611 67.6917C36.322 69.4389 33.9312 70.4503 31.3565 70.4503Z" transform="translate(0 5.77954)" fill="white"/>
<path d="M5.14945 17.7472L4.78163 17.1035C4.78163 17.1035 8.2759 15.2644 9.83912 13.8851C11.9541 12.046 12.9656 9.2874 12.4138 6.62072C12.2299 6.52876 12.046 6.62072 11.9541 6.71267C11.5863 6.89658 11.2184 6.98854 10.5748 6.71267C10.023 6.34485 9.65521 5.88508 9.37935 5.51727C9.10349 5.14945 8.82762 4.87358 8.45981 4.68968C8.09199 4.50577 8.00004 4.59772 7.81613 4.68968C7.63222 4.78163 7.35635 4.87358 6.98854 4.87358V4.96554L6.43681 4.68968C5.79313 4.41381 5.51726 3.95404 5.2414 3.58622C4.96554 3.2184 4.68968 2.94254 4.2299 2.66668C3.86209 2.48277 3.77013 2.57472 3.58622 2.66668C3.2184 2.85059 2.85058 2.94254 2.2069 2.66668C1.56322 2.39082 1.19541 1.93104 0.919547 1.56323C0.643684 1.19541 0.367821 0.919544 2.80623e-06 0.735635L0.183909 -8.76946e-08C0.735635 0.275863 1.10346 0.735635 1.37932 1.10345C1.65518 1.47127 1.93104 1.74713 2.39082 2.023C2.75863 2.20691 2.85059 2.11495 3.03449 2.023C3.40231 1.83909 3.77013 1.65518 4.41381 2.023C5.05749 2.29886 5.42531 2.66668 5.70117 3.12645C5.97704 3.49427 6.16095 3.77013 6.52877 3.95404H6.62072C6.98854 4.13795 7.17245 4.04599 7.35636 3.95404C7.63222 3.86209 8.00004 3.67818 8.73567 3.95404C9.2874 4.2299 9.65521 4.68968 9.93108 5.05749C10.2069 5.42531 10.4828 5.70117 10.9426 5.97704C11.3104 6.16095 11.4023 6.06899 11.5863 5.97704C11.9541 5.79313 12.3219 5.60922 12.9656 5.97704L13.1495 6.06899V6.2529C13.7932 9.2874 12.6897 12.4138 10.2989 14.5288C8.73567 15.9081 5.33336 17.6552 5.14945 17.7472Z" transform="translate(70.6211 1.93066)" fill="white"/>
<path d="M0.367815 10.6667L2.80623e-06 9.93108C2.80623e-06 9.93108 1.83909 8.91958 3.49427 7.63222C5.60922 5.79313 6.62072 2.94254 6.06899 0.183909L6.89658 1.09618e-08C7.54027 3.0345 6.43681 6.16095 4.04599 8.18394C2.29886 9.65521 0.459769 10.6667 0.367815 10.6667Z" transform="translate(60.0474 0.275574)" fill="white"/>
<path d="M2.94254 2.85059C2.75863 2.85059 2.48277 2.75863 2.20691 2.66668C1.56323 2.39082 1.19541 1.93104 0.919544 1.56323C0.643681 1.19541 0.367818 0.919544 0 0.735635L0.367819 0C0.919546 0.275863 1.28736 0.735635 1.56322 1.10345C1.83909 1.47127 2.11495 1.74713 2.57473 2.023C2.94254 2.20691 3.0345 2.11495 3.21841 2.023C3.58622 1.83909 3.95404 1.65518 4.59772 2.023L4.2299 2.75863C3.86208 2.57472 3.77013 2.66668 3.58622 2.75863C3.40232 2.75863 3.2184 2.85059 2.94254 2.85059Z" transform="translate(66.207)" fill="white"/>
<path d="M1.19541 5.23086C0.919545 5.23086 0.735634 5.13891 0.459771 4.95501C0.183907 4.7711 -1.40311e-06 4.40328 -1.40311e-06 4.12741C-1.40311e-06 3.7596 0.0919544 3.48373 0.367818 3.20787L3.12645 0.357285C3.49427 -0.102487 4.2299 -0.102486 4.68968 0.265332C4.96554 0.44924 5.14945 0.817053 5.14945 1.09292C5.14945 1.46073 5.05749 1.7366 4.78163 2.01246L2.023 4.86305C1.83909 5.13892 1.47127 5.23086 1.19541 5.23086ZM3.95404 0.817057C3.86209 0.817057 3.77013 0.817055 3.67818 0.90901L0.919543 3.7596C0.827588 3.85155 0.82759 3.94351 0.82759 4.03546C0.82759 4.12742 0.919545 4.21937 1.0115 4.31132C1.19541 4.40328 1.37932 4.40328 1.47127 4.31132L4.2299 1.46073C4.32186 1.36878 4.32186 1.27683 4.32186 1.18488C4.32186 1.09292 4.2299 1.00096 4.13795 0.90901C4.13795 0.90901 4.046 0.817057 3.95404 0.817057Z" transform="translate(43.7695 64.8386)" fill="white"/>
<path d="M1.19541 9.64468C0.919544 9.64468 0.735635 9.55272 0.459772 9.36882C0.183909 9.18491 0 8.81709 0 8.54122C0 8.17341 0.0919558 7.89754 0.367819 7.62168L7.35635 0.357283C7.72417 -0.10249 8.4598 -0.102488 8.91958 0.26533C9.19544 0.449238 9.37935 0.817054 9.37935 1.09292C9.37935 1.46073 9.2874 1.7366 9.01154 2.01246L2.023 9.27686C1.74713 9.55273 1.47127 9.64468 1.19541 9.64468ZM8.18394 0.817055C8.09199 0.817055 8.00003 0.817057 7.90808 0.909011L0.919544 8.26537C0.82759 8.35732 0.827591 8.44927 0.827591 8.54122C0.827591 8.63318 0.919543 8.72514 1.0115 8.81709C1.19541 8.90905 1.37931 8.90905 1.47127 8.81709L8.4598 1.55269C8.55176 1.46073 8.55176 1.36878 8.55176 1.27683C8.55176 1.18487 8.45981 1.09292 8.36785 1.00096C8.36785 0.817055 8.2759 0.817055 8.18394 0.817055Z" transform="translate(50.5757 53.7117)" fill="white"/>
<path d="M0.919544 1.83909C0.459772 1.83909 0 1.47127 0 0.919544C0 0.459772 0.367818 0 0.919544 0C1.47127 0 1.83909 0.367818 1.83909 0.919544C1.83909 1.47127 1.47127 1.83909 0.919544 1.83909ZM0.919544 0.827591C0.82759 0.827591 0.827591 0.919544 0.827591 0.919544C0.827591 1.0115 1.0115 1.0115 1.0115 0.919544C1.10345 0.919544 1.0115 0.827591 0.919544 0.827591Z" transform="translate(48.7363 62.9886)" fill="white"/>
</svg>
