<svg width="79" height="27" viewBox="0 0 79 27" fill="none" xmlns="http://www.w3.org/2000/svg">
<path fill-rule="evenodd" clip-rule="evenodd" d="M16.5596 -3.96714e-07H6.16155L4.08588 7.85171H11.0201L12.7291 13.695L16.8411 27H25.1242L16.5596 -3.96714e-07ZM5.80797 8.94367L10.2343 8.96317L11.8582 14.709L8.19794 27H0L5.80797 8.94367Z" fill="#FF7800"/>
<path fill-rule="evenodd" clip-rule="evenodd" d="M24.5153 19.1418L18.393 -3.96714e-07H7.99496L5.92583 7.85171H13.0303L14.3268 12.3105H14.3595L16.3173 19.1418H12.4803L13.7702 14.345L12.238 8.96317L7.63482 8.94367L4.19719 19.1418H2.12151L1.5986e-06 27H25.1569L27.2785 19.1418H24.5153Z" transform="translate(51.7217)" fill="#FF7800"/>
<path fill-rule="evenodd" clip-rule="evenodd" d="M18.596 -3.96714e-07H5.35616L3.20191 7.85821H5.35616V7.87121L13.0237 7.85171V7.85821H13.0368L15.2762 16.4379H10.7582L12.6767 8.96317L5.05496 8.93717L7.99302e-07 27H8.55808L9.43549 23.4251H16.7888L17.7578 27H26.5975L18.596 -3.96714e-07Z" transform="translate(25.124)" fill="#FF7800"/>
</svg>
