<svg width="120" height="82" viewBox="0 0 120 82" fill="none" xmlns="http://www.w3.org/2000/svg">
<g id="&#208;&#159;&#208;&#184;&#208;&#189;-&#208;&#191;&#208;&#176;&#208;&#180;">
<path id="Vector" d="M39.6914 78.409L42.192 79.9172L108.278 43.2027C108.278 43.2027 114.907 38.7176 115.224 34.5897C115.224 34.5897 120.305 28.1993 116.613 21.2534C116.097 20.3008 115.383 19.4275 114.549 18.7528L110.58 15.5775C110.58 15.5775 95.3784 3.23346 83.2329 0.177219C82.0024 -0.140312 80.6529 -0.0212383 79.4622 0.455059C75.1755 2.20148 63.3475 7.52013 45.5657 19.3879L39.096 17.2445C38.6594 17.0858 38.1831 17.0461 37.7068 17.0858C37.0321 17.1651 36.397 17.3636 35.8016 17.7208L9.44655 32.7242C8.85118 33.0417 8.33519 33.518 7.93828 34.034C6.98569 35.2644 6.43001 36.7727 6.31093 38.3207L6.03309 41.3769L5.47741 41.7738C5.15988 42.012 4.96143 42.3692 4.96143 42.7264C4.96143 42.9249 5.00112 43.1233 5.12019 43.2821L5.47741 43.8378L3.37377 45.1079C3.37377 45.1079 0.912902 47.0925 0.912902 49.7915C0.912902 52.4905 0.912902 54.872 0.912902 54.872L0 56.3009C0.198457 57.8091 0.793828 59.2777 1.74642 60.4685C4.96143 64.5567 13.6935 73.8841 29.967 79.56C29.967 79.5997 33.4202 81.0683 39.6914 78.409Z" transform="translate(1 1)" stroke="white" stroke-miterlimit="10"/>
<path id="Vector_2" d="M3.15522 49.1876C3.15522 49.1876 -1.72683 46.2901 0.654656 42.7179C2.99645 39.225 50.8643 4.49505 71.7023 0.0893044C72.8533 -0.148844 74.044 0.0893057 74.957 0.803751C76.0286 1.63727 76.8621 3.14554 75.3936 5.80487" transform="translate(40.8696 29.8245)" stroke="white" stroke-miterlimit="10"/>
<path id="Vector_3" d="M11.1738 6.05643e-07C11.1738 6.05643e-07 26.6534 7.93828 29.7097 14.6858L33.0041 23.1401C33.0041 23.1401 33.401 26.7123 31.6942 28.1015C29.9875 29.4907 4.50563 47.5503 4.50563 47.5503L0.814331 45.3673L0.020503 36.4367C0.020503 36.4367 -0.376413 34.3331 2.3226 32.9439C5.02162 31.5547 27.1297 17.1864 27.1297 17.1864C27.1297 17.1864 28.8761 16.0353 27.3679 14.3683" transform="translate(35.4312 20.4673)" stroke="white" stroke-miterlimit="10"/>
<path id="Vector_4" d="M1.51411e-07 17.6291L27.1886 1.5938C27.1886 1.5938 32.8645 -1.38306 37.5084 0.799968C42.1523 2.98299 46.1214 3.49898 54.7741 11.0403" transform="translate(7.7876 26.6132)" stroke="white" stroke-miterlimit="10"/>
<path id="Vector_5" d="M3.78527e-08 2.42257e-06C3.78527e-08 2.42257e-06 7.93828 15.0033 26.3154 20.2823" transform="translate(1.95361 55.8722)" stroke="white" stroke-miterlimit="10"/>
<path id="Vector_6" d="M2.42257e-06 12.5028L21.1555 3.78527e-08C21.1555 3.78527e-08 41.795 7.8589 50.0112 18.0596L28.0618 30.0861C28.1015 30.0861 3.88976 17.5833 2.42257e-06 12.5028Z" transform="translate(57.7979 3.39984)" stroke="white" stroke-miterlimit="10"/>
<path id="Vector_7" d="M-1.21129e-06 0.899672C-1.21129e-06 0.899672 2.85778 -1.12459 6.50939 0.899672C10.161 2.92393 6.90631 5.14665 6.90631 5.14665L9.48625 7.01215C9.48625 7.01215 8.7718 4.71005 11.5502 4.82912C14.3286 4.9482 16.9085 7.01215 16.9085 7.01215C16.9085 7.01215 19.29 9.23487 16.9085 10.3859C14.5271 11.537 13.4554 10.3859 13.4554 10.3859" transform="translate(48.5107 20.5995)" stroke="white" stroke-miterlimit="10"/>
<path id="Vector_8" d="M1.40356 0.0917005C3.42783 -0.186139 6.96036 -0.0670628 7.63511 3.90208C7.83357 5.09282 6.96036 6.20418 5.76962 6.28356C3.58659 6.44233 0.371588 5.92634 0.0143657 1.87781C-0.104709 0.964911 0.530354 0.171083 1.40356 0.0917005Z" transform="translate(67.6675 32.0052)" stroke="white" stroke-miterlimit="10"/>
<path id="Vector_9" d="M0.243358 1.79604L2.70422 0.208379C3.10114 -0.0694605 3.61713 -0.0694605 4.01404 0.208379L7.54658 2.4311C8.18164 2.82801 8.22133 3.74091 7.62596 4.17752L5.6017 5.6461C5.28417 5.88425 4.80787 5.92394 4.45065 5.6461L0.203667 2.66925C-0.0741725 2.51048 -0.0741731 1.99449 0.243358 1.79604Z" transform="translate(34.2959 30.2613)" stroke="white" stroke-miterlimit="10"/>
<path id="Vector_10" d="M0.327453 1.95009L2.66925 0.243359C3.10585 -0.0741719 3.66153 -0.0741743 4.09814 0.203665L8.62296 3.14083C9.25802 3.53774 9.25802 4.45065 8.66265 4.84756L6.36055 6.43522C5.88425 6.79244 5.2095 6.75275 4.7332 6.43522L0.327453 3.22021C-0.109153 2.94237 -0.109153 2.26762 0.327453 1.95009Z" transform="translate(42.6255 35.6638)" stroke="white" stroke-miterlimit="10"/>
<path id="Vector_11" d="M4.49562 0.265183L7.79001 2.80543C8.38538 3.28173 8.34569 4.15494 7.75032 4.59155L5.40853 6.13951C4.97192 6.45704 4.37655 6.41735 3.93994 6.09982L0.367719 3.4008C-0.14827 3.00389 -0.108579 2.21006 0.407409 1.89253L3.06673 0.185802C3.50334 -0.0920382 4.09871 -0.052348 4.49562 0.265183Z" transform="translate(27.543 33.7369)" stroke="white" stroke-miterlimit="10"/>
<path id="Vector_12" d="M0.43535 1.85232L3.21375 0.224968C3.80912 -0.132254 4.56326 -0.0528711 5.11894 0.383734L7.93703 2.80491C8.5324 3.3209 8.4927 4.27349 7.81795 4.7101L5.07924 6.45652C4.64264 6.73436 4.04727 6.69467 3.65035 6.33745L0.316276 3.24151C-0.16002 2.8446 -0.0806379 2.13015 0.43535 1.85232Z" transform="translate(20.6084 37.5082)" stroke="white" stroke-miterlimit="10"/>
<path id="Vector_13" d="M0.342499 2.04503L2.96213 0.219231C3.39874 -0.0983006 3.99411 -0.0586098 4.43071 0.258921L9.23337 3.87084C9.78905 4.26775 9.74936 5.10127 9.15399 5.45849L6.85189 6.84769C6.45498 7.08584 5.93899 7.08584 5.58177 6.808L0.342499 3.39454C-0.0941061 3.07701 -0.133797 2.36257 0.342499 2.04503Z" transform="translate(35.8242 39.1411)" stroke="white" stroke-miterlimit="10"/>
<path id="Vector_14" d="M4.75305 0.243359L9.35725 3.65682C9.83355 4.01404 9.79385 4.72849 9.31756 5.00633L6.30101 6.91151C5.8644 7.18935 5.34842 7.14966 4.9515 6.87182L0.267917 3.45836C-0.0893056 3.18052 -0.0893056 2.62484 0.267917 2.38669L3.24477 0.203668C3.68138 -0.0741719 4.27675 -0.0741725 4.75305 0.243359Z" transform="translate(28.7144 43.2448)" stroke="white" stroke-miterlimit="10"/>
<path id="Vector_15" d="M4.29659 0.213629L9.17864 3.74616C9.65493 4.10338 9.65493 4.81783 9.13894 5.17505L6.5987 6.84209C6.16209 7.11993 5.60641 7.11993 5.1698 6.8024L0.327454 3.42863C-0.109151 3.1111 -0.109151 2.43635 0.327454 2.11881L3.14554 0.173935C3.46307 -0.0642132 3.93937 -0.0642108 4.29659 0.213629Z" transform="translate(21.9087 47.0056)" stroke="white" stroke-miterlimit="10"/>
<path id="Vector_16" d="M10.2007 1.12128L8.7718 0.208377C8.37489 -0.0694624 7.8589 -0.0694624 7.42229 0.208377L-3.02821e-07 5.13011C-3.02821e-07 5.13011 2.69902 10.8854 9.96254 8.02759" transform="translate(25.9263 53.5997)" stroke="white" stroke-miterlimit="10"/>
<path id="Vector_17" d="M5.04269 0.291731L10.0835 4.18149C10.4407 4.45933 10.401 4.97532 10.0835 5.21347L7.14634 7.31711C7.14634 7.31711 5.67775 8.23001 2.85966 5.72945C0.0415749 3.22889 -1.03009 2.51445 1.19263 1.24433C2.38337 0.569574 3.25658 0.212348 3.81226 0.0535828C4.24886 -0.0654914 4.68547 0.0138908 5.04269 0.291731Z" transform="translate(14.374 50.8568)" stroke="white" stroke-miterlimit="10"/>
<path id="Vector_18" d="M3.78781 9.48624L11.0513 5.5171C11.4086 5.31865 11.6467 4.96142 11.7261 4.56451L11.7658 4.32636C11.8452 3.81037 11.6467 3.25469 11.2101 2.93716L7.79664 0.277841C7.55849 0.119075 7.28065 -6.05643e-07 7.00281 -6.05643e-07H6.92343C6.64559 -6.05643e-07 6.36775 0.0793816 6.1296 0.238147L0.771265 3.49284C0.374351 3.73099 0.136203 4.1279 0.0568198 4.56451L0.0171283 4.88204C-0.0622545 5.47741 0.136202 6.07278 0.572808 6.50939L3.78781 9.48624Z" transform="translate(9.95312 41.5831)" stroke="white" stroke-miterlimit="10"/>
<path id="Vector_19" d="M0 -7.57053e-08C0 -7.57053e-08 13.5745 6.74754 17.4642 11.193" transform="translate(88.52 4.31311)" stroke="white" stroke-miterlimit="10"/>
</g>
</svg>
