<svg width="520" height="96" viewBox="0 0 520 96" fill="none" xmlns="http://www.w3.org/2000/svg">
<path d="M0 13.8286H1.88931V15.9029H0V18.3857H1.88931V22H4.55153V18.3857H14.1698V15.9029H4.55153V13.7971H7.21374C10.0763 13.7971 11.8511 13.0429 13.2252 11.5343C14.3702 10.3086 15 8.61143 15 6.63143C15 4.11714 14.1126 2.51429 12.5954 1.38286C11.3073 0.408571 9.73282 0 7.29962 0H1.88931V11.3143H0V13.8286ZM12.2233 6.72571C12.2233 8.01429 11.9084 9.05143 11.0782 9.96286C10.1908 10.8743 8.95992 11.3143 6.78435 11.3143H4.55153V2.51429H7.18511C8.87405 2.51429 9.87595 2.76571 10.7634 3.39429C11.7653 4.11714 12.2233 5.18571 12.2233 6.72571Z" transform="translate(333 42)" fill="#333333"/>
<path d="M6.61719 11H5.55371V3.94775H1.87451V11H0.811035V3.00244H6.61719V11ZM13.1001 8.00293C13.1001 9.0127 12.8566 9.79329 12.3696 10.3447C11.8826 10.8926 11.2345 11.1665 10.4253 11.1665C9.59098 11.1665 8.93392 10.8836 8.4541 10.3179C7.97786 9.74854 7.73975 8.97689 7.73975 8.00293C7.73975 7.00033 7.98503 6.22152 8.47559 5.6665C8.96973 5.11149 9.61963 4.83398 10.4253 4.83398C11.2345 4.83398 11.8826 5.11149 12.3696 5.6665C12.8566 6.21794 13.1001 6.99674 13.1001 8.00293ZM12.0581 8.00293C12.0581 7.22591 11.9167 6.64941 11.6338 6.27344C11.3509 5.89388 10.9481 5.7041 10.4253 5.7041C9.89893 5.7041 9.49251 5.89388 9.20605 6.27344C8.92318 6.64941 8.78174 7.22591 8.78174 8.00293C8.78174 8.75488 8.92318 9.32601 9.20605 9.71631C9.49251 10.103 9.89893 10.2964 10.4253 10.2964C10.9445 10.2964 11.3455 10.1066 11.6284 9.72705C11.9149 9.34391 12.0581 8.76921 12.0581 8.00293ZM18.874 11H17.8643V5.87061H15.1465V11H14.1367V5.00049H18.874V11ZM25.271 8.00293C25.271 9.0127 25.0275 9.79329 24.5405 10.3447C24.0535 10.8926 23.4054 11.1665 22.5962 11.1665C21.7619 11.1665 21.1048 10.8836 20.625 10.3179C20.1488 9.74854 19.9106 8.97689 19.9106 8.00293C19.9106 7.00033 20.1559 6.22152 20.6465 5.6665C21.1406 5.11149 21.7905 4.83398 22.5962 4.83398C23.4054 4.83398 24.0535 5.11149 24.5405 5.6665C25.0275 6.21794 25.271 6.99674 25.271 8.00293ZM24.229 8.00293C24.229 7.22591 24.0876 6.64941 23.8047 6.27344C23.5218 5.89388 23.119 5.7041 22.5962 5.7041C22.0698 5.7041 21.6634 5.89388 21.377 6.27344C21.0941 6.64941 20.9526 7.22591 20.9526 8.00293C20.9526 8.75488 21.0941 9.32601 21.377 9.71631C21.6634 10.103 22.0698 10.2964 22.5962 10.2964C23.1154 10.2964 23.5164 10.1066 23.7993 9.72705C24.0858 9.34391 24.229 8.76921 24.229 8.00293ZM30.9536 11H29.9438V5.84912H27.8813C27.8706 6.14632 27.8599 6.43278 27.8491 6.7085C27.8384 6.98063 27.8276 7.2277 27.8169 7.44971C27.7954 8.01188 27.7578 8.48275 27.7041 8.8623C27.654 9.24186 27.5895 9.54622 27.5107 9.77539C27.432 10.0117 27.3442 10.1961 27.2476 10.3286C27.1545 10.4611 27.0488 10.5811 26.9307 10.6885C26.8089 10.7959 26.6782 10.8765 26.5386 10.9302C26.3989 10.9839 26.2414 11.0107 26.0659 11.0107C26.0086 11.0107 25.9352 11.009 25.8457 11.0054C25.7562 11.0018 25.6935 11 25.6577 11V10.1191H25.7114C25.7365 10.1191 25.7616 10.1209 25.7866 10.1245C25.8153 10.1281 25.8475 10.1299 25.8833 10.1299C25.9692 10.1299 26.0534 10.1174 26.1357 10.0923C26.2181 10.0672 26.2915 10.0207 26.356 9.95264C26.535 9.77718 26.6657 9.47103 26.748 9.03418C26.8304 8.59375 26.8895 7.97965 26.9253 7.19189C26.9396 6.89827 26.9521 6.55094 26.9629 6.1499C26.9772 5.74886 26.9897 5.36572 27.0005 5.00049H30.9536V11ZM37.1572 11H36.1475V8.29834H33.4297V11H32.4199V5.00049H33.4297V7.42822H36.1475V5.00049H37.1572V11ZM41.2231 11.1396C40.2671 11.1396 39.5241 10.8711 38.9941 10.334C38.4678 9.79329 38.2046 9.02702 38.2046 8.03516C38.2046 7.05762 38.4606 6.2806 38.9727 5.7041C39.4847 5.12402 40.1543 4.83398 40.9814 4.83398C41.3538 4.83398 41.6833 4.8877 41.9697 4.99512C42.2562 5.10254 42.5068 5.27083 42.7217 5.5C42.9365 5.72917 43.1012 6.01025 43.2158 6.34326C43.3304 6.67269 43.3877 7.07731 43.3877 7.55713V8.10498H39.2305C39.2305 8.80322 39.4059 9.33675 39.7568 9.70557C40.1077 10.0744 40.5929 10.2588 41.2124 10.2588C41.4344 10.2588 41.651 10.2337 41.8623 10.1836C42.0771 10.1335 42.2705 10.069 42.4424 9.99023C42.625 9.90788 42.779 9.8291 42.9043 9.75391C43.0296 9.67513 43.1335 9.60173 43.2158 9.53369H43.2749V10.6348C43.1567 10.6813 43.0099 10.7404 42.8345 10.812C42.659 10.88 42.5015 10.9338 42.3618 10.9731C42.1649 11.0269 41.9858 11.068 41.8247 11.0967C41.6672 11.1253 41.4666 11.1396 41.2231 11.1396ZM42.4048 7.33154C42.3976 7.05941 42.3654 6.82487 42.3081 6.62793C42.2508 6.43099 42.1685 6.26449 42.061 6.12842C41.9429 5.97803 41.7907 5.86344 41.6045 5.78467C41.4219 5.70589 41.1945 5.6665 40.9224 5.6665C40.6538 5.6665 40.4246 5.70768 40.2349 5.79004C40.0487 5.86882 39.8786 5.98519 39.7246 6.13916C39.5742 6.29671 39.4596 6.47217 39.3809 6.66553C39.3021 6.85531 39.252 7.07731 39.2305 7.33154H42.4048ZM49.1455 11H48.1357V8.29834H45.418V11H44.4082V5.00049H45.418V7.42822H48.1357V5.00049H49.1455V11ZM55.3438 11H54.3447V6.52588L51.5195 11H50.6064V5.00049H51.6055V9.40479L54.3984 5.00049H55.3438V11ZM59.4097 11.1396C58.4536 11.1396 57.7106 10.8711 57.1807 10.334C56.6543 9.79329 56.3911 9.02702 56.3911 8.03516C56.3911 7.05762 56.6471 6.2806 57.1592 5.7041C57.6712 5.12402 58.3408 4.83398 59.168 4.83398C59.5404 4.83398 59.8698 4.8877 60.1562 4.99512C60.4427 5.10254 60.6934 5.27083 60.9082 5.5C61.123 5.72917 61.2878 6.01025 61.4023 6.34326C61.5169 6.67269 61.5742 7.07731 61.5742 7.55713V8.10498H57.417C57.417 8.80322 57.5924 9.33675 57.9434 9.70557C58.2943 10.0744 58.7795 10.2588 59.3989 10.2588C59.6209 10.2588 59.8376 10.2337 60.0488 10.1836C60.2637 10.1335 60.457 10.069 60.6289 9.99023C60.8115 9.90788 60.9655 9.8291 61.0908 9.75391C61.2161 9.67513 61.32 9.60173 61.4023 9.53369H61.4614V10.6348C61.3433 10.6813 61.1965 10.7404 61.021 10.812C60.8455 10.88 60.688 10.9338 60.5483 10.9731C60.3514 11.0269 60.1724 11.068 60.0112 11.0967C59.8537 11.1253 59.6532 11.1396 59.4097 11.1396ZM60.5913 7.33154C60.5841 7.05941 60.5519 6.82487 60.4946 6.62793C60.4373 6.43099 60.355 6.26449 60.2476 6.12842C60.1294 5.97803 59.9772 5.86344 59.791 5.78467C59.6084 5.70589 59.381 5.6665 59.1089 5.6665C58.8403 5.6665 58.6112 5.70768 58.4214 5.79004C58.2352 5.86882 58.0651 5.98519 57.9111 6.13916C57.7607 6.29671 57.6462 6.47217 57.5674 6.66553C57.4886 6.85531 57.4385 7.07731 57.417 7.33154H60.5913ZM70.7373 9.18457C70.7373 9.47461 70.6818 9.73242 70.5708 9.95801C70.4598 10.18 70.3076 10.3662 70.1143 10.5166C69.8708 10.7064 69.6147 10.8353 69.3462 10.9033C69.0812 10.9678 68.7625 11 68.3901 11H66.0322V5.00049H68.2344C68.6748 5.00049 68.9971 5.01481 69.2012 5.04346C69.4053 5.06852 69.6076 5.13656 69.8081 5.24756C70.0194 5.36214 70.1751 5.51432 70.2754 5.7041C70.3757 5.89388 70.4258 6.11947 70.4258 6.38086C70.4258 6.66732 70.347 6.92513 70.1895 7.1543C70.0319 7.37988 69.8224 7.55534 69.561 7.68066L69.5879 7.71826C69.9137 7.80062 70.1859 7.96712 70.4043 8.21777C70.6263 8.46842 70.7373 8.79069 70.7373 9.18457ZM69.3892 6.53662C69.3892 6.40055 69.3659 6.28239 69.3193 6.18213C69.2764 6.08187 69.1994 6.00309 69.0884 5.9458C68.9595 5.87777 68.8145 5.83838 68.6533 5.82764C68.4958 5.81331 68.2756 5.80615 67.9927 5.80615H67.0312V7.44971H68.1914C68.4385 7.44971 68.6139 7.43896 68.7178 7.41748C68.8216 7.39242 68.9362 7.34229 69.0615 7.26709C69.1797 7.19548 69.2638 7.0988 69.314 6.97705C69.3641 6.85531 69.3892 6.7085 69.3892 6.53662ZM69.6953 9.18994C69.6953 8.98584 69.6649 8.82292 69.604 8.70117C69.5467 8.57585 69.4178 8.46484 69.2173 8.36816C69.092 8.30729 68.9577 8.26969 68.8145 8.25537C68.6712 8.24105 68.4725 8.23389 68.2183 8.23389H67.0312V10.1943H67.9067C68.2684 10.1943 68.5495 10.18 68.75 10.1514C68.9505 10.1227 69.1224 10.0654 69.2656 9.97949C69.416 9.88639 69.5252 9.77897 69.5933 9.65723C69.6613 9.53548 69.6953 9.37972 69.6953 9.18994ZM80.8027 11H79.8037V6.28418L78.3643 9.3457H77.6123L76.1836 6.28418V11H75.2383V5.00049H76.4575L78.0366 8.33057L79.562 5.00049H80.8027V11ZM85.6152 9.52295V7.85791C85.3753 7.87939 85.071 7.90983 84.7021 7.94922C84.3369 7.98503 84.0415 8.03695 83.8159 8.10498C83.5474 8.18734 83.3254 8.31445 83.1499 8.48633C82.9744 8.65462 82.8867 8.89095 82.8867 9.19531C82.8867 9.53906 82.9834 9.79867 83.1768 9.97412C83.3701 10.1496 83.653 10.2373 84.0254 10.2373C84.3441 10.2373 84.6323 10.1693 84.8901 10.0332C85.1479 9.89355 85.3896 9.72347 85.6152 9.52295ZM85.6152 10.3608C85.5329 10.4217 85.4219 10.5076 85.2822 10.6187C85.1462 10.7261 85.0137 10.812 84.8848 10.8765C84.7057 10.9696 84.5321 11.0412 84.3638 11.0913C84.1991 11.1414 83.9663 11.1665 83.6655 11.1665C83.4185 11.1665 83.1839 11.12 82.9619 11.0269C82.7399 10.9338 82.5448 10.8031 82.3765 10.6348C82.2153 10.4701 82.0864 10.2677 81.9897 10.0278C81.8931 9.78434 81.8447 9.52832 81.8447 9.25977C81.8447 8.8444 81.9325 8.4917 82.1079 8.20166C82.2834 7.90804 82.5609 7.67529 82.9404 7.50342C83.277 7.34945 83.6745 7.24382 84.1328 7.18652C84.5911 7.12565 85.0853 7.08089 85.6152 7.05225V6.85889C85.6152 6.62256 85.5794 6.43278 85.5078 6.28955C85.4362 6.14274 85.3359 6.02995 85.207 5.95117C85.0781 5.86882 84.9206 5.8151 84.7344 5.79004C84.5482 5.76139 84.3566 5.74707 84.1597 5.74707C83.9269 5.74707 83.653 5.78288 83.3379 5.85449C83.0228 5.92253 82.7077 6.02279 82.3926 6.15527H82.3335V5.12939C82.5197 5.07568 82.7865 5.0166 83.1338 4.95215C83.4811 4.8877 83.8249 4.85547 84.165 4.85547C84.5768 4.85547 84.9242 4.8877 85.207 4.95215C85.4899 5.0166 85.7441 5.13298 85.9697 5.30127C86.1882 5.46598 86.3511 5.67904 86.4585 5.94043C86.5659 6.20182 86.6196 6.52051 86.6196 6.89648V11H85.6152V10.3608ZM93.0757 7.8418C93.0757 8.84082 92.8358 9.63753 92.356 10.2319C91.8797 10.8228 91.2764 11.1182 90.5459 11.1182C90.2487 11.1182 89.9855 11.0841 89.7563 11.0161C89.5272 10.9481 89.2926 10.8424 89.0527 10.6992V13.2129H88.043V5.00049H89.0527V5.62891C89.3034 5.40332 89.5809 5.21533 89.8853 5.06494C90.1932 4.91097 90.528 4.83398 90.8896 4.83398C91.5771 4.83398 92.1125 5.10612 92.4956 5.65039C92.8823 6.19466 93.0757 6.92513 93.0757 7.8418ZM92.0337 7.95459C92.0337 7.27067 91.9245 6.74072 91.7061 6.36475C91.4876 5.98519 91.1331 5.79541 90.6426 5.79541C90.3561 5.79541 90.0786 5.85986 89.8101 5.98877C89.5451 6.1141 89.2926 6.27702 89.0527 6.47754V9.87744C89.3177 10.0063 89.5433 10.0941 89.7295 10.1406C89.9193 10.1872 90.1359 10.2104 90.3794 10.2104C90.9022 10.2104 91.3086 10.0189 91.5986 9.63574C91.8887 9.2526 92.0337 8.69222 92.0337 7.95459ZM98.9517 11H97.6948L95.6377 8.23389H95.1328V11H94.123V5.00049H95.1328V7.61084C95.3942 7.60726 95.6162 7.55355 95.7988 7.44971C95.985 7.34229 96.1426 7.13639 96.2715 6.83203C96.3109 6.74251 96.3538 6.63867 96.4004 6.52051C96.4505 6.40234 96.4899 6.2985 96.5186 6.20898C96.6761 5.76855 96.8945 5.45703 97.1738 5.27441C97.4531 5.0918 97.8166 5.00049 98.2642 5.00049H98.5381V5.87061H98.3071C98.0243 5.87061 97.8112 5.92969 97.668 6.04785C97.5283 6.16243 97.4102 6.3737 97.3135 6.68164C97.2132 6.99316 97.0951 7.23665 96.959 7.41211C96.8229 7.58398 96.6725 7.71647 96.5078 7.80957L98.9517 11ZM102.207 11.1396C101.25 11.1396 100.507 10.8711 99.9775 10.334C99.4512 9.79329 99.188 9.02702 99.188 8.03516C99.188 7.05762 99.444 6.2806 99.9561 5.7041C100.468 5.12402 101.138 4.83398 101.965 4.83398C102.337 4.83398 102.667 4.8877 102.953 4.99512C103.24 5.10254 103.49 5.27083 103.705 5.5C103.92 5.72917 104.085 6.01025 104.199 6.34326C104.314 6.67269 104.371 7.07731 104.371 7.55713V8.10498H100.214C100.214 8.80322 100.389 9.33675 100.74 9.70557C101.091 10.0744 101.576 10.2588 102.196 10.2588C102.418 10.2588 102.634 10.2337 102.846 10.1836C103.061 10.1335 103.254 10.069 103.426 9.99023C103.608 9.90788 103.762 9.8291 103.888 9.75391C104.013 9.67513 104.117 9.60173 104.199 9.53369H104.258V10.6348C104.14 10.6813 103.993 10.7404 103.818 10.812C103.642 10.88 103.485 10.9338 103.345 10.9731C103.148 11.0269 102.969 11.068 102.808 11.0967C102.651 11.1253 102.45 11.1396 102.207 11.1396ZM103.388 7.33154C103.381 7.05941 103.349 6.82487 103.292 6.62793C103.234 6.43099 103.152 6.26449 103.044 6.12842C102.926 5.97803 102.774 5.86344 102.588 5.78467C102.405 5.70589 102.178 5.6665 101.906 5.6665C101.637 5.6665 101.408 5.70768 101.218 5.79004C101.032 5.86882 100.862 5.98519 100.708 6.13916C100.558 6.29671 100.443 6.47217 100.364 6.66553C100.285 6.85531 100.235 7.07731 100.214 7.33154H103.388ZM109.774 5.88672H107.733V11H106.724V5.88672H104.683V5.00049H109.774V5.88672ZM113.131 11.1396C112.175 11.1396 111.432 10.8711 110.902 10.334C110.376 9.79329 110.113 9.02702 110.113 8.03516C110.113 7.05762 110.369 6.2806 110.881 5.7041C111.393 5.12402 112.062 4.83398 112.89 4.83398C113.262 4.83398 113.591 4.8877 113.878 4.99512C114.164 5.10254 114.415 5.27083 114.63 5.5C114.845 5.72917 115.009 6.01025 115.124 6.34326C115.239 6.67269 115.296 7.07731 115.296 7.55713V8.10498H111.139C111.139 8.80322 111.314 9.33675 111.665 9.70557C112.016 10.0744 112.501 10.2588 113.121 10.2588C113.343 10.2588 113.559 10.2337 113.771 10.1836C113.985 10.1335 114.179 10.069 114.351 9.99023C114.533 9.90788 114.687 9.8291 114.812 9.75391C114.938 9.67513 115.042 9.60173 115.124 9.53369H115.183V10.6348C115.065 10.6813 114.918 10.7404 114.743 10.812C114.567 10.88 114.41 10.9338 114.27 10.9731C114.073 11.0269 113.894 11.068 113.733 11.0967C113.575 11.1253 113.375 11.1396 113.131 11.1396ZM114.313 7.33154C114.306 7.05941 114.274 6.82487 114.216 6.62793C114.159 6.43099 114.077 6.26449 113.969 6.12842C113.851 5.97803 113.699 5.86344 113.513 5.78467C113.33 5.70589 113.103 5.6665 112.831 5.6665C112.562 5.6665 112.333 5.70768 112.143 5.79004C111.957 5.86882 111.787 5.98519 111.633 6.13916C111.482 6.29671 111.368 6.47217 111.289 6.66553C111.21 6.85531 111.16 7.07731 111.139 7.33154H114.313Z" transform="translate(0 73)" fill="#333333"/>
<path d="M37.8438 48.25C37.8438 50.6667 37.4271 52.9062 36.5938 54.9688C35.7812 57.0312 34.5521 58.8125 32.9062 60.3125C31.2812 61.7917 29.3438 62.9375 27.0938 63.75C24.8646 64.5625 22.1146 64.9688 18.8438 64.9688C15.3854 64.9479 12.4062 64.6458 9.90625 64.0625C7.42708 63.5 5.375 62.8646 3.75 62.1562V52H4.8125C5.39583 52.3333 6.05208 52.7083 6.78125 53.125C7.51042 53.5417 8.46875 53.9792 9.65625 54.4375C10.7604 54.875 11.875 55.2396 13 55.5312C14.1458 55.8021 15.4167 55.9375 16.8125 55.9375C18.0208 55.9375 19.3229 55.7917 20.7188 55.5C22.1146 55.1875 23.2396 54.6354 24.0938 53.8438C24.7188 53.2188 25.2083 52.5208 25.5625 51.75C25.9167 50.9792 26.0938 49.9479 26.0938 48.6562C26.0938 47.5729 25.8646 46.6458 25.4062 45.875C24.9688 45.0833 24.3854 44.4479 23.6562 43.9688C22.5938 43.2604 21.3125 42.8125 19.8125 42.625C18.3125 42.4167 17.0208 42.3125 15.9375 42.3125C14.2292 42.3125 12.5625 42.4479 10.9375 42.7188C9.33333 42.9896 7.9375 43.2812 6.75 43.5938H5.75V17.4688H36.5625V26.25H16.7812V34C17.4062 33.9583 18.1458 33.9271 19 33.9062C19.875 33.8646 20.5521 33.8438 21.0312 33.8438C23.2604 33.8438 25.3229 34.0729 27.2188 34.5312C29.1146 34.9688 30.7917 35.6562 32.25 36.5938C34.0208 37.7396 35.3958 39.2812 36.375 41.2188C37.3542 43.1354 37.8438 45.4792 37.8438 48.25ZM95.6875 26.3438H76V64H64.3125V17.4688H95.6875V26.3438ZM129.938 34.4688C131.271 35.8229 132.323 37.5 133.094 39.5C133.865 41.4792 134.25 43.9479 134.25 46.9062C134.25 52.3854 132.615 56.7917 129.344 60.125C126.094 63.4375 121.698 65.0938 116.156 65.0938C110.073 65.0938 105.552 63.125 102.594 59.1875C99.6354 55.25 98.1562 49.3542 98.1562 41.5C98.1562 40 98.2292 38.4792 98.375 36.9375C98.5208 35.375 98.8542 33.4896 99.375 31.2812C99.8125 29.4479 100.438 27.625 101.25 25.8125C102.083 23.9792 103.073 22.4792 104.219 21.3125C105.51 19.9792 107.271 18.8333 109.5 17.875C111.729 16.8958 114.854 16.2083 118.875 15.8125C120.771 15.625 123.021 15.4688 125.625 15.3438C128.229 15.2188 130.302 15.1354 131.844 15.0938V23.3125C130.531 23.375 129.323 23.4375 128.219 23.5C127.135 23.5417 125.885 23.6146 124.469 23.7188C123.594 23.7812 122.448 23.8854 121.031 24.0312C119.615 24.1562 118.406 24.3125 117.406 24.5C116.198 24.75 115.073 25.1354 114.031 25.6562C113.01 26.1771 112.167 26.8646 111.5 27.7188C111 28.3646 110.583 29.2292 110.25 30.3125C109.938 31.375 109.708 32.6875 109.562 34.25C111.104 33.1458 112.729 32.2604 114.438 31.5938C116.146 30.9271 117.99 30.5938 119.969 30.5938C121.927 30.5938 123.76 30.9167 125.469 31.5625C127.177 32.2083 128.667 33.1771 129.938 34.4688ZM120.781 55.2812C121.448 54.4688 121.979 53.4792 122.375 52.3125C122.792 51.125 123 49.4479 123 47.2812C123 44.7604 122.354 42.7396 121.062 41.2188C119.771 39.6771 118.062 38.9062 115.938 38.9062C114.958 38.9062 113.927 39.0312 112.844 39.2812C111.76 39.5312 110.625 39.9896 109.438 40.6562C109.438 40.8646 109.427 41.1667 109.406 41.5625C109.406 41.9375 109.406 42.2812 109.406 42.5938C109.406 45.6146 109.5 47.9062 109.688 49.4688C109.875 51.0312 110.292 52.4792 110.938 53.8125C111.479 54.9375 112.208 55.7917 113.125 56.375C114.042 56.9583 115.104 57.25 116.312 57.25C117 57.25 117.76 57.0938 118.594 56.7812C119.448 56.4688 120.177 55.9688 120.781 55.2812ZM166.461 57.9648C166.461 59.1888 166.194 60.224 165.66 61.0703C165.126 61.9167 164.443 62.5872 163.609 63.082C162.815 63.5638 161.91 63.9219 160.895 64.1562C159.879 64.3906 158.863 64.5078 157.848 64.5078C156.415 64.5078 155.061 64.3646 153.785 64.0781C152.509 63.8047 151.24 63.362 149.977 62.75V58.6875H150.211C151.096 59.5078 152.203 60.1589 153.531 60.6406C154.872 61.1094 156.207 61.3438 157.535 61.3438C158.108 61.3438 158.72 61.2852 159.371 61.168C160.035 61.0378 160.595 60.8424 161.051 60.582C161.65 60.2174 162.073 59.8268 162.32 59.4102C162.581 58.9935 162.711 58.4206 162.711 57.6914C162.711 56.9102 162.561 56.2852 162.262 55.8164C161.975 55.3346 161.578 54.9766 161.07 54.7422C160.562 54.5078 159.99 54.3646 159.352 54.3125C158.727 54.2474 158.062 54.2148 157.359 54.2148H154.781V51.0508H156.754C157.249 51.0508 157.867 51.0378 158.609 51.0117C159.352 50.9727 159.944 50.8685 160.387 50.6992C160.947 50.4909 161.396 50.1979 161.734 49.8203C162.073 49.4297 162.242 48.7786 162.242 47.8672C162.242 47.2292 162.099 46.7148 161.812 46.3242C161.526 45.9336 161.168 45.6276 160.738 45.4062C160.296 45.1719 159.814 45.0156 159.293 44.9375C158.772 44.8464 158.271 44.8008 157.789 44.8008C156.552 44.8008 155.361 44.9766 154.215 45.3281C153.082 45.6667 152.105 46.1745 151.285 46.8516H151.051V42.8867C151.988 42.5612 153.023 42.2747 154.156 42.0273C155.302 41.7799 156.448 41.6562 157.594 41.6562C158.518 41.6562 159.456 41.7539 160.406 41.9492C161.37 42.1315 162.281 42.4505 163.141 42.9062C163.948 43.349 164.625 43.9609 165.172 44.7422C165.719 45.5104 165.992 46.4544 165.992 47.5742C165.992 48.7591 165.654 49.8008 164.977 50.6992C164.312 51.5846 163.427 52.1706 162.32 52.457V52.5938C163.531 53.0104 164.521 53.6484 165.289 54.5078C166.07 55.3672 166.461 56.5195 166.461 57.9648ZM182.516 58.6289V52.5742C181.643 52.6523 180.536 52.763 179.195 52.9062C177.867 53.0365 176.793 53.2253 175.973 53.4727C174.996 53.7721 174.189 54.2344 173.551 54.8594C172.913 55.4714 172.594 56.3307 172.594 57.4375C172.594 58.6875 172.945 59.6315 173.648 60.2695C174.352 60.9076 175.38 61.2266 176.734 61.2266C177.893 61.2266 178.941 60.9792 179.879 60.4844C180.816 59.9766 181.695 59.3581 182.516 58.6289ZM182.516 61.6758C182.216 61.8971 181.812 62.2096 181.305 62.6133C180.81 63.0039 180.328 63.3164 179.859 63.5508C179.208 63.8893 178.577 64.1497 177.965 64.332C177.366 64.5143 176.52 64.6055 175.426 64.6055C174.527 64.6055 173.674 64.4362 172.867 64.0977C172.06 63.7591 171.35 63.2839 170.738 62.6719C170.152 62.0729 169.684 61.3372 169.332 60.4648C168.98 59.5794 168.805 58.6484 168.805 57.6719C168.805 56.1615 169.124 54.8789 169.762 53.8242C170.4 52.7565 171.409 51.9102 172.789 51.2852C174.013 50.7253 175.458 50.3411 177.125 50.1328C178.792 49.9115 180.589 49.7487 182.516 49.6445V48.9414C182.516 48.082 182.385 47.3919 182.125 46.8711C181.865 46.3372 181.5 45.9271 181.031 45.6406C180.562 45.3411 179.99 45.1458 179.312 45.0547C178.635 44.9505 177.939 44.8984 177.223 44.8984C176.376 44.8984 175.38 45.0286 174.234 45.2891C173.089 45.5365 171.943 45.901 170.797 46.3828H170.582V42.6523C171.259 42.457 172.229 42.2422 173.492 42.0078C174.755 41.7734 176.005 41.6562 177.242 41.6562C178.74 41.6562 180.003 41.7734 181.031 42.0078C182.06 42.2422 182.984 42.6654 183.805 43.2773C184.599 43.8763 185.191 44.651 185.582 45.6016C185.973 46.5521 186.168 47.7109 186.168 49.0781V64H182.516V61.6758ZM239.008 64H208.258V55.875H218.07V31.2812H208.258V23.6875C209.695 23.6875 211.122 23.5938 212.539 23.4062C213.956 23.2188 215.091 22.9167 215.945 22.5C216.945 22 217.716 21.3333 218.258 20.5C218.82 19.6458 219.143 18.5938 219.227 17.3438H229.414V55.875H239.008V64ZM281.695 51.0312C281.695 53.0312 281.279 54.8958 280.445 56.625C279.633 58.3333 278.435 59.8125 276.852 61.0625C275.268 62.3125 273.331 63.2917 271.039 64C268.768 64.7083 266.164 65.0625 263.227 65.0625C260.102 65.0625 257.362 64.7083 255.008 64C252.654 63.2708 250.727 62.2917 249.227 61.0625C247.747 59.8333 246.654 58.3854 245.945 56.7188C245.237 55.0521 244.883 53.2917 244.883 51.4375C244.883 48.7708 245.612 46.5521 247.07 44.7812C248.549 43.0104 250.685 41.5312 253.477 40.3438V40.1562C250.747 38.8229 248.841 37.2083 247.758 35.3125C246.674 33.4167 246.133 31.3021 246.133 28.9688C246.133 27.2604 246.508 25.6562 247.258 24.1562C248.008 22.6562 249.133 21.3125 250.633 20.125C252.049 19 253.841 18.1042 256.008 17.4375C258.195 16.75 260.643 16.4062 263.352 16.4062C266.227 16.4062 268.727 16.7188 270.852 17.3438C272.997 17.9479 274.758 18.75 276.133 19.75C277.549 20.7708 278.633 22.0104 279.383 23.4688C280.133 24.9062 280.508 26.4688 280.508 28.1562C280.508 30.3646 279.862 32.3646 278.57 34.1562C277.299 35.9271 275.341 37.4167 272.695 38.625V38.8125C275.779 40.0625 278.049 41.7083 279.508 43.75C280.966 45.7708 281.695 48.1979 281.695 51.0312ZM269.195 29.5312C269.195 27.9479 268.674 26.6875 267.633 25.75C266.591 24.7917 265.174 24.3125 263.383 24.3125C261.674 24.3125 260.289 24.7396 259.227 25.5938C258.185 26.4479 257.664 27.5 257.664 28.75C257.664 30 257.977 31.0104 258.602 31.7812C259.247 32.5312 260.237 33.2292 261.57 33.875C262.154 34.1667 262.841 34.4688 263.633 34.7812C264.445 35.0938 265.518 35.5 266.852 36C267.664 34.9375 268.258 33.9167 268.633 32.9375C269.008 31.9375 269.195 30.8021 269.195 29.5312ZM270.164 51.5312C270.164 50.0104 269.841 48.8438 269.195 48.0312C268.549 47.2188 267.164 46.3021 265.039 45.2812C264.435 44.9896 263.56 44.625 262.414 44.1875C261.289 43.75 260.289 43.3438 259.414 42.9688C258.602 43.7812 257.872 44.7917 257.227 46C256.602 47.1875 256.289 48.5 256.289 49.9375C256.289 52.1042 256.977 53.8333 258.352 55.125C259.727 56.4167 261.539 57.0625 263.789 57.0625C264.393 57.0625 265.081 56.9688 265.852 56.7812C266.643 56.5729 267.341 56.2604 267.945 55.8438C268.612 55.3646 269.143 54.8021 269.539 54.1562C269.956 53.5104 270.164 52.6354 270.164 51.5312ZM321.977 40.7188C321.977 44.7396 321.654 48.2604 321.008 51.2812C320.362 54.3021 319.331 56.8229 317.914 58.8438C316.497 60.8646 314.654 62.3958 312.383 63.4375C310.112 64.4583 307.331 64.9688 304.039 64.9688C300.768 64.9688 297.997 64.4583 295.727 63.4375C293.456 62.3958 291.602 60.8438 290.164 58.7812C288.747 56.7396 287.716 54.2292 287.07 51.25C286.424 48.25 286.102 44.75 286.102 40.75C286.102 36.625 286.414 33.1042 287.039 30.1875C287.685 27.2708 288.747 24.7604 290.227 22.6562C291.685 20.5938 293.56 19.0625 295.852 18.0625C298.143 17.0417 300.872 16.5312 304.039 16.5312C307.393 16.5312 310.185 17.0625 312.414 18.125C314.664 19.1667 316.508 20.7292 317.945 22.8125C319.362 24.8542 320.383 27.375 321.008 30.375C321.654 33.375 321.977 36.8229 321.977 40.7188ZM310.258 40.7188C310.258 34.9688 309.779 30.9375 308.82 28.625C307.883 26.2917 306.289 25.125 304.039 25.125C301.81 25.125 300.216 26.2917 299.258 28.625C298.299 30.9375 297.82 34.9896 297.82 40.7812C297.82 46.4479 298.299 50.4688 299.258 52.8438C300.216 55.1979 301.81 56.375 304.039 56.375C306.268 56.375 307.862 55.1979 308.82 52.8438C309.779 50.4688 310.258 46.4271 310.258 40.7188ZM390.156 57.3984C390.156 58.4531 389.954 59.3906 389.551 60.2109C389.147 61.0182 388.594 61.6953 387.891 62.2422C387.005 62.9323 386.074 63.401 385.098 63.6484C384.134 63.8828 382.975 64 381.621 64H373.047V42.1836H381.055C382.656 42.1836 383.828 42.2357 384.57 42.3398C385.312 42.431 386.048 42.6784 386.777 43.082C387.546 43.4987 388.112 44.0521 388.477 44.7422C388.841 45.4323 389.023 46.2526 389.023 47.2031C389.023 48.2448 388.737 49.1823 388.164 50.0156C387.591 50.8359 386.829 51.474 385.879 51.9297L385.977 52.0664C387.161 52.3659 388.151 52.9714 388.945 53.8828C389.753 54.7943 390.156 55.9661 390.156 57.3984ZM385.254 47.7695C385.254 47.2747 385.169 46.8451 385 46.4805C384.844 46.1159 384.564 45.8294 384.16 45.6211C383.691 45.3737 383.164 45.2305 382.578 45.1914C382.005 45.1393 381.204 45.1133 380.176 45.1133H376.68V51.0898H380.898C381.797 51.0898 382.435 51.0508 382.812 50.9727C383.19 50.8815 383.607 50.6992 384.062 50.4258C384.492 50.1654 384.798 49.8138 384.98 49.3711C385.163 48.9284 385.254 48.3945 385.254 47.7695ZM386.367 57.418C386.367 56.6758 386.257 56.0833 386.035 55.6406C385.827 55.1849 385.358 54.7812 384.629 54.4297C384.173 54.2083 383.685 54.0716 383.164 54.0195C382.643 53.9674 381.921 53.9414 380.996 53.9414H376.68V61.0703H379.863C381.178 61.0703 382.201 61.0182 382.93 60.9141C383.659 60.8099 384.284 60.6016 384.805 60.2891C385.352 59.9505 385.749 59.5599 385.996 59.1172C386.243 58.6745 386.367 58.1081 386.367 57.418ZM426.758 64H423.125V46.8516L417.891 57.9844H415.156L409.961 46.8516V64H406.523V42.1836H410.957L416.699 54.293L422.246 42.1836H426.758V64ZM441.543 64.5078C438.066 64.5078 435.365 63.5312 433.438 61.5781C431.523 59.612 430.566 56.8255 430.566 53.2188C430.566 49.6641 431.497 46.8385 433.359 44.7422C435.221 42.6328 437.656 41.5781 440.664 41.5781C442.018 41.5781 443.216 41.7734 444.258 42.1641C445.299 42.5547 446.211 43.1667 446.992 44C447.773 44.8333 448.372 45.8555 448.789 47.0664C449.206 48.2643 449.414 49.7357 449.414 51.4805V53.4727H434.297C434.297 56.0117 434.935 57.9518 436.211 59.293C437.487 60.6341 439.251 61.3047 441.504 61.3047C442.311 61.3047 443.099 61.2135 443.867 61.0312C444.648 60.849 445.352 60.6146 445.977 60.3281C446.641 60.0286 447.201 59.7422 447.656 59.4688C448.112 59.1823 448.49 58.9154 448.789 58.668H449.004V62.6719C448.574 62.8411 448.04 63.056 447.402 63.3164C446.764 63.5638 446.191 63.7591 445.684 63.9023C444.967 64.0977 444.316 64.2474 443.73 64.3516C443.158 64.4557 442.428 64.5078 441.543 64.5078ZM445.84 50.6602C445.814 49.6706 445.697 48.8177 445.488 48.1016C445.28 47.3854 444.98 46.7799 444.59 46.2852C444.16 45.7383 443.607 45.3216 442.93 45.0352C442.266 44.7487 441.439 44.6055 440.449 44.6055C439.473 44.6055 438.639 44.7552 437.949 45.0547C437.272 45.3411 436.654 45.7643 436.094 46.3242C435.547 46.8971 435.13 47.5352 434.844 48.2383C434.557 48.9284 434.375 49.7357 434.297 50.6602H445.84ZM461.797 64.4883C460.299 64.4883 458.926 64.2604 457.676 63.8047C456.426 63.3359 455.352 62.6328 454.453 61.6953C453.555 60.7578 452.858 59.5794 452.363 58.1602C451.868 56.7279 451.621 55.0482 451.621 53.1211C451.621 51.207 451.875 49.5534 452.383 48.1602C452.904 46.7669 453.594 45.5951 454.453 44.6445C455.312 43.694 456.38 42.9648 457.656 42.457C458.945 41.9362 460.326 41.6758 461.797 41.6758C462.995 41.6758 464.147 41.8451 465.254 42.1836C466.374 42.5221 467.37 42.9128 468.242 43.3555V47.4766H468.027C467.767 47.2552 467.428 47.0013 467.012 46.7148C466.608 46.4284 466.113 46.1354 465.527 45.8359C465.02 45.5755 464.421 45.3477 463.73 45.1523C463.04 44.957 462.376 44.8594 461.738 44.8594C459.837 44.8594 458.307 45.582 457.148 47.0273C456.003 48.4596 455.43 50.4909 455.43 53.1211C455.43 55.6992 455.983 57.7109 457.09 59.1562C458.21 60.5885 459.759 61.3047 461.738 61.3047C462.936 61.3047 464.076 61.0573 465.156 60.5625C466.237 60.0677 467.194 59.4297 468.027 58.6484H468.242V62.7695C467.878 62.9388 467.422 63.1471 466.875 63.3945C466.328 63.6289 465.833 63.8047 465.391 63.9219C464.766 64.1042 464.206 64.2409 463.711 64.332C463.216 64.4362 462.578 64.4883 461.797 64.4883ZM487.402 64H483.73V55.3477H480.098L473.633 64H469.355L476.367 55.0156C474.557 54.4818 473.229 53.6875 472.383 52.6328C471.549 51.5781 471.133 50.1654 471.133 48.3945C471.133 47.3138 471.367 46.3698 471.836 45.5625C472.318 44.7422 472.962 44.0521 473.77 43.4922C474.421 43.0495 475.241 42.724 476.23 42.5156C477.22 42.2943 478.327 42.1836 479.551 42.1836H487.402V64ZM483.73 52.457V45.1133H479.746C478.9 45.1133 478.229 45.1589 477.734 45.25C477.253 45.3411 476.784 45.5169 476.328 45.7773C475.859 46.0638 475.501 46.4544 475.254 46.9492C475.02 47.431 474.902 47.9518 474.902 48.5117C474.902 49.2279 474.98 49.8138 475.137 50.2695C475.306 50.7122 475.605 51.1224 476.035 51.5C476.491 51.8906 477.044 52.151 477.695 52.2812C478.359 52.3984 479.082 52.457 479.863 52.457H483.73ZM511.992 69.2344H508.574V64H492.734V42.1836H496.406V60.8359H506.152V42.1836H509.824V60.8359H511.992V69.2344Z" fill="#333333"/>
</svg>
