<svg width="106" height="172" viewBox="0 0 106 172" fill="none" xmlns="http://www.w3.org/2000/svg">
<path d="M1.5 86C1.5 39.5284 39.5284 1.5 86 1.5C132.471 1.5 170.5 39.5284 170.5 86C170.5 132.472 132.472 170.5 86 170.5C39.5284 170.5 1.5 132.472 1.5 86ZM14.6254 86C14.6254 125.528 46.4716 157.375 86 157.375C125.528 157.375 157.375 125.528 157.375 86C157.375 46.4716 125.528 14.6249 86 14.6249C46.4715 14.6249 14.6254 46.4722 14.6254 86Z" transform="translate(-66)" fill="#2D2908" stroke="white" stroke-width="3"/>
<path d="M55.9 -5.76578e-07L22.5751 55.9L2.16217e-07 33.3249C0.000590632 33.3249 55.9 -5.76578e-07 55.9 -5.76578e-07Z" transform="translate(8.71216 41.3875)" fill="#FFDA00"/>
<path d="M-5.76578e-07 55.9L55.9 22.5751L33.3249 2.16217e-07C33.3249 0.000590632 -5.76578e-07 55.9 -5.76578e-07 55.9Z" transform="translate(-24.6123 74.7118)" fill="#2D2908"/>
</svg>
