<svg width="120" height="82" viewBox="0 0 120 82" fill="none" xmlns="http://www.w3.org/2000/svg"><path d="M36.099 78.218L2.022 76.844s-4.43-19.922 8.52-33.319c0 0 12.471-10.957 12.028-15.697l-.102-1.031c-.068-1.752-.647-6.939-5.452-6.63 0 0-4.09 0-7.156 7.9L1 19.138S6.657 1.894 20.083 3.233c0 0 14.96.481 15.47 22.053 0 0 .955 13.774-10.53 23.735C13.54 58.983 14.7 62.005 14.7 62.005l21.706.516-.306 15.697z" stroke="#fff"/><path d="M9.996 28.445l7.156-.171s2.351-6.012 3.783-6.492m.511-18.652l6.407.069s14.993 1.889 14.925 22.224c0 0 1.431 11.988-11.177 24.32 0 0-10.734 9.033-9.814 12.193m14.585.584h7.088v15.492l-7.088.206M59.55 1.756c6.44 1.442 11.348 9 11.348 18.068 0 9.48-5.316 17.277-12.165 18.24-.478.068-.955.102-1.466.102-7.53 0-13.63-8.21-13.63-18.342 0-10.133 6.1-18.343 13.63-18.343.784 0 1.534.103 2.283.275z" stroke="#fff"/><path d="M57.165 25.526c2.315 0 4.192-2.492 4.192-5.565 0-3.073-1.877-5.565-4.192-5.565-2.314 0-4.19 2.492-4.19 5.565 0 3.073 1.876 5.565 4.19 5.565z" stroke="#fff"/><path d="M59.619 1.48l5.486.241s13.733.275 12.71 21.022c0 0-.442 12.435-12.165 15.457h-6.917m3.029 40.602l-11.143-.344 41.982-76.84 12.2-.618-43.039 77.802zM105.073 1l7.053.31-43.174 77.217-7.19.275" stroke="#fff"/><path d="M99.563 43.181c6.68 1.512 11.79 9.343 11.79 18.755 0 9.824-5.52 17.896-12.607 18.927a10.97 10.97 0 0 1-1.5.103c-7.803 0-14.142-8.519-14.142-19.03 0-10.51 6.339-19.03 14.142-19.03.75 0 1.534.104 2.317.275z" stroke="#fff"/><path d="M101.437 62.073c0 3.195-1.942 5.771-4.361 5.771-2.42 0-4.362-2.576-4.362-5.77 0-3.195 1.942-5.771 4.362-5.771s4.361 2.576 4.361 5.77z" stroke="#fff"/><path d="M99.631 42.906l5.725.24s14.244.31 13.187 21.813c0 0-.477 12.88-12.608 16.04h-7.19" stroke="#fff"/></svg>