<svg width="61" height="70" viewBox="0 0 61 70" fill="none" xmlns="http://www.w3.org/2000/svg">
<rect width="60.8617" height="70" fill="black" fill-opacity="0"/>
<rect width="60.8617" height="70" fill="black" fill-opacity="0"/>
<rect width="54.4008" height="48.9393" fill="black" fill-opacity="0" transform="translate(6.46094 21.0605)"/>
<path d="M54.4008 26.2008H47.9398V22.3456C47.9398 21.6317 47.3686 21.0605 46.6547 21.0605C45.9408 21.0605 45.3697 21.6317 45.3697 22.3456V29.2349C44.62 28.8066 43.7276 28.521 42.7638 28.521C41.1932 28.521 39.8368 29.2349 38.873 30.3058C37.9092 29.2349 36.5527 28.521 34.9821 28.521C33.4115 28.521 32.055 29.2349 31.0912 30.3058C30.1274 29.2349 28.771 28.521 27.2004 28.521C25.6297 28.521 24.2733 29.2349 23.3095 30.3058C22.3457 29.2349 20.9892 28.521 19.4186 28.521C17.848 28.521 16.4915 29.2349 15.5277 30.3058C14.5639 29.2349 13.2075 28.521 11.6369 28.521C11.5298 28.521 11.387 28.5567 11.2085 28.5924C8.42422 29.1993 6.46094 31.7337 6.46094 34.5894V62.2181C6.46094 66.5016 9.92346 69.9999 14.2427 69.9999H40.158C44.4416 69.9999 47.9398 66.5373 47.9398 62.2181V57.3278H54.4008C57.9704 57.3278 60.8617 54.4364 60.8617 50.8668V32.6975C60.8617 29.1279 57.9704 26.2008 54.4008 26.2008Z" fill="#B8C0D1"/>
<path d="M32.377 33.6616C32.377 32.1624 33.662 30.9487 35.2326 31.0915C36.5891 31.2343 37.5886 32.4123 37.5886 33.733V59.577H32.377V33.6616Z" fill="white"/>
<path d="M24.5957 33.6618C24.5957 32.1626 25.8451 30.9846 27.38 31.0917C28.7721 31.1988 29.8073 32.3768 29.8073 33.7689V59.5772H24.5957V33.6618Z" fill="white"/>
<path d="M16.8477 33.6618C16.8477 32.1626 18.097 30.9846 19.6319 31.0917C21.0241 31.1988 22.0593 32.3768 22.0593 33.7689V59.5772H16.8477V33.6618Z" fill="white"/>
<path d="M9.06641 33.6616C9.06641 32.1624 10.3872 30.9487 11.9221 31.0915C13.2785 31.2343 14.2423 32.4123 14.2423 33.733V59.577H9.06641V33.6616Z" fill="white"/>
<path d="M40.1577 67.3585H14.2423C11.3867 67.3585 9.06641 65.0383 9.06641 62.1826H45.3336C45.3336 65.0383 43.0134 67.3585 40.1577 67.3585Z" fill="white"/>
<path d="M45.3341 59.577H40.1582V33.7688C40.1582 32.3766 41.1934 31.1986 42.5855 31.0915C44.0848 30.9845 45.3698 32.1981 45.3698 33.6617V59.577H45.3341Z" fill="white"/>
<path d="M47.9395 33.9824H51.8303C52.5442 33.9824 53.1154 34.5536 53.1154 35.2675V48.2252C53.1154 48.9391 52.5442 49.5102 51.8303 49.5102H47.9395V33.9824Z" fill="white"/>
<path d="M58.2913 50.8307C58.2913 52.9724 56.5422 54.7216 54.4004 54.7216H47.9395V52.1157H51.8303C53.9721 52.1157 55.7212 50.3666 55.7212 48.2249V35.2672C55.7212 33.1254 53.9721 31.3763 51.8303 31.3763H47.9395V28.7705H54.4004C56.5422 28.7705 58.2913 30.5196 58.2913 32.6614V50.8307Z" fill="white"/>
<rect width="48.0604" height="28.5212" fill="black" fill-opacity="0"/>
<path d="M47.9398 14.2427C47.9398 9.24528 43.8705 5.17593 38.873 5.17593C37.3381 5.17593 35.8389 5.56859 34.5181 6.28251C32.8047 3.99796 30.1275 2.60581 27.2004 2.60581C26.2723 2.60581 25.3799 2.7486 24.4875 3.03417C22.667 1.07088 20.1683 0 17.4911 0C13.3503 0 9.67364 2.67721 8.31718 6.49669C7.96022 6.46099 7.60326 6.46099 7.2463 6.49669C3.14125 6.81795 0 10.3519 0 14.4926V24.6303C0 26.7721 1.74911 28.5212 3.89087 28.5212H5.17593C5.63998 28.5212 6.06833 28.4141 6.46099 28.2713L6.63947 28.1999C8.10301 27.5574 9.0668 26.0938 9.0668 24.4518C9.53085 24.5589 9.9949 24.5946 10.4589 24.5946H12.9934C14.4569 24.5946 15.8491 24.0948 16.9556 23.2024C18.6333 24.9159 20.9536 25.8797 23.3809 25.8797C27.95 25.8797 31.7338 22.4885 32.3406 18.0979H47.4044C48.4396 18.1336 47.9398 14.8853 47.9398 14.2427Z" fill="#FF7800"/>
<path d="M45.1918 15.5274H31.1632C30.4493 15.5274 29.8781 16.1343 29.8781 16.8482C29.8781 20.4178 26.9511 23.3092 23.4172 23.3092C21.3111 23.3092 19.3478 22.274 18.1341 20.5606C17.8843 20.2393 17.5273 20.0252 17.0989 20.0252C16.6706 20.0252 16.3136 20.2036 16.0638 20.5249C15.3141 21.4887 14.2076 22.0241 13.0296 22.0241H10.4952C9.81695 22.0241 9.13872 21.8457 8.49619 21.453C8.10354 21.2031 7.60379 21.2031 7.17544 21.4173C6.78278 21.6315 6.53291 22.0955 6.53291 22.5596V24.6299C6.53291 25.3439 5.96177 25.915 5.24785 25.915H3.96279C3.24887 25.915 2.67773 25.3439 2.67773 24.6299V14.8135C2.67773 12.4219 4.14127 10.2444 6.35443 9.38772C7.21114 9.06646 7.96075 8.99507 9.03164 9.24494C9.3886 9.31633 9.74556 9.28063 10.0311 9.06646C10.3167 8.88798 10.5309 8.56671 10.6023 8.24545C11.2091 4.96141 14.1362 2.60547 17.4916 2.60547C19.7048 2.60547 21.7394 3.60496 23.0959 5.35407C23.4528 5.81812 24.0954 5.9966 24.6308 5.74672C25.4518 5.38976 26.3085 5.21128 27.2009 5.21128C29.6283 5.21128 31.8414 6.56773 32.948 8.74519C33.1265 9.10215 33.4477 9.31633 33.8047 9.42342C34.1974 9.49481 34.59 9.42342 34.8756 9.17355C36.1606 8.17406 37.7313 7.71001 39.3376 7.85279C42.5145 8.10266 45.049 10.6728 45.2988 13.8497C45.3702 14.3852 45.3345 14.9563 45.1918 15.5274Z" fill="white"/>
</svg>
