<svg width="74" height="70" viewBox="0 0 74 70" fill="none" xmlns="http://www.w3.org/2000/svg">
<rect width="74" height="70" fill="black" fill-opacity="0"/>
<rect width="74" height="70" fill="black" fill-opacity="0"/>
<rect width="74" height="70" fill="black" fill-opacity="0"/>
<path d="M19.1487 31.3829V70.0005H37.0156H37.1216H55.0546V31.3829C58.6451 31.8812 67.8566 36.2986 67.8566 36.2986L74 21.9601C65.3684 16.6718 49.0213 11.9385 49.0213 11.9385C47.5194 18.8457 38.2555 18.5265 37.0673 18.612C35.8786 18.5265 26.6158 18.8444 25.1126 11.9385C25.1126 11.9385 8.63292 16.6718 0 21.9601L6.31323 36.2986C6.31323 36.2986 15.5581 31.8812 19.1487 31.3829ZM23.638 14.8724C25.1902 17.8951 28.744 20.7436 36.5704 20.9749C36.7113 20.9795 36.8228 20.9806 36.8946 20.9866C36.9509 20.9901 37.0081 20.9929 37.067 20.9929C37.126 20.9929 37.1845 20.9901 37.243 20.9866C37.3153 20.9819 37.4252 20.9795 37.568 20.9749C45.3919 20.7436 48.9475 17.8962 50.4996 14.8746C54.7671 16.2043 64.4799 19.413 71.0429 22.9697L66.7557 33.09C63.685 31.6884 58.408 29.4158 55.6623 29.0274C55.5501 29.0118 55.4367 29.0036 55.3247 29.0036C54.7531 29.0036 54.0587 29.2083 53.6205 29.5863C53.0984 30.0377 52.6611 30.6929 52.6611 31.3831V67.6215H37.1218H37.0158H21.5424V31.3829C21.5424 30.6929 21.104 30.0375 20.5812 29.5861C20.1434 29.2081 19.5175 29.0034 18.9441 29.0034C18.8313 29.0034 18.6852 29.0116 18.5731 29.0272C15.8227 29.4158 10.4954 31.6975 7.41966 33.0979L3.04712 22.9637C9.61812 19.4083 19.359 16.1997 23.638 14.8724Z" fill="#B8C0D1"/>
<path d="M36.1728 13.475C36.0842 13.1626 36.0099 12.778 35.9525 12.4465C31.6596 12.6498 28.5442 13.6623 28.3318 13.7361C27.7084 13.9522 27.377 14.6021 27.5938 15.2231C27.7662 15.7146 28.229 16.0223 28.7246 16.0223C28.8549 16.0223 28.9881 16.2232 29.1173 16.1792C29.1617 16.1629 31.6245 15.2775 35.1338 15.2775C36.4778 15.2775 37.9734 15.2775 39.5502 15.2775C41.3094 15.2775 43.163 15.5331 45.0097 16.1768C45.6327 16.3911 46.3165 15.9554 46.535 15.3357C46.7535 14.716 46.4253 13.9813 45.802 13.7645C43.2636 12.8802 40.7375 12.4866 38.4223 12.4035C38.4198 12.3942 38.4176 12.3843 38.4176 12.3749C37.9466 10.067 39.784 9.85157 41.6177 8.85142C43.3079 7.92947 44.2102 6.05693 43.8735 4.16215C43.0532 -0.438335 36.5547 -0.837956 33.2082 1.08943C31.8734 1.85739 33.0778 3.91476 34.4154 3.14327C35.9583 2.25459 37.8753 2.21207 39.5628 2.66875C41.592 3.21839 42.3072 5.62251 40.4091 6.79692C39.1911 7.54857 37.8072 7.83672 36.7675 8.87873C35.8198 9.828 35.7389 11.1458 35.9523 12.3896C36.0095 12.7212 36.0826 13.0494 36.1726 13.3625C36.1965 13.4455 36.2458 13.499 36.2801 13.5693C36.7256 14.4615 37.9825 14.3163 38.3915 13.5704C38.45 13.4647 38.4874 13.3455 38.5083 13.2195C38.506 13.436 38.4732 13.6453 38.3915 13.794C37.9823 14.5397 36.7265 14.7953 36.2801 13.9033C31.9029 14.0734 28.7244 15.2775 28.7244 15.2775C28.7244 15.2775 31.9029 13.9619 36.2801 13.794C36.246 13.7235 36.197 13.5585 36.1728 13.475Z" fill="#FF871C"/>
</svg>
