<svg width="90" height="80" viewBox="0 0 90 80" fill="none" xmlns="http://www.w3.org/2000/svg"><path d="M27.496 79.633c-2.943 0-5.15-1.104-5.15-2.483 0-.276.092-.552.276-.828l.644.46c-.092.184-.184.276-.184.368 0 .827 1.839 1.747 4.414 1.747.367 0 .735 0 1.103-.092v.828h-1.103zm3.859-.828a13.538 13.538 0 0 1-5.977-1.656l-1.747-1.011.368-.644 1.747 1.012c1.747 1.011 3.678 1.563 5.61 1.563v.736zm-.091-2.575a9.838 9.838 0 0 1-3.954-.827l.367-.736c1.104.552 2.3.736 3.587.828v.735zM7.909 68.598c-2.943 0-5.15-1.103-5.15-2.483 0-.368.092-.643.368-1.011l.552.551c-.092.184-.184.276-.184.46 0 .828 1.839 1.747 4.414 1.747h.46l.091.828c-.275-.092-.46-.092-.551-.092zm2.114-.275l-5.794-3.31.368-.736 5.793 3.31-.367.736zm57.471-8.645c-1.839 0-3.678-.46-5.425-1.38l.368-.735c3.402 1.84 6.804 1.747 10.299 0l.367.736c-1.93.92-3.77 1.379-5.609 1.379z" fill="#fff"/><path d="M31.632 78.805h-.367a13.537 13.537 0 0 1-5.977-1.655L1.655 63.449c-.276-.184-.552-.368-.735-.552-.552-.644-.92-1.471-.92-2.299v-2.483h.828v2.483c0 .644.275 1.288.735 1.747.092.184.276.368.46.46l23.724 13.61c1.747 1.01 3.678 1.563 5.61 1.563a11.786 11.786 0 0 0 8.551-3.31l.552.55c-2.39 2.3-5.517 3.587-8.828 3.587zm2.943-8.551c-.184 0-.46-.092-.644-.184L9.471 55.817a1.011 1.011 0 0 1-.551-.92c-.092-.276 0-.643.276-.92L47.54 14.254c.367-.367 1.011-.46 1.47-.184L73.565 28.6c.368.183.551.551.551.919.092.368-.092.735-.367 1.011L35.403 69.886c-.276.276-.552.368-.828.368zM48.368 14.62c-.092 0-.184 0-.276.092L9.747 54.53c-.092.092-.092.184-.092.368 0 .092.092.276.184.276L34.3 69.426c.184.092.368.092.552-.092l38.345-39.356c.092-.092.092-.184.092-.368 0-.092-.092-.276-.184-.276l-24.46-14.62c-.092 0-.184-.093-.276-.093z" fill="#fff"/><path d="M31.909 80c-2.3 0-4.598-.552-6.621-1.747C18.483 74.39 6.62 67.678 3.587 65.93 2.39 65.195 1.38 64.09.92 62.805l.644-.276a5.787 5.787 0 0 0 2.39 2.758c3.127 1.747 14.897 8.46 21.702 12.322 4.873 2.759 11.126 1.931 15.172-2.023l37.701-37.61.552.553L41.38 76.138C38.805 78.713 35.31 80 31.909 80z" fill="#fff"/><path d="M31.357 76.23c-.092 0-.092 0 0 0-1.38 0-2.76-.276-3.955-.828h-.091a4.298 4.298 0 0 1-.92-.46L1.103 60.323C.46 59.954 0 59.218 0 58.482v-.275c0-.552.276-1.012.644-1.471L49.747 6.62c.92-.92 2.3-1.103 3.495-.46L80.92 21.886c3.034 2.023 3.954 4.138 4.322 6.069 1.011 4.414 3.862 18.299 3.862 18.39 1.011 3.22.092 5.794-2.759 7.449L74.667 60.69c-5.241 3.034-10.115 2.666-16.828-1.196l.368-.643c6.437 3.678 11.035 4.046 16 1.195l11.77-6.805c2.575-1.471 3.403-3.77 2.391-6.62 0-.184-2.942-14.07-3.862-18.483-.368-1.84-1.195-3.77-3.954-5.61L52.874 6.897c-.828-.46-1.84-.276-2.483.368L1.195 57.287c-.275.276-.367.552-.46.92v.184c0 .551.277 1.011.736 1.195l25.288 14.62c.276.185.46.277.735.369h.092c1.104.551 2.3.735 3.587.827h.092c2.39 0 4.597-.92 6.252-2.574l43.219-44.69c.46-.46.644-1.104.644-1.84-.092-.643-.46-1.287-1.012-1.563l-3.77-2.39.46-.644 3.77 2.39a3.007 3.007 0 0 1 1.38 2.208c.091.92-.185 1.839-.828 2.482l-43.22 44.69c-1.839 1.747-4.23 2.759-6.805 2.759z" fill="#fff"/><path d="M75.77 19.678l-.367-.644s3.494-1.839 5.057-3.218c2.115-1.84 3.127-4.598 2.575-7.265-.184-.092-.368 0-.46.092-.368.184-.735.276-1.38 0-.55-.367-.919-.827-1.195-1.195-.275-.368-.551-.644-.92-.828-.367-.184-.459-.092-.643 0s-.46.184-.827.184v.092l-.552-.276c-.644-.276-.92-.735-1.196-1.103a3.279 3.279 0 0 0-1.011-.92c-.368-.184-.46-.092-.644 0-.367.184-.735.276-1.379 0s-1.011-.735-1.287-1.103-.552-.644-.92-.828l.184-.735c.552.276.92.735 1.195 1.103a3.28 3.28 0 0 0 1.012.92c.368.184.46.092.644 0 .367-.184.735-.368 1.379 0 .644.276 1.011.643 1.287 1.103.276.368.46.644.828.828h.092c.368.184.552.092.735 0 .276-.092.644-.276 1.38 0 .552.276.92.735 1.195 1.103a3.28 3.28 0 0 0 1.012.92c.368.184.46.092.643 0 .368-.184.736-.368 1.38 0L83.77 8v.184c.643 3.034-.46 6.16-2.851 8.275-1.563 1.38-4.966 3.127-5.15 3.219zm-15.355-8.736l-.368-.735s1.84-1.012 3.495-2.3C65.657 6.07 66.668 3.219 66.116.46l.828-.183c.644 3.034-.46 6.16-2.85 8.184-1.748 1.47-3.587 2.482-3.679 2.482z" fill="#fff"/><path d="M69.15 2.85c-.184 0-.46-.091-.736-.183-.644-.276-1.012-.736-1.287-1.104-.276-.368-.552-.643-.92-.827L66.575 0c.552.276.92.736 1.195 1.103a3.28 3.28 0 0 0 1.012.92c.368.184.46.092.643 0 .368-.184.736-.368 1.38 0l-.368.736c-.368-.184-.46-.092-.644 0-.184 0-.368.092-.643.092zM44.965 70.07c-.276 0-.46-.092-.736-.276-.276-.184-.46-.552-.46-.828 0-.368.092-.644.368-.92l2.759-2.85c.368-.46 1.103-.46 1.563-.092.276.184.46.552.46.828 0 .367-.092.643-.368.92l-2.759 2.85c-.183.276-.551.367-.827.367zm2.759-4.414c-.092 0-.184 0-.276.092l-2.759 2.85c-.092.092-.092.184-.092.276 0 .092.092.184.184.276.184.092.368.092.46 0l2.758-2.85c.092-.093.092-.185.092-.277 0-.091-.092-.183-.184-.275 0 0-.091-.092-.183-.092zm4.047-2.3c-.276 0-.46-.092-.736-.275-.275-.184-.46-.552-.46-.828 0-.368.093-.644.369-.92l6.988-7.264c.368-.46 1.103-.46 1.563-.092.276.184.46.552.46.828 0 .367-.092.643-.368.92L52.6 62.988c-.276.275-.552.367-.828.367zm6.989-8.827c-.092 0-.184 0-.276.092l-6.989 7.356c-.092.092-.092.184-.092.276 0 .092.092.184.184.276.184.092.368.092.46 0l6.988-7.265c.092-.092.092-.184.092-.275 0-.092-.091-.184-.183-.276 0-.184-.092-.184-.184-.184zm-9.104 10.299a.921.921 0 0 1-.92-.92c0-.46.368-.92.92-.92s.92.368.92.92-.368.92-.92.92zm0-1.012c-.092 0-.092.092-.092.092 0 .092.184.092.184 0 .092 0 0-.092-.092-.092z" fill="#fff"/></svg>