<svg width="84" height="65" viewBox="0 0 84 65" fill="none" xmlns="http://www.w3.org/2000/svg">
<rect width="83.9376" height="65" fill="black" fill-opacity="0"/>
<rect width="83.9376" height="65" fill="black" fill-opacity="0"/>
<rect width="42.7163" height="46.9653" fill="black" fill-opacity="0" transform="translate(0 17.2275)"/>
<rect width="42.7163" height="46.9653" fill="black" fill-opacity="0" transform="translate(0 17.2275)"/>
<rect width="42.7163" height="46.9653" fill="black" fill-opacity="0" transform="translate(0 17.2275)"/>
<path d="M39.3702 34.9797C41.5535 38.397 42.7163 42.3838 42.7163 46.4656C42.7163 52.0662 40.533 56.6938 36.3801 59.8263C32.6068 62.6741 27.4096 64.1929 21.3582 64.1929C15.3067 64.1929 10.1333 62.6741 6.33625 59.8263C2.20701 56.6938 7.07248e-10 52.0662 7.07248e-10 46.4656C7.07248e-10 42.4313 1.1391 38.5156 3.27492 35.0983C5.03103 32.3218 7.38043 29.9961 10.1807 28.2637C8.06864 27.623 7.68894 27.1958 7.49909 26.8398C7.3567 26.5551 7.3567 26.2466 7.49909 25.9618C7.87879 25.2024 8.97043 24.4904 14.4286 24.4904C16.3509 24.4904 18.2494 24.5854 19.2935 24.6566L19.6732 17.9881C19.697 17.5609 20.0767 17.2049 20.5038 17.2287L23.5414 17.371C23.755 17.3948 23.9686 17.4897 24.111 17.6321C24.2534 17.7982 24.3246 18.0118 24.3008 18.2254L23.8737 24.5616C24.989 24.4904 26.9825 24.348 28.9759 24.348C33.5086 24.348 35.4545 24.9176 35.6444 26.3177C35.6919 26.5788 35.6207 26.8398 35.4308 27.0771C35.1935 27.3857 34.7189 27.7654 32.4644 28.24C35.241 29.9249 37.6141 32.2268 39.3702 34.9797ZM41.1026 46.4656C41.1026 38.8479 36.831 32.0133 29.9726 28.6909C29.7116 28.7383 29.4743 28.7621 29.2369 28.8095C29.5929 29.3791 30.0675 30.091 30.4947 30.8504C31.9898 33.4846 32.322 34.861 31.5626 35.6204C31.3965 35.7865 31.1355 35.9527 30.6608 35.9527C30.0675 35.9527 28.8098 35.6679 24.8229 33.1049C23.3279 32.1556 21.9514 31.1827 21.2395 30.6843C20.5276 31.1827 19.08 32.2031 17.5612 33.1998C13.0522 36.1425 12.3403 36.1425 11.9843 36.1425C11.8182 36.1425 11.6758 36.1188 11.5571 36.0476C11.2724 35.9289 11.0825 35.6916 10.9876 35.3831C10.8689 34.9085 10.8689 34.1491 12.7674 31.1352C13.2183 30.4233 13.6455 29.7588 14.0015 29.2367C13.5506 29.1418 12.981 29.0231 12.3877 28.857C5.74297 32.2743 1.61373 38.9903 1.61373 46.4656C1.61373 58.355 11.8182 62.5792 21.3582 62.5792C30.8981 62.5792 41.1026 58.355 41.1026 46.4656ZM33.4374 26.3415C32.7729 26.1516 31.4914 25.9618 28.9522 25.9618C26.057 25.9618 23.0905 26.2228 23.0668 26.2466C22.8295 26.2703 22.5922 26.1754 22.4261 26.0092C22.2599 25.8431 22.165 25.6295 22.1888 25.3922L22.6397 18.961L21.2158 18.8899L20.8361 25.5346C20.8361 25.7482 20.7174 25.9618 20.575 26.0804C20.4089 26.2228 20.1953 26.294 19.9817 26.2703C19.958 26.2703 17.2052 26.0567 14.4286 26.0567C11.8182 26.0567 10.418 26.2228 9.68237 26.3889C10.9401 26.8398 13.3844 27.4568 15.4965 27.8603C15.7576 27.9077 15.9949 28.0976 16.0898 28.3586C16.1847 28.6197 16.161 28.9045 15.9949 29.118C14.7609 30.8504 13.4794 32.915 12.8624 34.1253C14.5473 33.2473 17.9171 31.0403 20.7649 28.9994C20.9073 28.9045 21.0734 28.857 21.2395 28.857C21.4056 28.857 21.5717 28.9045 21.7141 28.9994C24.9179 31.3013 28.8572 33.7931 30.3049 34.2203C30.0675 33.2236 28.7623 30.8267 27.1961 28.5959C27.0299 28.3586 27.0062 28.0739 27.1249 27.8128C27.2435 27.5518 27.4808 27.3857 27.7656 27.3382C29.8302 27.1246 32.2034 26.6974 33.4374 26.3415Z" fill="#B8C0D1"/>
<path d="M29.9722 28.6904C36.8305 32.0128 41.1021 38.8474 41.1021 46.4652C41.1021 58.3545 30.8977 62.5787 21.3577 62.5787C11.8177 62.5787 1.61328 58.3545 1.61328 46.4652C1.61328 38.9898 5.74253 32.2739 12.3873 28.8803C12.9806 29.0227 13.5501 29.1413 14.001 29.26C13.645 29.7821 13.2179 30.4465 12.767 31.1585C10.8685 34.1961 10.8448 34.9555 10.9871 35.4064C11.0583 35.7149 11.2719 35.9522 11.5567 36.0709C11.6991 36.1421 11.8415 36.1658 11.9839 36.1658C12.3398 36.1658 13.0755 36.1658 17.5607 33.2231C19.0795 32.2264 20.5271 31.2059 21.2391 30.7076C21.9273 31.2059 23.3274 32.1552 24.8225 33.1282C28.8093 35.6912 30.0671 35.9759 30.6604 35.9759C31.1113 35.9759 31.396 35.7861 31.5622 35.6437C32.2978 34.908 31.9893 33.5316 30.4943 30.8737C30.0671 30.1143 29.6162 29.3786 29.2365 28.8328C29.4501 28.7616 29.7111 28.7142 29.9722 28.6904Z" fill="white"/>
<rect width="32.3112" height="52.2326" fill="black" fill-opacity="0" transform="translate(27.9766)"/>
<rect width="32.3112" height="52.2326" fill="black" fill-opacity="0" transform="translate(27.9766)"/>
<path d="M60.1358 3.08507C60.3731 3.41731 60.3256 3.89193 60.0409 4.20044C55.5794 8.44834 52.1146 12.6488 49.7652 16.6594C47.843 19.958 46.7751 22.9956 46.7751 25.2264V26.3655C46.7751 27.4571 47.3921 28.4538 48.3888 28.8572C52.3519 30.5659 54.8912 34.4341 54.8912 38.7532C54.8912 41.6959 53.7283 44.4724 51.5925 46.5133C50.0263 48.0084 48.104 48.9814 46.0157 49.3611L47.4395 50.785C47.7718 51.1172 47.7718 51.6393 47.4395 51.9715C47.2734 52.1376 47.0598 52.2088 46.8463 52.2088C46.6327 52.2088 46.4191 52.1376 46.253 51.9715L44.9952 50.7138V51.3782C44.9952 51.8529 44.6155 52.2326 44.1409 52.2326C43.6663 52.2326 43.2866 51.8529 43.2866 51.3782V50.7138L42.0288 51.9715C41.8627 52.1376 41.6491 52.2088 41.4355 52.2088C41.2219 52.2088 41.0084 52.1376 40.8422 51.9715C40.51 51.6393 40.51 51.1172 40.8422 50.785L42.2661 49.3611C40.2015 48.9814 38.2793 48.0084 36.713 46.5133C34.7908 44.6623 33.6279 42.2417 33.4144 39.6313C33.0584 35.0037 35.6688 30.6846 39.9167 28.8572C40.8897 28.4538 41.5067 27.4571 41.5067 26.318V25.2264C41.5067 22.9956 40.4388 19.958 38.5166 16.6594C36.1672 12.6488 32.7024 8.44834 28.2409 4.20044C27.9324 3.91566 27.885 3.44104 28.146 3.08507C28.3833 2.75283 28.8579 2.63417 29.2139 2.82402C29.38 2.91895 33.2008 4.93611 37.3063 8.68565C39.0149 10.2519 40.51 11.8656 41.7678 13.5268C42.2661 5.48193 43.2628 0.878058 43.3103 0.664476C43.4052 0.284776 43.7375 3.53622e-10 44.1409 3.53622e-10C44.5443 3.53622e-10 44.8766 0.284776 44.9715 0.664476C45.019 0.878058 46.0157 5.4582 46.514 13.5031C48.6498 10.7028 51.0704 8.47207 53.0401 6.88207C56.2913 4.2479 58.9492 2.84775 59.0679 2.80029C59.4238 2.63417 59.8747 2.75283 60.1358 3.08507ZM50.406 45.2793C52.2095 43.5469 53.1825 41.2212 53.1825 38.7295C53.1825 35.0986 51.023 31.8237 47.7006 30.3998C46.1106 29.7116 45.0664 28.1216 45.0664 26.3417V26.0807H43.1442V26.3417C43.1442 28.1453 42.1237 29.759 40.5337 30.4235C36.9503 31.966 34.7433 35.5969 35.0518 39.5126C35.4078 43.9978 39.2285 47.6524 43.7375 47.8423C46.253 47.9135 48.6024 47.0117 50.406 45.2793ZM48.2939 15.805C49.5754 13.598 51.1891 11.3673 53.0876 9.08908C50.1924 11.5571 47.0361 14.9507 45.0427 19.08C45.3512 19.7444 45.6122 20.4326 45.8258 21.0971C46.3716 19.4597 47.2022 17.6798 48.2939 15.805ZM43.1204 24.372H44.924C43.7849 18.0832 39.5845 13.0997 36.1672 9.96714C35.8112 9.6349 35.4552 9.3264 35.123 9.04162C37.0452 11.3198 38.659 13.598 39.9405 15.805C41.8152 19.0325 42.9069 21.9752 43.1204 24.372ZM44.924 15.805C44.7342 11.8894 44.4257 8.66192 44.1172 6.24133C43.8087 8.68565 43.5002 11.9131 43.3103 15.8288C43.5951 16.2797 43.8561 16.7306 44.1172 17.2052C44.3545 16.7306 44.6393 16.2559 44.924 15.805Z" fill="#B8C0D1"/>
<path d="M53.1825 38.7536C53.1825 41.2453 52.1858 43.571 50.4059 45.3034C48.6024 47.0358 46.253 47.9376 43.7612 47.8426C39.2522 47.6765 35.4315 44.0219 35.0755 39.513C34.767 35.621 36.974 31.9664 40.5574 30.4239C42.1474 29.7357 43.1679 28.1457 43.1679 26.3421V26.0811H45.0901V26.3658C45.0901 28.1457 46.1106 29.7357 47.7243 30.4239C51.0229 31.8478 53.1825 35.1227 53.1825 38.7536Z" fill="white"/>
<rect width="50.5951" height="38.8481" fill="black" fill-opacity="0" transform="translate(33.3418 26.1523)"/>
<rect width="50.5951" height="38.8481" fill="black" fill-opacity="0" transform="translate(33.3418 26.1523)"/>
<rect width="50.5951" height="38.8481" fill="black" fill-opacity="0" transform="translate(33.3418 26.1523)"/>
<path d="M83.9369 40.0114C83.9369 43.2151 83.8657 51.2363 83.842 54.2502C83.842 54.9859 83.842 55.4368 83.842 55.4842C83.842 56.5047 83.1775 56.8369 82.6317 56.9318C81.0417 57.1929 76.0344 58.0472 69.8405 59.0914C56.2188 61.3933 35.6437 64.8581 35.0504 64.9767C34.9555 65.0005 34.8606 65.0005 34.7657 65.0005C33.9588 65.0005 33.3418 64.3834 33.3418 63.5529V57.8099C33.3418 57.0505 33.9825 56.5759 34.5996 56.5759C34.647 56.5759 34.6945 56.5759 34.7657 56.5759C34.8131 56.5759 34.8606 56.5759 34.9081 56.5759C35.6437 56.5759 36.2607 55.9351 36.2607 55.1282C36.2607 54.3214 35.6437 53.6806 34.9081 53.6806C34.8369 53.6806 34.7894 53.6806 34.7419 53.6806H34.7182C34.647 53.6806 34.5521 53.7044 34.4572 53.7044C33.9113 53.7044 33.3418 53.3247 33.3418 52.4941V48.3886C33.3418 47.0596 33.8639 46.229 34.03 45.9917C34.1249 45.8493 34.386 45.4222 34.8369 44.9001C35.2166 44.4729 36.6404 43.2626 38.7051 41.5777C38.9661 41.3641 39.156 41.198 39.2272 41.1505C39.5831 40.842 39.9628 40.6996 40.3425 40.6996C40.6273 40.6996 40.9833 40.842 40.9833 40.842C41.3867 40.9844 41.8376 41.0556 42.2885 41.0556C42.8106 41.0556 43.3327 40.9607 43.7836 40.7945C44.3768 40.5572 44.7091 40.225 44.7091 39.8928C44.7091 39.5843 44.4006 39.1808 43.8073 38.9435C43.4039 38.7774 43.214 38.3265 43.3564 37.9231C43.4513 37.662 43.6412 37.4247 43.9022 37.1874C45.8956 35.5025 56.0289 26.9117 56.2188 26.7219C56.6459 26.3659 57.2392 26.1523 57.9274 26.1523C61.2498 26.1523 64.5722 26.6507 67.8234 27.6C73.5426 29.3086 78.5262 32.3699 82.6317 36.7365C83.2012 37.3535 83.486 38.018 83.5572 38.1841C83.6284 38.3265 83.9369 39.1571 83.9369 40.0114ZM82.2283 54.2265C82.252 51.2126 82.3232 43.2151 82.3232 40.0114C82.3232 39.7978 82.2994 39.5843 82.252 39.3707L81.0417 39.5605L67.9895 41.7201C67.9895 41.7201 68.298 42.2659 68.298 43.0728C68.298 45.3035 66.4469 47.1071 64.1687 47.1071C61.8905 47.1071 60.0395 45.3035 60.0395 43.0728C60.0395 43.049 60.0395 43.049 60.0395 43.0253L35.5013 47.1545C35.0742 47.2969 34.9318 47.3681 34.9318 47.9377V52.0669C36.5455 52.0906 37.8507 53.4433 37.8507 55.1282C37.8507 56.7894 36.5455 58.1659 34.9318 58.1659V63.3393C36.949 63.007 55.7204 59.827 69.5795 57.5014C75.6072 56.4809 80.5196 55.6503 82.252 55.3656C82.2283 55.152 82.2283 54.7723 82.2283 54.2265ZM81.5163 37.8756C81.4926 37.8519 81.4926 37.8519 81.4689 37.8281C73.1629 29.0476 63.1483 27.7423 57.9274 27.7423C57.6426 27.7423 57.4053 27.8135 57.2629 27.9322C57.0494 28.122 48.2925 35.5262 45.5397 37.8993C45.421 37.9943 45.4922 38.0892 45.5634 38.1366C46.0855 38.6113 46.3703 39.2046 46.3703 39.8453C46.3703 40.8657 45.6109 41.7913 44.3768 42.2896C43.7598 42.5269 43.0242 42.6693 42.2885 42.6693C41.6715 42.6693 41.0307 42.5744 40.4849 42.3845C40.4612 42.3608 40.2951 42.3608 40.2713 42.4083C40.2001 42.4795 39.9866 42.6456 39.7255 42.8592C39.1322 43.3338 37.6609 44.5441 36.7591 45.3272L60.4429 41.4116C61.1074 40.1063 62.5313 39.7741 63.5992 39.6554C63.789 39.6317 64.0026 39.608 64.1925 39.608C65.118 39.608 66.0435 39.869 66.7555 40.3674L80.8044 38.0417L81.5163 37.8756ZM66.6843 43.0965C66.6843 42.4557 66.3283 42.0286 66.0198 41.7913C65.5452 41.3878 64.857 41.1743 64.1687 41.1743C64.0264 41.1743 63.9077 41.1742 63.7653 41.198C62.2465 41.3878 61.8905 41.8625 61.7481 42.3371C61.677 42.5744 61.6532 42.6456 61.6532 43.0965C61.6532 44.4492 62.7923 45.5408 64.1687 45.5408C65.5452 45.5408 66.6843 44.4254 66.6843 43.0965Z" fill="#FF7800"/>
<path d="M82.3233 40.0118C82.3233 43.2156 82.2521 51.213 82.2284 54.2269C82.2284 54.7727 82.2284 55.1524 82.2284 55.3423C80.496 55.627 75.6074 56.4576 69.5559 57.4781C55.6968 59.8275 36.9254 62.9837 34.9082 63.316V58.1663C36.5219 58.1425 37.8272 56.7899 37.8272 55.1287C37.8272 53.4675 36.5219 52.0911 34.9082 52.0673V47.9381C34.9082 47.3685 35.0506 47.2973 35.4778 47.155L60.0159 43.0257C60.0159 43.0494 60.0159 43.0494 60.0159 43.0732C60.0159 45.3039 61.8669 47.1075 64.1451 47.1075C66.4234 47.1075 68.2744 45.3039 68.2744 43.0732C68.2744 42.2663 67.9659 41.7205 67.9659 41.7205L81.0181 39.5609L82.2284 39.3711C82.2996 39.5847 82.3233 39.822 82.3233 40.0118Z" fill="white"/>
<path d="M81.4698 37.8283C81.4935 37.852 81.4935 37.852 81.5173 37.8757L80.7816 37.9944L66.7327 40.3201C65.997 39.8454 65.0952 39.5607 64.1697 39.5607C63.9561 39.5607 63.7663 39.5844 63.5764 39.6081C62.5085 39.7505 61.0846 40.059 60.4202 41.3642L36.7363 45.3036C37.6381 44.5205 39.1095 43.3102 39.7027 42.8356C39.9875 42.5983 40.1774 42.4321 40.2486 42.3847C40.296 42.361 40.4384 42.361 40.4621 42.361C41.008 42.5508 41.6487 42.6457 42.2657 42.6457C43.0014 42.6457 43.7133 42.5033 44.3541 42.266C45.6118 41.7677 46.3475 40.8659 46.3475 39.8217C46.3475 39.181 46.0627 38.5877 45.5406 38.1131C45.4932 38.0656 45.3982 37.9707 45.5169 37.8757C48.2935 35.5263 57.0266 28.0984 57.2402 27.9086C57.3825 27.7899 57.6199 27.7188 57.9046 27.7188C63.1493 27.7425 73.1639 29.0477 81.4698 37.8283Z" fill="white"/>
</svg>
