<svg width="70" height="70" viewBox="0 0 70 70" fill="none" xmlns="http://www.w3.org/2000/svg">
<rect width="70" height="70" fill="black" fill-opacity="0"/>
<rect width="70" height="70" fill="black" fill-opacity="0"/>
<rect width="70" height="70" fill="black" fill-opacity="0"/>
<rect width="70" height="70" fill="black" fill-opacity="0"/>
<rect width="70" height="70" fill="black" fill-opacity="0"/>
<path d="M60.4255 34.5881C59.6665 34.557 59.0308 35.1508 59.0023 35.9082C58.9951 36.1043 58.9853 36.2997 58.9734 36.4945C58.9266 37.2511 59.5021 37.9023 60.2587 37.9492C60.2875 37.9511 60.3162 37.9519 60.3445 37.9519C61.0639 37.9519 61.6682 37.3918 61.7132 36.664C61.7266 36.4472 61.7374 36.2295 61.7456 36.0112C61.774 35.2538 61.183 34.6165 60.4255 34.5881Z" fill="#B8C0D1"/>
<path d="M67.9029 23.0178C68.1141 22.6111 68.1133 22.1152 67.8758 21.7018C67.7064 21.4069 67.4398 21.1948 67.1348 21.0891C65.4046 17.0946 62.9193 13.4218 59.7486 10.251C53.1381 3.64055 44.3488 0 35 0C25.6512 0 16.8619 3.64055 10.2513 10.2513C3.64068 16.8621 0 25.6512 0 35C0 39.9748 1.0351 44.7893 2.99605 49.2032C2.31479 49.9599 1.94182 50.9284 1.94182 51.9545C1.94182 53.0544 2.37016 54.0884 3.14781 54.8661C3.95063 55.6689 5.005 56.07 6.05937 56.07C6.36535 56.07 6.67105 56.0351 6.97102 55.9675C7.96537 57.2923 9.05926 58.5565 10.2513 59.7486C11.947 61.4443 13.7885 62.9409 15.7438 64.2343C15.2662 65.6681 15.5962 67.314 16.7353 68.4534C17.5381 69.2562 18.5925 69.6574 19.6469 69.6574C20.7013 69.6574 21.7558 69.2561 22.5585 68.4534L23.0856 67.9262C26.8554 69.2881 30.8727 70 35 70C44.3488 70 53.1381 66.3595 59.7487 59.7487C66.3593 53.1379 70 44.3488 70 35C70 30.848 69.2803 26.8071 67.9029 23.0178ZM2.74504 35C2.74504 17.2147 17.2145 2.74504 35 2.74504C37.0848 2.74504 39.1225 2.94807 41.0978 3.32842L36.2986 8.12752C35.7617 8.17469 35.2637 8.23525 35 8.23525C20.2419 8.23525 8.23525 20.2419 8.23525 35C8.23525 37.7107 8.64213 40.3278 9.39504 42.7956L5.10029 47.0903C3.58367 43.3543 2.74504 39.2737 2.74504 35ZM30.1634 18.4788L30.201 19.0857C30.3088 20.8235 29.6644 22.5262 28.4333 23.7573L11.6312 40.5593C11.2064 38.7743 10.9803 36.9132 10.9803 35C10.9803 22.2965 20.8938 11.8665 33.3905 11.0355L32.7299 11.6962C30.9426 13.4835 30.0072 15.9558 30.1634 18.4788ZM5.08881 52.9249C4.82959 52.6657 4.68686 52.3212 4.68686 51.9545C4.68686 51.5878 4.82959 51.2431 5.08881 50.9839L30.3743 25.6986C32.1616 23.9112 33.0971 21.4389 32.9407 18.916L32.9031 18.3091C32.7955 16.5713 33.4398 14.8686 34.6711 13.6374L44.1935 4.11523C44.2337 4.07518 44.2698 4.03252 44.304 3.98891L44.5653 4.19303C45.4237 4.46018 46.2667 4.76232 47.0928 5.09783L37.3431 14.8477C36.8071 15.3836 36.8071 16.2527 37.3431 16.7888C37.6111 17.0568 37.9624 17.1907 38.3137 17.1907C38.6649 17.1907 39.0163 17.0566 39.2842 16.7888L49.5072 6.56578C49.588 6.48498 49.6552 6.39584 49.7116 6.30219C50.5698 6.74406 51.4052 7.22381 52.2169 7.73828L51.4485 8.50678L41.2253 18.7298C40.6894 19.2657 40.6894 20.1348 41.2253 20.6709C41.4933 20.9389 41.8447 21.0729 42.1959 21.0729C42.5471 21.0729 42.8985 20.9387 43.1665 20.6709L54.5061 9.33119C58.7072 12.5314 62.1018 16.737 64.3288 21.5867L60.4014 22.6205C53.7079 24.3826 47.583 27.9009 42.6889 32.795L37.0824 38.4017C35.9853 39.4987 35.4215 41.0155 35.5354 42.5627C35.5908 43.3133 35.3172 44.049 34.7851 44.5812L23.3648 56.0014C20.1161 54.1946 17.3284 51.6585 15.2247 48.6128L34.2568 29.5807C35.4879 28.3495 37.1909 27.7067 38.9287 27.8127L39.5355 27.8502C42.0584 28.0075 44.5307 27.071 46.3181 25.2837L57.272 14.3298C57.808 13.7938 57.808 12.9247 57.272 12.3886C56.7361 11.8528 55.867 11.8528 55.3309 12.3886L44.377 23.3425C43.146 24.5738 41.4436 25.2172 39.705 25.1106L39.0983 25.0731C36.5761 24.9156 34.1031 25.8523 32.3157 27.6396L7.02994 52.9249C6.49496 53.4602 5.6242 53.4599 5.08881 52.9249ZM9.33256 54.5046L13.255 50.5822C15.4105 53.5813 18.1696 56.1168 21.3538 58.012L17.3709 61.9948C14.284 59.9715 11.5639 57.4342 9.33256 54.5046ZM20.6176 66.5123C20.0823 67.0477 19.2116 67.0474 18.6765 66.5124C18.1413 65.9775 18.1413 65.1066 18.6765 64.5714L36.7259 46.5221C37.823 45.4249 38.3869 43.9082 38.2729 42.3609C38.2175 41.6105 38.4911 40.8745 39.0234 40.3424L44.6298 34.7359C49.1807 30.1849 54.876 26.9134 61.1 25.2751L62.1249 25.0052L20.6176 66.5123ZM35 67.255C31.6069 67.255 28.3352 66.7271 25.2613 65.7509L29.7633 61.2489C31.4573 61.5865 33.2082 61.7647 35.0001 61.7647C40.1841 61.7647 45.2167 60.2738 49.554 57.4535C53.7768 54.7075 57.1335 50.8506 59.2609 46.2999C59.5819 45.6132 59.2856 44.7963 58.5989 44.4753C57.9119 44.154 57.0951 44.4506 56.7742 45.1373C52.8313 53.5705 44.2844 59.0196 35 59.0196C34.0396 59.0196 33.0925 58.9616 32.1614 58.8507L65.7504 25.2619C66.7263 28.3359 67.255 31.607 67.255 34.9999C67.255 52.7853 52.7855 67.255 35 67.255Z" fill="#B8C0D1"/>
<rect width="70" height="70" fill="black" fill-opacity="0"/>
<mask id="mask0" mask-type="alpha" maskUnits="userSpaceOnUse" x="0" y="0" width="70" height="70">
<rect width="70" height="70" fill="black" fill-opacity="0"/>
<rect width="70" height="70" fill="black" fill-opacity="0"/>
<rect width="70" height="70" fill="black" fill-opacity="0"/>
<path d="M60.4255 34.5881C59.6665 34.557 59.0308 35.1508 59.0023 35.9082C58.9951 36.1043 58.9853 36.2997 58.9734 36.4945C58.9266 37.2511 59.5021 37.9023 60.2587 37.9492C60.2875 37.9511 60.3162 37.9519 60.3445 37.9519C61.0639 37.9519 61.6682 37.3918 61.7132 36.664C61.7266 36.4472 61.7374 36.2295 61.7456 36.0112C61.774 35.2538 61.183 34.6165 60.4255 34.5881Z" fill="#B8C0D1"/>
<path d="M67.9029 23.0178C68.1141 22.6111 68.1133 22.1152 67.8758 21.7018C67.7064 21.4069 67.4398 21.1948 67.1348 21.0891C65.4046 17.0946 62.9193 13.4218 59.7486 10.251C53.1381 3.64055 44.3488 0 35 0C25.6512 0 16.8619 3.64055 10.2513 10.2513C3.64068 16.8621 0 25.6512 0 35C0 39.9748 1.0351 44.7893 2.99605 49.2032C2.31479 49.9599 1.94182 50.9284 1.94182 51.9545C1.94182 53.0544 2.37016 54.0884 3.14781 54.8661C3.95063 55.6689 5.005 56.07 6.05937 56.07C6.36535 56.07 6.67105 56.0351 6.97102 55.9675C7.96537 57.2923 9.05926 58.5565 10.2513 59.7486C11.947 61.4443 13.7885 62.9409 15.7438 64.2343C15.2662 65.6681 15.5962 67.314 16.7353 68.4534C17.5381 69.2562 18.5925 69.6574 19.6469 69.6574C20.7013 69.6574 21.7558 69.2561 22.5585 68.4534L23.0856 67.9262C26.8554 69.2881 30.8727 70 35 70C44.3488 70 53.1381 66.3595 59.7487 59.7487C66.3593 53.1379 70 44.3488 70 35C70 30.848 69.2803 26.8071 67.9029 23.0178ZM2.74504 35C2.74504 17.2147 17.2145 2.74504 35 2.74504C37.0848 2.74504 39.1225 2.94807 41.0978 3.32842L36.2986 8.12752C35.7617 8.17469 35.2637 8.23525 35 8.23525C20.2419 8.23525 8.23525 20.2419 8.23525 35C8.23525 37.7107 8.64213 40.3278 9.39504 42.7956L5.10029 47.0903C3.58367 43.3543 2.74504 39.2737 2.74504 35ZM30.1634 18.4788L30.201 19.0857C30.3088 20.8235 29.6644 22.5262 28.4333 23.7573L11.6312 40.5593C11.2064 38.7743 10.9803 36.9132 10.9803 35C10.9803 22.2965 20.8938 11.8665 33.3905 11.0355L32.7299 11.6962C30.9426 13.4835 30.0072 15.9558 30.1634 18.4788ZM5.08881 52.9249C4.82959 52.6657 4.68686 52.3212 4.68686 51.9545C4.68686 51.5878 4.82959 51.2431 5.08881 50.9839L30.3743 25.6986C32.1616 23.9112 33.0971 21.4389 32.9407 18.916L32.9031 18.3091C32.7955 16.5713 33.4398 14.8686 34.6711 13.6374L44.1935 4.11523C44.2337 4.07518 44.2698 4.03252 44.304 3.98891L44.5653 4.19303C45.4237 4.46018 46.2667 4.76232 47.0928 5.09783L37.3431 14.8477C36.8071 15.3836 36.8071 16.2527 37.3431 16.7888C37.6111 17.0568 37.9624 17.1907 38.3137 17.1907C38.6649 17.1907 39.0163 17.0566 39.2842 16.7888L49.5072 6.56578C49.588 6.48498 49.6552 6.39584 49.7116 6.30219C50.5698 6.74406 51.4052 7.22381 52.2169 7.73828L51.4485 8.50678L41.2253 18.7298C40.6894 19.2657 40.6894 20.1348 41.2253 20.6709C41.4933 20.9389 41.8447 21.0729 42.1959 21.0729C42.5471 21.0729 42.8985 20.9387 43.1665 20.6709L54.5061 9.33119C58.7072 12.5314 62.1018 16.737 64.3288 21.5867L60.4014 22.6205C53.7079 24.3826 47.583 27.9009 42.6889 32.795L37.0824 38.4017C35.9853 39.4987 35.4215 41.0155 35.5354 42.5627C35.5908 43.3133 35.3172 44.049 34.7851 44.5812L23.3648 56.0014C20.1161 54.1946 17.3284 51.6585 15.2247 48.6128L34.2568 29.5807C35.4879 28.3495 37.1909 27.7067 38.9287 27.8127L39.5355 27.8502C42.0584 28.0075 44.5307 27.071 46.3181 25.2837L57.272 14.3298C57.808 13.7938 57.808 12.9247 57.272 12.3886C56.7361 11.8528 55.867 11.8528 55.3309 12.3886L44.377 23.3425C43.146 24.5738 41.4436 25.2172 39.705 25.1106L39.0983 25.0731C36.5761 24.9156 34.1031 25.8523 32.3157 27.6396L7.02994 52.9249C6.49496 53.4602 5.6242 53.4599 5.08881 52.9249ZM9.33256 54.5046L13.255 50.5822C15.4105 53.5813 18.1696 56.1168 21.3538 58.012L17.3709 61.9948C14.284 59.9715 11.5639 57.4342 9.33256 54.5046ZM20.6176 66.5123C20.0823 67.0477 19.2116 67.0474 18.6765 66.5124C18.1413 65.9775 18.1413 65.1066 18.6765 64.5714L36.7259 46.5221C37.823 45.4249 38.3869 43.9082 38.2729 42.3609C38.2175 41.6105 38.4911 40.8745 39.0234 40.3424L44.6298 34.7359C49.1807 30.1849 54.876 26.9134 61.1 25.2751L62.1249 25.0052L20.6176 66.5123ZM35 67.255C31.6069 67.255 28.3352 66.7271 25.2613 65.7509L29.7633 61.2489C31.4573 61.5865 33.2082 61.7647 35.0001 61.7647C40.1841 61.7647 45.2167 60.2738 49.554 57.4535C53.7768 54.7075 57.1335 50.8506 59.2609 46.2999C59.5819 45.6132 59.2856 44.7963 58.5989 44.4753C57.9119 44.154 57.0951 44.4506 56.7742 45.1373C52.8313 53.5705 44.2844 59.0196 35 59.0196C34.0396 59.0196 33.0925 58.9616 32.1614 58.8507L65.7504 25.2619C66.7263 28.3359 67.255 31.607 67.255 34.9999C67.255 52.7853 52.7855 67.255 35 67.255Z" fill="#B8C0D1"/>
</mask>
<g mask="url(#mask0)">
<path d="M39 5.5L44 0.5L46.5 1.5L44.5 4L46.5 5.5C47.5 4.5 49.71 2.85502 51 3.5C52 4 49.8333 6.33333 49 7L52 8C52.5 6.83333 54 7 54.5 7.5C55.1681 8.16813 54.1667 10 53.5 10.5L57.5 12.5L59 15.5L55 22L42.5 29L33.5 30.5L9.5 54.5L2.5 60L-1.5 54L11.5 40.5L17.5 31.5L29 15.5L39 5.5Z" fill="#FF7800"/>
</g>
</svg>
