<svg width="78" height="73" viewBox="0 0 78 73" fill="none" xmlns="http://www.w3.org/2000/svg">
<g filter="url(#filter0_d)">
<rect width="70" height="65" fill="black" fill-opacity="0" transform="translate(4)"/>
<rect width="70" height="65" fill="black" fill-opacity="0" transform="translate(4)"/>
<rect width="70" height="65" fill="black" fill-opacity="0" transform="translate(4)"/>
<path d="M70.7827 23.1871H55.084L44.0483 1.75073C43.6527 0.982179 42.9837 0.414857 42.1645 0.153165C41.3451 -0.108528 40.474 -0.0330504 39.7111 0.365549C39.4458 0.504108 39.2085 0.675448 39 0.871441C38.7914 0.675585 38.554 0.504108 38.2888 0.365549C37.526 -0.0330504 36.6546 -0.10839 35.8354 0.153165C35.0162 0.414719 34.3472 0.982179 33.9515 1.75073L22.3192 24.3461C21.9236 25.1146 21.8486 25.9924 22.1084 26.8177C22.197 27.0994 22.3236 27.3619 22.4789 27.6033H7.21727C6.574 27.6033 6.05078 27.0762 6.05078 26.4282C6.05078 25.7803 6.57414 25.253 7.21727 25.253H18.9074C19.4737 25.253 19.9328 24.7907 19.9328 24.2201C19.9328 23.6496 19.4737 23.1871 18.9074 23.1871H7.21727C5.44334 23.1871 4 24.6411 4 26.4282C4 27.9103 4.99285 29.1623 6.3435 29.5469L12.2824 61.4554C12.6646 63.5093 14.4475 65 16.5218 65H61.4783C63.5526 65 65.3354 63.5093 65.7177 61.4554L71.6566 29.5467C73.0071 29.1623 74 27.9103 74 26.4282C74 24.641 72.5567 23.1871 70.7827 23.1871ZM40.6553 2.19974C40.9318 2.05526 41.2478 2.02785 41.5447 2.12274C41.8417 2.2175 42.0844 2.42328 42.2278 2.70191L53.8601 25.2974C54.0035 25.576 54.0307 25.8943 53.9365 26.1935C53.8425 26.4928 53.6382 26.7371 53.3615 26.8816C53.085 27.0262 52.7691 27.0535 52.472 26.9587C52.1749 26.864 51.9324 26.6582 51.7889 26.3796L40.1568 3.78394C39.8606 3.20877 40.0843 2.49807 40.6553 2.19974ZM54.3096 29.6695L53.3393 39.7485H40.0254V29.6695H54.3096ZM39 6.0243L49.9687 27.3305C50.0171 27.4247 50.0698 27.5156 50.1263 27.6033H27.8737C27.9302 27.5156 27.9829 27.4247 28.0313 27.3306L29.1009 25.2532H44.708C45.2743 25.2532 45.7334 24.7908 45.7334 24.2202C45.7334 23.6497 45.2743 23.1872 44.708 23.1872H30.1644L39 6.0243ZM24.1398 25.2973L35.7722 2.70177C35.9156 2.42314 36.1582 2.21737 36.4553 2.12261C36.5715 2.08542 36.6905 2.0671 36.8091 2.0671C36.9935 2.0671 37.1764 2.11173 37.3447 2.1996C37.9157 2.49807 38.1394 3.20863 37.8432 3.7838L26.2108 26.3793C26.0674 26.6579 25.8248 26.8637 25.5277 26.9585C25.2309 27.0532 24.915 27.0259 24.6382 26.8813C24.3617 26.7368 24.1574 26.4925 24.0633 26.1932C23.9691 25.8942 23.9963 25.576 24.1398 25.2973ZM8.45279 29.6695H21.63L22.6003 39.7485H10.3287L8.45279 29.6695ZM10.7133 41.8143H22.7992L23.7695 51.8932H12.5891L10.7133 41.8143ZM16.5217 62.9341C15.4337 62.9341 14.4985 62.1522 14.2981 61.0749L12.9737 53.9592H23.9683L24.8324 62.9341H16.5217ZM37.9746 62.9341H26.8926L26.0287 53.9592H37.9746V62.9341ZM37.9746 51.8932H25.8297L24.8595 41.8143H37.9746V51.8932ZM37.9746 39.7485H24.6607L23.6904 29.6695H37.9746V39.7485ZM51.1074 62.9341H40.0254V53.9592H51.9713L51.1074 62.9341ZM52.1703 51.8933H40.0254V41.8145H53.1405L52.1703 51.8933ZM63.7019 61.0749C63.5015 62.1522 62.5662 62.9341 61.4782 62.9341H53.1676L54.0317 53.9592H65.0263L63.7019 61.0749ZM65.4109 51.8933H54.2306L55.2009 41.8145H67.2868L65.4109 51.8933ZM67.6713 39.7483H55.3998L56.3701 29.6693H69.5472L67.6713 39.7483ZM70.7827 27.6035H70.7661H70.7641H55.5211C55.6764 27.362 55.8029 27.0995 55.8916 26.8178C56.0533 26.3037 56.0852 25.769 55.9906 25.2532H70.7827C71.426 25.2532 71.9492 25.7804 71.9492 26.4283C71.9492 27.0762 71.4259 27.6035 70.7827 27.6035Z" fill="#B8C0D1"/>
<rect width="70" height="65" fill="black" fill-opacity="0" transform="translate(4)"/>
<mask id="mask0" mask-type="alpha" maskUnits="userSpaceOnUse" x="4" y="0" width="70" height="65">
<path d="M70.7827 23.1871H55.084L44.0483 1.75073C43.6527 0.982179 42.9837 0.414857 42.1645 0.153165C41.3451 -0.108528 40.474 -0.0330504 39.7111 0.365549C39.4458 0.504108 39.2085 0.675448 39 0.871441C38.7914 0.675585 38.554 0.504108 38.2888 0.365549C37.526 -0.0330504 36.6546 -0.10839 35.8354 0.153165C35.0162 0.414719 34.3472 0.982179 33.9515 1.75073L22.3192 24.3461C21.9236 25.1146 21.8486 25.9924 22.1084 26.8177C22.197 27.0994 22.3236 27.3619 22.4789 27.6033H7.21727C6.574 27.6033 6.05078 27.0762 6.05078 26.4282C6.05078 25.7803 6.57414 25.253 7.21727 25.253H18.9074C19.4737 25.253 19.9328 24.7907 19.9328 24.2201C19.9328 23.6496 19.4737 23.1871 18.9074 23.1871H7.21727C5.44334 23.1871 4 24.6411 4 26.4282C4 27.9103 4.99285 29.1623 6.3435 29.5469L12.2824 61.4554C12.6646 63.5093 14.4475 65 16.5218 65H61.4783C63.5526 65 65.3354 63.5093 65.7177 61.4554L71.6566 29.5467C73.0071 29.1623 74 27.9103 74 26.4282C74 24.641 72.5567 23.1871 70.7827 23.1871ZM40.6553 2.19974C40.9318 2.05526 41.2478 2.02785 41.5447 2.12274C41.8417 2.2175 42.0844 2.42328 42.2278 2.70191L53.8601 25.2974C54.0035 25.576 54.0307 25.8943 53.9365 26.1935C53.8425 26.4928 53.6382 26.7371 53.3615 26.8816C53.085 27.0262 52.7691 27.0535 52.472 26.9587C52.1749 26.864 51.9324 26.6582 51.7889 26.3796L40.1568 3.78394C39.8606 3.20877 40.0843 2.49807 40.6553 2.19974ZM54.3096 29.6695L53.3393 39.7485H40.0254V29.6695H54.3096ZM39 6.0243L49.9687 27.3305C50.0171 27.4247 50.0698 27.5156 50.1263 27.6033H27.8737C27.9302 27.5156 27.9829 27.4247 28.0313 27.3306L29.1009 25.2532H44.708C45.2743 25.2532 45.7334 24.7908 45.7334 24.2202C45.7334 23.6497 45.2743 23.1872 44.708 23.1872H30.1644L39 6.0243ZM24.1398 25.2973L35.7722 2.70177C35.9156 2.42314 36.1582 2.21737 36.4553 2.12261C36.5715 2.08542 36.6905 2.0671 36.8091 2.0671C36.9935 2.0671 37.1764 2.11173 37.3447 2.1996C37.9157 2.49807 38.1394 3.20863 37.8432 3.7838L26.2108 26.3793C26.0674 26.6579 25.8248 26.8637 25.5277 26.9585C25.2309 27.0532 24.915 27.0259 24.6382 26.8813C24.3617 26.7368 24.1574 26.4925 24.0633 26.1932C23.9691 25.8942 23.9963 25.576 24.1398 25.2973ZM8.45279 29.6695H21.63L22.6003 39.7485H10.3287L8.45279 29.6695ZM10.7133 41.8143H22.7992L23.7695 51.8932H12.5891L10.7133 41.8143ZM16.5217 62.9341C15.4337 62.9341 14.4985 62.1522 14.2981 61.0749L12.9737 53.9592H23.9683L24.8324 62.9341H16.5217ZM37.9746 62.9341H26.8926L26.0287 53.9592H37.9746V62.9341ZM37.9746 51.8932H25.8297L24.8595 41.8143H37.9746V51.8932ZM37.9746 39.7485H24.6607L23.6904 29.6695H37.9746V39.7485ZM51.1074 62.9341H40.0254V53.9592H51.9713L51.1074 62.9341ZM52.1703 51.8933H40.0254V41.8145H53.1405L52.1703 51.8933ZM63.7019 61.0749C63.5015 62.1522 62.5662 62.9341 61.4782 62.9341H53.1676L54.0317 53.9592H65.0263L63.7019 61.0749ZM65.4109 51.8933H54.2306L55.2009 41.8145H67.2868L65.4109 51.8933ZM67.6713 39.7483H55.3998L56.3701 29.6693H69.5472L67.6713 39.7483ZM70.7827 27.6035H70.7661H70.7641H55.5211C55.6764 27.362 55.8029 27.0995 55.8916 26.8178C56.0533 26.3037 56.0852 25.769 55.9906 25.2532H70.7827C71.426 25.2532 71.9492 25.7804 71.9492 26.4283C71.9492 27.0762 71.4259 27.6035 70.7827 27.6035Z" fill="#B8C0D1"/>
</mask>
<g mask="url(#mask0)">
<path d="M22 23L35.5 -1.5L48.5 -1L53.5 20L56 25C56.3333 25.8333 56.5 27.7 54.5 28.5C52.5 29.3 51 28.5 50.5 28L46.5 22.5H30.5L28 27.5C27 28.5 25.5 29 24 28.5C22.8616 28.1205 22.1667 27.5 22 27H21L22 23Z" fill="#FF871C"/>
</g>
</g>
<defs>
<filter id="filter0_d" x="0" y="0" width="78" height="73" filterUnits="userSpaceOnUse" color-interpolation-filters="sRGB">
<feFlood flood-opacity="0" result="BackgroundImageFix"/>
<feColorMatrix in="SourceAlpha" type="matrix" values="0 0 0 0 0 0 0 0 0 0 0 0 0 0 0 0 0 0 127 0"/>
<feOffset dy="4"/>
<feGaussianBlur stdDeviation="2"/>
<feColorMatrix type="matrix" values="0 0 0 0 0 0 0 0 0 0 0 0 0 0 0 0 0 0 0.25 0"/>
<feBlend mode="normal" in2="BackgroundImageFix" result="effect1_dropShadow"/>
<feBlend mode="normal" in="SourceGraphic" in2="effect1_dropShadow" result="shape"/>
</filter>
</defs>
</svg>
