<svg width="76" height="53" viewBox="0 0 76 53" fill="none" xmlns="http://www.w3.org/2000/svg">
<rect width="76" height="53" fill="black" fill-opacity="0"/>
<rect width="76" height="53" fill="black" fill-opacity="0"/>
<path d="M74.375 5.03942e-09H1.54763C1.14056 -3.26795e-05 0.749874 0.158924 0.460197 0.442434C0.170519 0.725945 0.00518086 1.11118 -3.03992e-10 1.51468V51.4853C0.00518086 51.8888 0.170519 52.2741 0.460197 52.5576C0.749874 52.8411 1.14056 53 1.54763 53H74.4524C74.8594 53 75.2501 52.8411 75.5398 52.5576C75.8295 52.2741 75.9948 51.8888 76 51.4853V1.51468C75.9663 1.1076 75.7815 0.727369 75.4813 0.447572C75.1811 0.167776 74.7869 0.00829916 74.375 5.03942e-09ZM71.0574 2.27203C71.3588 2.27588 71.6523 2.36801 71.901 2.53683C72.1497 2.70565 72.3425 2.94362 72.4551 3.22079C72.5676 3.49796 72.595 3.80195 72.5338 4.09451C72.4725 4.38707 72.3253 4.65513 72.1107 4.86496C71.8961 5.07478 71.6237 5.217 71.3278 5.27373C71.0319 5.33045 70.7256 5.29914 70.4476 5.18373C70.1696 5.06832 69.9322 4.87397 69.7653 4.62514C69.5984 4.37631 69.5095 4.08411 69.5098 3.78532C69.498 3.5815 69.5303 3.37754 69.6044 3.18706C69.6785 2.99659 69.7927 2.82397 69.9395 2.68074C70.0862 2.53751 70.2621 2.42697 70.4554 2.35649C70.6486 2.286 70.8548 2.25721 71.0602 2.27203H71.0574ZM4.24755 2.49797H66.1979C66.5423 2.49797 66.8726 2.6336 67.1161 2.87503C67.3596 3.11645 67.4965 3.44389 67.4965 3.78532C67.4965 4.12674 67.3596 4.45418 67.1161 4.6956C66.8726 4.93703 66.5423 5.07266 66.1979 5.07266H4.24755C3.90314 5.07266 3.57283 4.93703 3.3293 4.6956C3.08576 4.45418 2.94894 4.12674 2.94894 3.78532C2.94894 3.44389 3.08576 3.11645 3.3293 2.87503C3.57283 2.6336 3.90314 2.49797 4.24755 2.49797ZM72.8316 49.972H3.08964V7.79797H72.909V49.972H72.8316Z" fill="#B8C0D1"/>
<path d="M49.0535 30.746C49.3809 30.7517 49.7013 30.6512 49.9659 30.4599C50.2305 30.2685 50.4249 29.9968 50.5195 29.686L54.9162 14.846C54.9947 14.6177 55.0147 14.3737 54.9744 14.1358C54.9341 13.8979 54.8348 13.6737 54.6854 13.4834C54.5372 13.2985 54.3497 13.1483 54.1361 13.0437C53.9226 12.939 53.6883 12.8825 53.4501 12.878H25.5224L24.9836 11.136C24.9063 10.8095 24.7188 10.5189 24.4522 10.3124C24.1856 10.106 23.8558 9.99597 23.5175 10.0007H16.5743C16.3698 9.99454 16.1662 10.0292 15.9755 10.1025C15.7848 10.1758 15.6109 10.2863 15.464 10.4275C15.3172 10.5687 15.2005 10.7377 15.1208 10.9244C15.0411 11.1112 15 11.3119 15 11.5147C15 11.7175 15.0411 11.9182 15.1208 12.1049C15.2005 12.2917 15.3172 12.4607 15.464 12.6019C15.6109 12.7431 15.7848 12.8536 15.9755 12.9269C16.1662 13.0002 16.3698 13.0348 16.5743 13.0287H22.3596L27.1432 29.6107L28.84 36.6513V39.5287C28.0673 39.8217 27.4027 40.3406 26.9343 41.0166C26.4659 41.6926 26.2159 42.4939 26.2175 43.314C26.2175 44.4093 26.6564 45.4597 27.4376 46.2342C28.2189 47.0087 29.2785 47.4438 30.3834 47.4438C31.4883 47.4438 32.5479 47.0087 33.3292 46.2342C34.1104 45.4597 34.5493 44.4093 34.5493 43.314C34.5509 42.4939 34.3009 41.6926 33.8325 41.0166C33.3641 40.3406 32.6995 39.8217 31.9268 39.5287V38.014H47.0472V39.5287C46.2745 39.8217 45.6098 40.3406 45.1415 41.0166C44.6731 41.6926 44.4231 42.4939 44.4246 43.314C44.4246 44.4093 44.8635 45.4597 45.6448 46.2342C46.4261 47.0087 47.4857 47.4438 48.5906 47.4438C49.6955 47.4438 50.7551 47.0087 51.5363 46.2342C52.3176 45.4597 52.7565 44.4093 52.7565 43.314C52.758 42.4937 52.5077 41.6924 52.0391 41.0163C51.5705 40.3403 50.9056 39.8214 50.1326 39.5287V36.5007C50.1296 36.0965 49.965 35.71 49.6748 35.426C49.3847 35.142 48.9927 34.9838 48.585 34.986H31.6173L30.6141 30.746H49.0535ZM48.5906 44.678C48.3989 44.6791 48.209 44.6428 48.0315 44.571C47.854 44.4992 47.6926 44.3935 47.5564 44.2598C47.4203 44.1261 47.312 43.9671 47.2379 43.7919C47.1638 43.6166 47.1253 43.4287 47.1246 43.2387C47.1184 43.0469 47.1522 42.8559 47.2239 42.6776C47.2956 42.4994 47.4036 42.3377 47.5412 42.2027C47.6788 42.0678 47.843 41.9624 48.0236 41.8932C48.2042 41.824 48.3972 41.7925 48.5906 41.8007C48.7821 41.7996 48.972 41.8359 49.1493 41.9076C49.3267 41.9793 49.4881 42.0849 49.6242 42.2185C49.7604 42.352 49.8686 42.5109 49.9428 42.6859C50.017 42.861 50.0557 43.0488 50.0566 43.2387C50.063 43.4306 50.0293 43.6217 49.9577 43.8002C49.8861 43.9786 49.7781 44.1404 49.6405 44.2755C49.5029 44.4107 49.3386 44.5162 49.1579 44.5854C48.9772 44.6547 48.7841 44.6862 48.5906 44.678ZM41.8007 23.0234L41.1845 27.718H36.709L36.0927 23.0234H41.8007ZM35.6299 19.994L35.0896 15.906H42.8812L42.341 19.994H35.6299ZM33.5462 27.718H29.7657L28.3771 23.0234H32.8526L33.5462 27.718ZM47.897 27.718H44.2713L44.8889 23.0234H49.2856L47.897 27.718ZM50.2114 19.994H45.3518L45.8921 15.906H51.3693L50.2114 19.994ZM31.9212 15.8307L32.4614 19.9187H27.5231L26.3666 15.8307H31.9212ZM30.3735 44.678C30.1819 44.679 29.992 44.6425 29.8147 44.5706C29.6373 44.4988 29.4759 44.393 29.3398 44.2594C29.2037 44.1257 29.0954 43.9668 29.0213 43.7916C28.9471 43.6165 28.9084 43.4286 28.9075 43.2387C28.9099 43.0527 28.9502 42.8691 29.0259 42.6988C29.1015 42.5286 29.2111 42.3753 29.348 42.2481C29.4849 42.1208 29.6463 42.0223 29.8225 41.9584C29.9987 41.8944 30.1861 41.8664 30.3735 41.876C30.5651 41.8749 30.7549 41.9112 30.9323 41.9829C31.1097 42.0546 31.271 42.1602 31.4072 42.2938C31.5433 42.4273 31.6516 42.5862 31.7258 42.7612C31.8 42.9363 31.8387 43.1241 31.8396 43.314C31.8373 43.4992 31.7975 43.6822 31.7225 43.8519C31.6475 44.0216 31.5388 44.1746 31.403 44.3018C31.2672 44.4291 31.1069 44.528 30.9317 44.5926C30.7566 44.6572 30.5701 44.6863 30.3834 44.678H30.3735Z" fill="#FD7822"/>
</svg>
