<svg width="79" height="27" viewBox="0 0 79 27" fill="none" xmlns="http://www.w3.org/2000/svg"><path fill-rule="evenodd" clip-rule="evenodd" d="M16.56 0H6.162L4.086 7.852h6.934l1.71 5.843L16.84 27h8.283L16.56 0zM5.808 8.944l4.426.02 1.624 5.745L8.198 27H0L5.808 8.944zm70.429 10.198L70.115 0H59.717l-2.07 7.852h7.105l1.296 4.458h.033l1.958 6.832h-3.837l1.29-4.797-1.532-5.382-4.603-.02-3.438 10.199h-2.076L51.722 27h25.157L79 19.142h-2.763zM43.72 0H30.48l-2.154 7.858h2.154v.013l7.668-.02v.007h.013l2.24 8.58h-4.519l1.919-7.475-7.622-.026L25.124 27h8.558l.877-3.575h7.354L42.882 27h8.84L43.72 0z" fill="#FF7800"/></svg>