<svg width="57" height="70" viewBox="0 0 57 70" fill="none" xmlns="http://www.w3.org/2000/svg">
<rect width="57" height="70" fill="black" fill-opacity="0"/>
<path d="M47.6939 36.1667C42.9571 36.1667 39.0438 39.7367 38.468 44.3333H25.5918V37.1875C26.8016 36.8853 27.8474 36.1165 28.507 35.0023L43.5364 9.5095C44.4158 8.022 44.4309 6.23583 43.5771 4.73317C42.7232 3.2305 41.1842 2.33333 39.4591 2.33333H36.8162C36.1601 0.959 34.7712 0 33.1531 0C31.2965 0 26.7551 1.4315 26.7551 4.08333C26.7551 6.73517 31.2965 8.16667 33.1531 8.16667C35.1981 8.16667 36.8802 6.64067 37.1652 4.66667H39.458C40.3362 4.66667 41.1203 5.124 41.5542 5.88933C41.9892 6.6535 41.9811 7.5635 41.5332 8.32183L26.5038 33.8147C26.0653 34.5567 25.2894 35 24.4286 35C23.5678 35 22.7919 34.5567 22.3452 33.803L6.89584 8.32067C6.44798 7.5635 6.43984 6.6535 6.8749 5.88933C7.30996 5.124 8.094 4.66667 8.9711 4.66667H11.6908C11.977 6.64067 13.6591 8.16667 15.7041 8.16667C17.5607 8.16667 22.102 6.73517 22.102 4.08333C22.102 1.4315 17.5607 0 15.7041 0C14.086 0 12.697 0.959 12.041 2.33333H8.9711C7.24598 2.33333 5.70698 3.23167 4.85314 4.73433C3.99931 6.237 4.01443 8.022 4.90084 9.52117L20.3513 35.0035C21.0097 36.1177 22.0555 36.8853 23.2653 37.1875V44.3333H12.7959C5.74071 44.3333 0 50.0908 0 57.1667C0 64.2425 5.74071 70 12.7959 70C19.8511 70 25.5918 64.2425 25.5918 57.1667V46.6667H38.468C39.0438 51.2633 42.9571 54.8333 47.6939 54.8333C52.825 54.8333 57 50.6462 57 45.5C57 40.3538 52.825 36.1667 47.6939 36.1667ZM33.1531 5.83333C31.7176 5.83333 29.2468 4.6795 29.084 4.08333C29.2468 3.48717 31.7176 2.33333 33.1531 2.33333C34.1151 2.33333 34.898 3.1185 34.898 4.08333C34.898 5.04817 34.1151 5.83333 33.1531 5.83333ZM15.7041 2.33333C17.1396 2.33333 19.6103 3.48717 19.7732 4.08333C19.6103 4.6795 17.1396 5.83333 15.7041 5.83333C14.7421 5.83333 13.9592 5.04817 13.9592 4.08333C13.9592 3.1185 14.7421 2.33333 15.7041 2.33333ZM23.2653 57.1667C23.2653 62.9568 18.568 67.6667 12.7959 67.6667C7.0238 67.6667 2.32653 62.9568 2.32653 57.1667C2.32653 51.3765 7.0238 46.6667 12.7959 46.6667H23.2653V57.1667ZM47.6939 52.5C43.8446 52.5 40.7143 49.3605 40.7143 45.5C40.7143 41.6395 43.8446 38.5 47.6939 38.5C51.5431 38.5 54.6735 41.6395 54.6735 45.5C54.6735 49.3605 51.5431 52.5 47.6939 52.5Z" fill="#B8C0D1"/>
<path d="M47.6941 40.833C45.1279 40.833 43.041 42.926 43.041 45.4997C43.041 48.0733 45.1279 50.1663 47.6941 50.1663C50.2602 50.1663 52.3471 48.0733 52.3471 45.4997C52.3471 42.926 50.2602 40.833 47.6941 40.833ZM47.6941 47.833C46.411 47.833 45.3675 46.7865 45.3675 45.4997C45.3675 44.2128 46.411 43.1663 47.6941 43.1663C48.9772 43.1663 50.0206 44.2128 50.0206 45.4997C50.0206 46.7865 48.9772 47.833 47.6941 47.833Z" fill="#FF871C"/>
</svg>
