<svg width="70" height="58" viewBox="0 0 70 58" fill="none" xmlns="http://www.w3.org/2000/svg">
<rect width="70" height="58" fill="black" fill-opacity="0"/>
<rect width="70" height="58" fill="black" fill-opacity="0"/>
<rect width="70" height="58" fill="black" fill-opacity="0"/>
<path d="M64.208 11.757H49.2232V8.13371C49.2232 3.64871 45.5325 2.88749e-08 40.9962 2.88749e-08H29.0041C24.4678 2.88749e-08 20.7771 3.64871 20.7771 8.13371V11.7571H5.7921C2.59835 11.757 0 14.326 0 17.4835V52.2736C0 55.4311 2.59835 58 5.7921 58H64.2079C67.4017 58 70 55.4311 70 52.2736V17.4835C70.0001 14.326 67.4018 11.757 64.208 11.757ZM23.5658 8.13384C23.5658 5.16921 26.0055 2.75728 29.0041 2.75728H40.9962C43.9948 2.75728 46.4344 5.16921 46.4344 8.13384V11.7573H23.5658V8.13384ZM67.2113 52.2736C67.2113 53.9109 65.8641 55.2429 64.208 55.2429H5.7921C4.13602 55.2429 2.78879 53.9109 2.78879 52.2736V17.4835C2.78879 15.8462 4.13602 14.5143 5.7921 14.5143H64.2079C65.864 14.5143 67.2112 15.8462 67.2112 17.4835V52.2736H67.2113Z" fill="#B8C0D1"/>
<rect width="33.7449" height="33.3619" fill="black" fill-opacity="0" transform="translate(18.127 18.3848)"/>
<rect width="33.7449" height="33.3619" fill="black" fill-opacity="0" transform="translate(18.127 18.3848)"/>
<path d="M50.4774 28.3545H41.7877V19.7633C41.7877 19.0019 41.1633 18.3848 40.3933 18.3848H29.6056C28.8356 18.3848 28.2112 19.0019 28.2112 19.7633V28.3545H19.5213C18.7513 28.3545 18.127 28.9716 18.127 29.733V40.3983C18.127 41.1597 18.7513 41.7769 19.5213 41.7769H28.2111V50.3681C28.2111 51.1295 28.8355 51.7467 29.6055 51.7467H40.3931C41.1631 51.7467 41.7875 51.1295 41.7875 50.3681V41.777H50.4774C51.2474 41.777 51.8718 41.1598 51.8718 40.3984V29.7332C51.8718 28.9716 51.2474 28.3545 50.4774 28.3545ZM49.083 39.0199H40.3933C39.6233 39.0199 38.9989 39.637 38.9989 40.3984V48.9895H31V40.3984C31 39.637 30.3756 39.0199 29.6056 39.0199H20.9157V31.1117H29.6055C30.3755 31.1117 30.9999 30.4946 30.9999 29.7332V21.1419H38.9987V29.733C38.9987 30.4944 39.6231 31.1116 40.3931 31.1116H49.083V39.0199Z" fill="#FF871C"/>
<rect width="12.5497" height="2.75715" fill="black" fill-opacity="0" transform="translate(10.5957 16.3164)"/>
<rect width="12.5497" height="2.75715" fill="black" fill-opacity="0" transform="translate(10.5957 16.3164)"/>
<path d="M21.7512 16.3164H11.9901C11.2201 16.3164 10.5957 16.9336 10.5957 17.695C10.5957 18.4564 11.2201 19.0736 11.9901 19.0736H21.751C22.521 19.0736 23.1454 18.4564 23.1454 17.695C23.1456 16.9337 22.5212 16.3164 21.7512 16.3164Z" fill="#B8C0D1"/>
<rect width="3.48606" height="2.75715" fill="black" fill-opacity="0" transform="translate(5.01953 16.3164)"/>
<rect width="3.48606" height="2.75715" fill="black" fill-opacity="0" transform="translate(5.01953 16.3164)"/>
<path d="M7.1112 16.3164H6.41393C5.64393 16.3164 5.01953 16.9336 5.01953 17.695C5.01953 18.4564 5.64393 19.0736 6.41393 19.0736H7.1112C7.8812 19.0736 8.50559 18.4564 8.50559 17.695C8.50559 16.9337 7.8812 16.3164 7.1112 16.3164Z" fill="#B8C0D1"/>
</svg>
