<svg width="120" height="82" viewBox="0 0 120 82" fill="none" xmlns="http://www.w3.org/2000/svg"><g stroke="#fff" stroke-miterlimit="10"><path d="M40.691 79.409l2.501 1.508 66.086-36.714s6.629-4.485 6.946-8.613c0 0 5.081-6.39 1.389-13.337a8.38 8.38 0 0 0-2.064-2.5l-3.969-3.175S96.378 4.232 84.233 1.178c-1.23-.318-2.58-.2-3.77.277-4.287 1.746-16.115 7.065-33.897 18.933l-6.47-2.144c-.437-.158-.913-.198-1.39-.158a4.71 4.71 0 0 0-1.904.635L10.447 33.724c-.596.318-1.112.794-1.509 1.31-.952 1.23-1.508 2.739-1.627 4.287l-.278 3.056-.556.397c-.317.238-.516.595-.516.952 0 .199.04.397.16.556l.356.556-2.103 1.27s-2.461 1.985-2.461 4.684v5.08L1 57.301c.198 1.508.794 2.977 1.746 4.167 3.215 4.089 11.947 13.416 28.221 19.092 0 .04 3.453 1.508 9.724-1.151z"/><path d="M44.025 79.012s-4.882-2.897-2.5-6.47c2.341-3.492 50.209-38.222 71.047-42.628 1.15-.238 2.342 0 3.255.714 1.071.834 1.905 2.342.436 5.001M46.605 20.467s15.48 7.939 18.536 14.686l3.294 8.454s.397 3.573-1.31 4.962c-1.706 1.389-27.188 19.449-27.188 19.449l-3.691-2.183-.794-8.931s-.397-2.104 2.302-3.493c2.699-1.389 24.807-15.757 24.807-15.757s1.746-1.151.238-2.818"/><path d="M7.788 44.242l27.188-16.035s5.676-2.977 10.32-.794 8.613 2.7 17.266 10.24M1.954 55.872s7.938 15.003 26.315 20.282m29.529-60.251L78.953 3.4s20.64 7.859 28.856 18.06L85.86 33.485c.04 0-24.171-12.503-28.061-17.583zM48.51 21.5s2.858-2.025 6.51 0c3.652 2.023.397 4.246.397 4.246l2.58 1.866s-.714-2.302 2.064-2.183c2.778.119 5.358 2.183 5.358 2.183s2.382 2.222 0 3.373c-2.381 1.152-3.453 0-3.453 0m7.105 1.112c2.024-.278 5.557-.159 6.232 3.81.198 1.191-.675 2.302-1.866 2.382-2.183.159-5.398-.357-5.755-4.406-.12-.913.516-1.707 1.39-1.786z"/><path d="M34.54 32.057L37 30.47a1.133 1.133 0 0 1 1.31 0l3.532 2.222c.636.397.675 1.31.08 1.747l-2.024 1.468a.952.952 0 0 1-1.151 0L34.5 32.931c-.278-.16-.278-.675.04-.874zm8.413 5.557l2.342-1.707a1.256 1.256 0 0 1 1.429-.04l4.524 2.938c.636.397.636 1.31.04 1.706L48.986 42.1c-.476.357-1.151.318-1.627 0l-4.406-3.215c-.437-.278-.437-.953 0-1.27zm-10.914-3.612l3.294 2.54c.595.477.556 1.35-.04 1.786l-2.341 1.548c-.437.318-1.032.278-1.47-.04l-3.571-2.698c-.516-.397-.477-1.191.04-1.509l2.659-1.706a1.256 1.256 0 0 1 1.429.08zM21.044 39.36l2.778-1.627c.596-.357 1.35-.278 1.905.159l2.818 2.421c.596.516.556 1.469-.119 1.905l-2.738 1.747a1.196 1.196 0 0 1-1.43-.12l-3.333-3.095a.836.836 0 0 1 .119-1.39zm15.123 1.826l2.62-1.826c.436-.317 1.031-.278 1.468.04l4.803 3.612c.555.397.516 1.23-.08 1.588l-2.302 1.389c-.397.238-.913.238-1.27-.04l-5.24-3.413c-.436-.318-.476-1.032 0-1.35zm-2.7 2.302l4.605 3.414c.476.357.436 1.071-.04 1.35l-3.017 1.904a1.196 1.196 0 0 1-1.35-.04l-4.683-3.413c-.357-.278-.357-.833 0-1.072l2.977-2.183a1.388 1.388 0 0 1 1.508.04zm-7.262 3.732l4.882 3.532a.873.873 0 0 1-.04 1.429l-2.54 1.667a1.256 1.256 0 0 1-1.429-.04l-4.842-3.374a.819.819 0 0 1 0-1.31l2.818-1.944c.318-.239.794-.239 1.151.04zm9.922 7.501l-1.429-.913c-.397-.278-.913-.278-1.35 0l-7.422 4.922s2.7 5.755 9.963 2.897M19.417 51.149l5.04 3.89a.652.652 0 0 1 0 1.031l-2.937 2.104s-1.468.913-4.286-1.588c-2.818-2.5-3.89-3.215-1.667-4.485 1.19-.675 2.064-1.032 2.62-1.19a1.37 1.37 0 0 1 1.23.238zm-5.677-.079l7.264-3.97c.358-.198.596-.555.675-.952l.04-.239c.08-.516-.12-1.071-.556-1.389l-3.413-2.66c-.238-.158-.516-.277-.794-.277h-.08c-.277 0-.555.08-.793.238l-5.359 3.255c-.397.238-.635.635-.714 1.072l-.04.317c-.08.596.12 1.19.556 1.627l3.215 2.977zM88.52 4.313s13.575 6.748 17.464 11.193"/></g></svg>