<svg width="520" height="96" viewBox="0 0 520 96" fill="none" xmlns="http://www.w3.org/2000/svg"><path d="M333 55.829h1.89v2.074H333v2.483h1.89V64h2.662v-3.614h9.618v-2.483h-9.618v-2.106h2.662c2.862 0 4.637-.754 6.011-2.263C347.37 52.31 348 50.611 348 48.631c0-2.514-.887-4.117-2.405-5.248-1.288-.974-2.862-1.383-5.295-1.383h-5.41v11.314H333v2.515zm12.223-7.103c0 1.288-.315 2.325-1.145 3.237-.887.911-2.118 1.351-4.294 1.351h-2.232v-8.8h2.633c1.689 0 2.69.252 3.578.88 1.002.723 1.46 1.792 1.46 3.332zM6.617 84H5.554v-7.052h-3.68V84H.812v-7.998h5.806V84zm6.483-2.997c0 1.01-.243 1.79-.73 2.342-.487.548-1.135.821-1.945.821-.834 0-1.491-.282-1.97-.848-.477-.57-.715-1.341-.715-2.315 0-1.003.245-1.781.736-2.337.494-.555 1.144-.832 1.95-.832.809 0 1.457.277 1.944.832.487.552.73 1.33.73 2.337zm-1.042 0c0-.777-.141-1.354-.424-1.73-.283-.38-.686-.569-1.209-.569-.526 0-.932.19-1.219.57-.283.375-.424.952-.424 1.729 0 .752.141 1.323.424 1.713.287.387.693.58 1.22.58.518 0 .92-.19 1.202-.569.287-.383.43-.958.43-1.724zM18.874 84h-1.01v-5.13h-2.718V84h-1.01v-6h4.738v6zm6.397-2.997c0 1.01-.244 1.79-.73 2.342-.488.548-1.136.821-1.945.821-.834 0-1.491-.282-1.971-.848-.476-.57-.714-1.341-.714-2.315 0-1.003.245-1.781.735-2.337.495-.555 1.145-.832 1.95-.832.81 0 1.457.277 1.945.832.486.552.73 1.33.73 2.337zm-1.042 0c0-.777-.141-1.354-.424-1.73-.283-.38-.686-.569-1.209-.569-.526 0-.933.19-1.219.57-.283.375-.424.952-.424 1.729 0 .752.141 1.323.424 1.713.286.387.693.58 1.22.58.518 0 .92-.19 1.202-.569.287-.383.43-.958.43-1.724zM30.954 84h-1.01v-5.15H27.88a272.548 272.548 0 0 1-.064 1.6c-.022.562-.06 1.033-.113 1.412a4.85 4.85 0 0 1-.193.913 2.079 2.079 0 0 1-.263.554 2.175 2.175 0 0 1-.317.36 1.294 1.294 0 0 1-.392.241 1.31 1.31 0 0 1-.473.08c-.057 0-.13-.001-.22-.005a5.47 5.47 0 0 0-.188-.005v-.88h.053c.026 0 .05 0 .076.004a.86.86 0 0 0 .35-.032.503.503 0 0 0 .219-.14c.179-.175.31-.481.392-.918.082-.44.142-1.054.177-1.842.015-.294.027-.641.038-1.042.014-.401.027-.784.037-1.15h3.954v6zm6.203 0h-1.01v-2.702H33.43V84h-1.01v-6h1.01v2.428h2.718V78h1.01v6zm4.066.14c-.956 0-1.699-.269-2.229-.806-.526-.54-.79-1.307-.79-2.299 0-.977.257-1.754.769-2.33.512-.581 1.181-.871 2.008-.871.373 0 .702.054.989.161.286.108.537.276.752.505.215.23.38.51.494.843.114.33.172.734.172 1.214v.548H39.23c0 .698.175 1.232.526 1.6.35.37.836.554 1.455.554a3.06 3.06 0 0 0 1.23-.269c.183-.082.337-.16.462-.236.126-.079.23-.152.312-.22h.059v1.1c-.118.047-.265.106-.44.178a5.304 5.304 0 0 1-1.01.285 3.469 3.469 0 0 1-.602.043zm1.182-3.808a2.805 2.805 0 0 0-.097-.704 1.449 1.449 0 0 0-.247-.5 1.127 1.127 0 0 0-.456-.343 1.726 1.726 0 0 0-.683-.118c-.268 0-.497.04-.687.123a1.603 1.603 0 0 0-.854.876c-.079.19-.129.411-.15.666h3.174zM49.145 84h-1.01v-2.702h-2.717V84h-1.01v-6h1.01v2.428h2.718V78h1.01v6zm6.199 0h-1v-4.474L51.52 84h-.913v-6h1v4.405L54.398 78h.946v6zm4.066.14c-.956 0-1.7-.269-2.23-.806-.526-.54-.789-1.307-.789-2.299 0-.977.256-1.754.768-2.33.512-.581 1.182-.871 2.009-.871.372 0 .702.054.988.161.287.108.537.276.752.505.215.23.38.51.494.843.115.33.172.734.172 1.214v.548h-4.157c0 .698.175 1.232.526 1.6.351.37.837.554 1.456.554a3.058 3.058 0 0 0 1.23-.269c.183-.082.337-.16.462-.236.125-.079.229-.152.311-.22h.06v1.1a40 40 0 0 0-.441.178 5.304 5.304 0 0 1-1.01.285 3.467 3.467 0 0 1-.601.043zm1.181-3.808a2.805 2.805 0 0 0-.096-.704 1.45 1.45 0 0 0-.247-.5 1.128 1.128 0 0 0-.457-.343 1.726 1.726 0 0 0-.682-.118c-.269 0-.498.04-.688.123a1.603 1.603 0 0 0-.854.876 2.23 2.23 0 0 0-.15.666h3.174zm10.146 1.853c0 .29-.055.547-.166.773a1.611 1.611 0 0 1-.457.559c-.243.19-.5.318-.768.386a4.094 4.094 0 0 1-.956.097h-2.358v-6h2.202c.44 0 .763.015.967.043.204.026.407.094.607.205a1.1 1.1 0 0 1 .467.456c.1.19.15.415.15.677 0 .286-.078.544-.236.773a1.588 1.588 0 0 1-.628.527l.027.037c.326.083.598.25.816.5.222.25.333.573.333.967zm-1.348-2.648a.834.834 0 0 0-.07-.355.476.476 0 0 0-.23-.236 1.074 1.074 0 0 0-.436-.118 7.759 7.759 0 0 0-.66-.022h-.962v1.644h1.16c.248 0 .423-.011.527-.033.104-.025.218-.075.343-.15a.601.601 0 0 0 .253-.29c.05-.122.075-.268.075-.44zm.306 2.653c0-.204-.03-.367-.091-.489-.057-.125-.186-.236-.387-.333a1.184 1.184 0 0 0-.403-.113 6.36 6.36 0 0 0-.596-.021h-1.187v1.96h.876c.361 0 .642-.014.843-.043.2-.028.372-.086.516-.172.15-.093.26-.2.327-.322a.951.951 0 0 0 .102-.467zM80.803 84h-1v-4.716l-1.439 3.062h-.752l-1.428-3.062V84h-.946v-6h1.22l1.579 3.33L79.562 78h1.24v6zm4.812-1.477v-1.665c-.24.021-.544.052-.913.091a4.78 4.78 0 0 0-.886.156c-.269.082-.49.21-.666.381-.176.169-.263.405-.263.71 0 .343.096.603.29.778.193.176.476.263.848.263.32 0 .607-.068.865-.204.258-.14.5-.31.725-.51zm0 .838c-.082.06-.193.147-.333.258a2.33 2.33 0 0 1-.397.258c-.18.093-.353.164-.521.214-.165.05-.398.076-.699.076a1.801 1.801 0 0 1-1.289-.532 1.838 1.838 0 0 1-.386-.607 2.064 2.064 0 0 1-.145-.768c0-.416.088-.768.263-1.058.175-.294.453-.527.832-.699a4.08 4.08 0 0 1 1.193-.316c.458-.061.952-.106 1.482-.135v-.193c0-.236-.036-.426-.107-.57a.792.792 0 0 0-.301-.338 1.153 1.153 0 0 0-.473-.161 3.775 3.775 0 0 0-.574-.043 3.78 3.78 0 0 0-.822.107c-.315.069-.63.169-.945.301h-.06V78.13c.187-.053.454-.112.8-.177a5.643 5.643 0 0 1 1.032-.097c.412 0 .76.033 1.042.097.283.065.537.181.763.35a1.5 1.5 0 0 1 .489.638c.107.262.16.58.16.956V84h-1.004v-.64zm7.46-2.52c0 1-.24 1.797-.719 2.39-.476.592-1.08.887-1.81.887a2.78 2.78 0 0 1-.79-.102 3.102 3.102 0 0 1-.703-.317v2.514h-1.01V78h1.01v.629a3.63 3.63 0 0 1 .832-.564 2.214 2.214 0 0 1 1.005-.231c.687 0 1.222.272 1.606.816.386.545.58 1.275.58 2.192zm-1.041.114c0-.684-.11-1.214-.328-1.59-.218-.38-.573-.57-1.063-.57-.287 0-.564.065-.833.194a3.54 3.54 0 0 0-.757.489v3.4c.265.128.49.216.677.263.19.046.406.07.65.07.522 0 .929-.192 1.219-.575.29-.383.435-.944.435-1.681zM98.952 84h-1.257l-2.057-2.766h-.505V84h-1.01v-6h1.01v2.61a1.36 1.36 0 0 0 .666-.16c.186-.108.344-.314.472-.618.04-.09.083-.193.13-.311a3.93 3.93 0 0 0 .118-.312c.157-.44.375-.752.655-.935.28-.182.643-.274 1.09-.274h.274v.87h-.23c-.284 0-.497.06-.64.178-.14.114-.258.326-.355.634-.1.311-.218.555-.354.73a1.557 1.557 0 0 1-.451.398L98.952 84zm3.255.14c-.957 0-1.7-.269-2.23-.806-.526-.54-.789-1.307-.789-2.299 0-.977.256-1.754.768-2.33.512-.581 1.182-.871 2.009-.871.372 0 .702.054.988.161.287.108.537.276.752.505.215.23.38.51.494.843.115.33.172.734.172 1.214v.548h-4.157c0 .698.175 1.232.526 1.6.351.37.836.554 1.456.554a3.057 3.057 0 0 0 1.23-.269c.182-.082.336-.16.462-.236.125-.079.229-.152.311-.22h.059v1.1c-.118.047-.265.106-.44.178a5.329 5.329 0 0 1-1.01.285 3.461 3.461 0 0 1-.601.043zm1.181-3.808a2.812 2.812 0 0 0-.096-.704 1.454 1.454 0 0 0-.248-.5 1.126 1.126 0 0 0-.456-.343 1.727 1.727 0 0 0-.682-.118c-.269 0-.498.04-.688.123a1.604 1.604 0 0 0-.854.876c-.079.19-.129.411-.15.666h3.174zm6.386-1.445h-2.041V84h-1.009v-5.113h-2.041V78h5.091v.887zm3.357 5.253c-.956 0-1.699-.269-2.229-.806-.526-.54-.789-1.307-.789-2.299 0-.977.256-1.754.768-2.33.512-.581 1.181-.871 2.009-.871.372 0 .701.054.988.161.286.108.537.276.752.505.215.23.379.51.494.843.115.33.172.734.172 1.214v.548h-4.157c0 .698.175 1.232.526 1.6.351.37.836.554 1.456.554a3.081 3.081 0 0 0 1.23-.269c.182-.082.336-.16.461-.236.126-.079.23-.152.312-.22h.059v1.1c-.118.047-.265.106-.44.178a5.329 5.329 0 0 1-1.01.285 3.474 3.474 0 0 1-.602.043zm1.182-3.808a2.764 2.764 0 0 0-.097-.704 1.435 1.435 0 0 0-.247-.5 1.126 1.126 0 0 0-.456-.343 1.727 1.727 0 0 0-.682-.118c-.269 0-.498.04-.688.123a1.604 1.604 0 0 0-.854.876c-.079.19-.129.411-.15.666h3.174zM37.844 48.25c0 2.417-.417 4.656-1.25 6.719a14.166 14.166 0 0 1-3.688 5.343c-1.625 1.48-3.562 2.626-5.812 3.438-2.23.813-4.98 1.219-8.25 1.219-3.459-.021-6.438-.323-8.938-.906-2.479-.563-4.531-1.198-6.156-1.907V52h1.063l1.968 1.125c.73.417 1.688.854 2.875 1.313A28.42 28.42 0 0 0 13 55.531c1.146.271 2.417.407 3.813.407 1.208 0 2.51-.146 3.906-.438 1.396-.313 2.52-.865 3.375-1.656a7.195 7.195 0 0 0 1.468-2.094c.355-.77.532-1.802.532-3.094 0-1.083-.23-2.01-.688-2.781a5.315 5.315 0 0 0-1.75-1.906c-1.062-.709-2.343-1.157-3.843-1.344-1.5-.208-2.792-.313-3.875-.313-1.709 0-3.376.136-5 .407-1.605.27-3 .562-4.188.875h-1V17.469h30.813v8.781H16.78V34a53.653 53.653 0 0 1 2.22-.094 45.785 45.785 0 0 1 2.031-.062c2.23 0 4.292.229 6.188.687 1.896.438 3.573 1.125 5.031 2.063 1.77 1.146 3.146 2.687 4.125 4.625.98 1.916 1.469 4.26 1.469 7.031zm57.843-21.906H76V64H64.312V17.469h31.376v8.875zm34.251 8.125c1.333 1.354 2.385 3.031 3.156 5.031.771 1.98 1.156 4.448 1.156 7.406 0 5.48-1.635 9.886-4.906 13.219-3.25 3.313-7.646 4.969-13.188 4.969-6.083 0-10.604-1.969-13.562-5.906-2.959-3.938-4.438-9.834-4.438-17.688 0-1.5.073-3.02.219-4.563.146-1.562.48-3.447 1-5.656a30.923 30.923 0 0 1 1.875-5.468c.833-1.834 1.823-3.334 2.969-4.5 1.291-1.334 3.052-2.48 5.281-3.438 2.229-.98 5.354-1.667 9.375-2.063 1.896-.187 4.146-.343 6.75-.468s4.677-.209 6.219-.25v8.219a406.06 406.06 0 0 0-3.625.187 108.76 108.76 0 0 0-3.75.219c-.875.062-2.021.166-3.438.312-1.416.125-2.625.282-3.625.469-1.208.25-2.333.635-3.375 1.156a7.461 7.461 0 0 0-2.531 2.063c-.5.646-.917 1.51-1.25 2.593-.312 1.063-.542 2.375-.688 3.938a22.226 22.226 0 0 1 4.876-2.656c1.708-.667 3.552-1 5.531-1 1.958 0 3.791.323 5.5.968a12.295 12.295 0 0 1 4.469 2.907zm-9.157 20.812c.667-.812 1.198-1.802 1.594-2.968.417-1.188.625-2.865.625-5.032 0-2.52-.646-4.541-1.938-6.062-1.291-1.542-3-2.313-5.124-2.313-.98 0-2.011.125-3.094.375-1.084.25-2.219.709-3.406 1.375 0 .209-.011.51-.032.907v1.03c0 3.022.094 5.313.282 6.876.187 1.562.604 3.01 1.25 4.343.541 1.126 1.27 1.98 2.187 2.563.917.583 1.979.875 3.187.875.688 0 1.448-.156 2.282-.469a5.285 5.285 0 0 0 2.187-1.5zm45.68 2.684c0 1.224-.267 2.259-.801 3.105a6.053 6.053 0 0 1-2.051 2.012c-.794.482-1.699.84-2.714 1.074a13.517 13.517 0 0 1-3.047.352c-1.433 0-2.787-.143-4.063-.43a16.789 16.789 0 0 1-3.808-1.328v-4.063h.234c.885.82 1.992 1.472 3.32 1.954 1.341.468 2.676.703 4.004.703.573 0 1.185-.059 1.836-.176.664-.13 1.224-.326 1.68-.586.599-.365 1.022-.755 1.269-1.172.261-.416.391-.99.391-1.719 0-.78-.15-1.406-.449-1.875a2.65 2.65 0 0 0-1.192-1.074 5.05 5.05 0 0 0-1.718-.43 19.277 19.277 0 0 0-1.993-.097h-2.578V51.05h1.973c.495 0 1.113-.013 1.855-.04.743-.038 1.335-.143 1.778-.312.56-.208 1.009-.501 1.347-.879.339-.39.508-1.041.508-1.953 0-.638-.143-1.152-.43-1.543a3.037 3.037 0 0 0-1.074-.918 4.48 4.48 0 0 0-1.445-.468 8.73 8.73 0 0 0-1.504-.137c-1.237 0-2.428.176-3.574.527-1.133.339-2.11.846-2.93 1.524h-.234v-3.965a27.107 27.107 0 0 1 3.105-.86 16.25 16.25 0 0 1 3.438-.37c.924 0 1.862.097 2.812.292a9.626 9.626 0 0 1 2.735.957 5.952 5.952 0 0 1 2.031 1.836c.547.768.82 1.712.82 2.832 0 1.185-.338 2.227-1.015 3.125-.665.886-1.55 1.472-2.657 1.758v.137c1.211.416 2.201 1.054 2.969 1.914.781.86 1.172 2.011 1.172 3.457zm16.055.664v-6.055c-.873.078-1.98.189-3.321.332-1.328.13-2.402.32-3.222.567-.977.3-1.784.761-2.422 1.386-.638.612-.957 1.472-.957 2.578 0 1.25.351 2.195 1.054 2.833.704.638 1.732.957 3.086.957 1.159 0 2.207-.248 3.145-.743a14.03 14.03 0 0 0 2.637-1.855zm0 3.047c-.3.221-.704.534-1.211.937a8.47 8.47 0 0 1-1.446.938c-.651.338-1.282.599-1.894.781-.599.182-1.445.274-2.539.274-.899 0-1.752-.17-2.559-.508a6.583 6.583 0 0 1-2.129-1.426c-.586-.6-1.054-1.335-1.406-2.207a7.49 7.49 0 0 1-.527-2.793c0-1.51.319-2.793.957-3.848.638-1.067 1.647-1.914 3.027-2.539 1.224-.56 2.669-.944 4.336-1.152a69.67 69.67 0 0 1 5.391-.489v-.703c0-.859-.131-1.55-.391-2.07a2.878 2.878 0 0 0-1.094-1.23c-.469-.3-1.041-.495-1.719-.586a13.712 13.712 0 0 0-2.089-.157c-.847 0-1.843.13-2.989.391a19.478 19.478 0 0 0-3.437 1.094h-.215v-3.73c.677-.196 1.647-.41 2.91-.645a20.517 20.517 0 0 1 3.75-.352c1.498 0 2.761.117 3.789.352a7.298 7.298 0 0 1 2.774 1.27 5.446 5.446 0 0 1 1.777 2.324c.391.95.586 2.109.586 3.476V64h-3.652v-2.324zM239.008 64h-30.75v-8.125h9.812V31.281h-9.812v-7.593c1.437 0 2.864-.094 4.281-.282 1.417-.187 2.552-.49 3.406-.906 1-.5 1.771-1.167 2.313-2 .562-.854.885-1.906.969-3.156h10.187v38.531h9.594V64zm42.687-12.969c0 2-.416 3.865-1.25 5.594-.812 1.708-2.01 3.188-3.593 4.438-1.584 1.25-3.521 2.229-5.813 2.937-2.271.708-4.875 1.063-7.812 1.063-3.125 0-5.865-.355-8.219-1.063-2.354-.73-4.281-1.708-5.781-2.938-1.48-1.229-2.573-2.677-3.282-4.343a13.368 13.368 0 0 1-1.062-5.282c0-2.666.729-4.885 2.187-6.656 1.479-1.77 3.615-3.25 6.407-4.437v-.188c-2.73-1.333-4.636-2.948-5.719-4.843-1.084-1.896-1.625-4.01-1.625-6.344 0-1.709.375-3.313 1.125-4.813.75-1.5 1.875-2.843 3.375-4.031 1.416-1.125 3.208-2.02 5.375-2.688 2.187-.687 4.635-1.03 7.344-1.03 2.875 0 5.375.312 7.5.937 2.145.604 3.906 1.406 5.281 2.406 1.416 1.02 2.5 2.26 3.25 3.719.75 1.437 1.125 3 1.125 4.687 0 2.209-.646 4.209-1.938 6-1.271 1.771-3.229 3.26-5.875 4.469v.188c3.084 1.25 5.354 2.895 6.813 4.937 1.458 2.02 2.187 4.448 2.187 7.281zm-12.5-21.5c0-1.583-.521-2.843-1.562-3.781-1.042-.958-2.459-1.438-4.25-1.438-1.709 0-3.094.428-4.156 1.282-1.042.854-1.563 1.906-1.563 3.156 0 1.25.313 2.26.938 3.031.645.75 1.635 1.448 2.968 2.094.584.292 1.271.594 2.063.906.812.313 1.885.719 3.219 1.219.812-1.063 1.406-2.083 1.781-3.063.375-1 .562-2.135.562-3.406zm.969 22c0-1.52-.323-2.687-.969-3.5-.646-.812-2.031-1.729-4.156-2.75-.604-.291-1.479-.656-2.625-1.093a96.255 96.255 0 0 1-3-1.22c-.812.813-1.542 1.824-2.187 3.032-.625 1.188-.938 2.5-.938 3.938 0 2.166.688 3.895 2.063 5.187 1.375 1.292 3.187 1.938 5.437 1.938.604 0 1.292-.094 2.063-.282a6.622 6.622 0 0 0 2.093-.937 5.823 5.823 0 0 0 1.594-1.688c.417-.646.625-1.52.625-2.625zm51.813-10.812c0 4.02-.323 7.541-.969 10.562-.646 3.021-1.677 5.542-3.094 7.563-1.417 2.02-3.26 3.552-5.531 4.593-2.271 1.021-5.052 1.532-8.344 1.532-3.271 0-6.042-.51-8.312-1.531a13.562 13.562 0 0 1-5.563-4.657c-1.417-2.041-2.448-4.552-3.094-7.531-.646-3-.968-6.5-.968-10.5 0-4.125.312-7.646.937-10.563.646-2.916 1.708-5.427 3.188-7.53 1.458-2.063 3.333-3.595 5.625-4.595 2.291-1.02 5.02-1.53 8.187-1.53 3.354 0 6.146.53 8.375 1.593 2.25 1.042 4.094 2.604 5.531 4.688 1.417 2.041 2.438 4.562 3.063 7.562.646 3 .969 6.448.969 10.344zm-11.719 0c0-5.75-.479-9.782-1.438-12.094-.937-2.333-2.531-3.5-4.781-3.5-2.229 0-3.823 1.167-4.781 3.5-.959 2.313-1.438 6.365-1.438 12.156 0 5.667.479 9.688 1.438 12.063.958 2.354 2.552 3.531 4.781 3.531 2.229 0 3.823-1.177 4.781-3.531.959-2.375 1.438-6.417 1.438-12.125zm79.898 16.68c0 1.054-.202 1.992-.605 2.812a5.863 5.863 0 0 1-1.66 2.031c-.886.69-1.817 1.159-2.793 1.406-.964.235-2.123.352-3.477.352h-8.574V42.184h8.008c1.601 0 2.773.052 3.515.156.742.091 1.478.338 2.207.742.769.417 1.335.97 1.7 1.66.364.69.546 1.51.546 2.461 0 1.042-.286 1.98-.859 2.813-.573.82-1.335 1.458-2.285 1.914l.098.136a5.7 5.7 0 0 1 2.968 1.817c.808.911 1.211 2.083 1.211 3.515zm-4.902-9.63c0-.494-.085-.924-.254-1.288-.156-.365-.436-.652-.84-.86a3.907 3.907 0 0 0-1.582-.43c-.573-.052-1.374-.078-2.402-.078h-3.496v5.977h4.218c.899 0 1.537-.04 1.914-.117.378-.091.795-.274 1.25-.547.43-.26.736-.612.918-1.055.183-.443.274-.977.274-1.602zm1.113 9.649c0-.742-.11-1.335-.332-1.777-.208-.456-.677-.86-1.406-1.211a4.306 4.306 0 0 0-1.465-.41c-.521-.053-1.243-.079-2.168-.079h-4.316v7.13h3.183c1.315 0 2.338-.053 3.067-.157.729-.104 1.354-.312 1.875-.625.547-.339.944-.73 1.191-1.172.247-.442.371-1.009.371-1.699zM426.758 64h-3.633V46.852l-5.234 11.132h-2.735l-5.195-11.132V64h-3.438V42.184h4.434l5.742 12.109 5.547-12.11h4.512V64zm14.785.508c-3.477 0-6.178-.977-8.105-2.93-1.915-1.966-2.872-4.753-2.872-8.36 0-3.554.931-6.38 2.793-8.476 1.862-2.11 4.297-3.164 7.305-3.164 1.354 0 2.552.195 3.594.586A7.15 7.15 0 0 1 446.992 44c.781.833 1.38 1.855 1.797 3.066.417 1.198.625 2.67.625 4.414v1.993h-15.117c0 2.539.638 4.479 1.914 5.82 1.276 1.341 3.04 2.012 5.293 2.012.807 0 1.595-.091 2.363-.274a11.132 11.132 0 0 0 2.11-.703c.664-.3 1.224-.586 1.679-.86.456-.286.834-.553 1.133-.8h.215v4.004c-.43.17-.964.384-1.602.644-.638.248-1.211.443-1.718.586a22.55 22.55 0 0 1-1.954.45c-.572.104-1.302.156-2.187.156zm4.297-13.848c-.026-.99-.143-1.842-.352-2.558-.208-.717-.508-1.322-.898-1.817a4.102 4.102 0 0 0-1.66-1.25c-.664-.286-1.491-.43-2.481-.43-.976 0-1.81.15-2.5.45a5.825 5.825 0 0 0-1.855 1.27 6.067 6.067 0 0 0-1.25 1.913c-.287.69-.469 1.498-.547 2.422h11.543zm15.957 13.828c-1.498 0-2.871-.228-4.121-.683a8.572 8.572 0 0 1-3.223-2.11c-.898-.937-1.595-2.116-2.09-3.535-.495-1.432-.742-3.112-.742-5.039 0-1.914.254-3.568.762-4.96.521-1.394 1.211-2.566 2.07-3.517.859-.95 1.927-1.68 3.203-2.187 1.289-.52 2.67-.781 4.141-.781 1.198 0 2.35.17 3.457.508 1.12.338 2.116.729 2.988 1.172v4.12h-.215a12.8 12.8 0 0 0-1.015-.761c-.404-.287-.899-.58-1.485-.88a9.757 9.757 0 0 0-1.797-.683 7.307 7.307 0 0 0-1.992-.293c-1.901 0-3.431.723-4.59 2.168-1.145 1.433-1.718 3.464-1.718 6.094 0 2.578.553 4.59 1.66 6.035 1.12 1.433 2.669 2.149 4.648 2.149a8.114 8.114 0 0 0 3.418-.742 10.626 10.626 0 0 0 2.871-1.915h.215v4.121c-.364.17-.82.378-1.367.626a10.95 10.95 0 0 1-1.484.527 17.25 17.25 0 0 1-1.68.41c-.495.104-1.133.156-1.914.156zM487.402 64h-3.672v-8.652h-3.632L473.633 64h-4.278l7.012-8.984c-1.81-.534-3.138-1.328-3.984-2.383-.834-1.055-1.25-2.468-1.25-4.239 0-1.08.234-2.024.703-2.831a6.51 6.51 0 0 1 1.934-2.07c.651-.444 1.471-.769 2.46-.977.99-.222 2.097-.332 3.321-.332h7.851V64zm-3.672-11.543v-7.344h-3.984c-.846 0-1.517.046-2.012.137a4.53 4.53 0 0 0-1.406.527 2.824 2.824 0 0 0-1.074 1.172 3.53 3.53 0 0 0-.352 1.563c0 .716.078 1.302.235 1.758.169.442.468.852.898 1.23.456.39 1.009.651 1.66.781.664.117 1.387.176 2.168.176h3.867zm28.262 16.777h-3.418V64h-15.84V42.184h3.672v18.652h9.746V42.184h3.672v18.652h2.168v8.398z" fill="#333"/></svg>