<svg width="106" height="172" viewBox="0 0 106 172" fill="none" xmlns="http://www.w3.org/2000/svg"><path d="M-64.5 86c0-46.472 38.028-84.5 84.5-84.5 46.471 0 84.5 38.028 84.5 84.5S66.472 170.5 20 170.5-64.5 132.472-64.5 86zm13.125 0c0 39.528 31.847 71.375 71.375 71.375S91.375 125.528 91.375 86 59.528 14.625 20 14.625c-39.529 0-71.375 31.847-71.375 71.375z" fill="#2D2908" stroke="#fff" stroke-width="3"/><path d="M64.612 41.387l-33.325 55.9L8.712 74.712l55.9-33.325z" fill="#FFDA00"/><path d="M-24.612 130.612l55.9-33.325L8.713 74.712l-33.325 55.9z" fill="#2D2908"/></svg>