<svg width="86" height="70" viewBox="0 0 86 70" fill="none" xmlns="http://www.w3.org/2000/svg">
<rect width="86" height="70" fill="black" fill-opacity="0"/>
<rect width="86" height="70" fill="black" fill-opacity="0"/>
<path d="M81.7 51.4397V50.0113C81.7063 49.8201 81.674 49.6296 81.6048 49.451C81.5357 49.2725 81.4311 49.1097 81.2974 48.9721C81.1637 48.8346 81.0036 48.7253 80.8266 48.6506C80.6495 48.5759 80.4592 48.5375 80.2669 48.5375C80.0746 48.5375 79.8843 48.5759 79.7073 48.6506C79.5303 48.7253 79.3701 48.8346 79.2364 48.9721C79.1027 49.1097 78.9982 49.2725 78.929 49.451C78.8599 49.6296 78.8275 49.8201 78.8339 50.0113V51.4397H67.3677V24.2814C67.3652 19.3631 65.4027 14.6465 61.9104 11.166C58.4182 7.68549 53.6813 5.72512 48.7386 5.71483H44.4339V4.28184C44.4289 3.14828 43.9744 2.06249 43.1692 1.26064C42.3639 0.458791 41.2731 0.00573108 40.1339 0L25.8 0C24.6608 0.00696613 23.5705 0.46121 22.7661 1.26393C21.9617 2.06666 21.5084 3.15294 21.5047 4.28651V5.71483H18.6276C16.1787 5.71748 13.7544 6.20007 11.4929 7.13503C9.23145 8.06999 7.17722 9.43902 5.44748 11.164C3.71775 12.8889 2.3464 14.9359 1.41172 17.1882C0.477039 19.4405 -0.00265978 21.854 1.1092e-05 24.2907V47.1625C0.00165991 50.5674 1.36032 53.8326 3.77801 56.2422C6.1957 58.6517 9.47506 60.0088 12.8969 60.0158H18.6323C18.6323 62.6638 19.6894 65.2033 21.5711 67.0757C23.4529 68.9481 26.005 70 28.6662 70C31.3273 70 33.8794 68.9481 35.7612 67.0757C37.6429 65.2033 38.7 62.6638 38.7 60.0158H81.7C82.8397 60.01 83.9311 59.5566 84.7364 58.754C85.5417 57.9515 85.9959 56.8649 86 55.7308C85.9975 54.5956 85.5441 53.5075 84.7386 52.7036C83.9331 51.8997 82.8408 51.4454 81.7 51.4397ZM24.3677 4.29584C24.3689 3.91724 24.5202 3.5544 24.7887 3.28611C25.0571 3.01782 25.4211 2.86572 25.8016 2.86286H40.1292C40.5103 2.86491 40.8753 3.01659 41.1447 3.28492C41.414 3.55326 41.5661 3.91656 41.5677 4.29584V5.71949H24.3677V4.29584ZM12.9016 57.1607C10.2394 57.1545 7.68831 56.098 5.8079 54.2228C3.92749 52.3476 2.87125 49.8068 2.87085 47.1578V24.2907C2.87084 20.1275 4.53106 16.1345 7.48703 13.1882C10.443 10.2419 14.4531 8.58313 18.637 8.57613H48.7386C52.9216 8.58437 56.9305 10.2436 59.8855 13.1898C62.8404 16.136 64.5 20.1283 64.5 24.2907V57.156H61.6339V22.8624C61.6339 21.7269 61.1811 20.6378 60.3749 19.8341C59.5687 19.0305 58.475 18.578 57.3339 18.5759H45.8677C44.7266 18.578 43.6329 19.0305 42.8267 19.8341C42.0205 20.6378 41.5677 21.7269 41.5677 22.8624V57.156H38.2841C38.2606 57.0767 38.2278 57.0004 38.2028 56.9226C38.1777 56.8448 38.148 56.7671 38.1215 56.6893C37.9693 56.2492 37.7864 55.8203 37.5742 55.4056L37.5492 55.3636C37.3345 54.9587 37.0915 54.5693 36.8221 54.1983L36.7158 54.0427C36.4504 53.6893 36.1616 53.354 35.8511 53.0391C35.7854 52.9707 35.7182 52.9053 35.6509 52.84C35.3409 52.5373 35.0113 52.2551 34.6643 51.9951C34.597 51.9453 34.5267 51.9018 34.4594 51.8551C34.1214 51.6141 33.7684 51.3948 33.4024 51.1985C33.3539 51.172 33.3086 51.1425 33.2601 51.1176C32.8555 50.9127 32.4376 50.735 32.0092 50.5855L31.7778 50.5046C31.3385 50.3616 30.8897 50.2493 30.4346 50.1685C30.4018 50.1685 30.3721 50.1498 30.3392 50.1451C30.2751 50.1343 30.211 50.1327 30.1469 50.1234C29.9322 50.0912 29.7164 50.0663 29.4996 50.0487C29.3854 50.0393 29.2713 50.03 29.1571 50.0253C28.9529 50.0152 28.7484 50.0152 28.5442 50.0253C28.416 50.0253 28.2878 50.0253 28.1611 50.0347C27.9746 50.0455 27.7885 50.0616 27.6029 50.0829C27.4633 50.0957 27.3241 50.1123 27.1854 50.1327C27.1291 50.1327 27.0744 50.1436 27.0181 50.1529C26.9618 50.1623 26.882 50.1887 26.8132 50.2027C26.4878 50.2638 26.1658 50.3417 25.8485 50.4361C25.7422 50.4672 25.6343 50.4937 25.5358 50.5279C25.1627 50.6517 24.7972 50.7972 24.4412 50.9635C24.3255 51.0164 24.216 51.0787 24.1019 51.1378C23.8392 51.2716 23.5838 51.4173 23.3357 51.575C23.2263 51.6435 23.1152 51.7104 23.0074 51.7835C22.6809 52.0065 22.3677 52.2481 22.0692 52.507C22.0176 52.5521 21.9707 52.6019 21.9128 52.6486C21.6497 52.8904 21.3992 53.1454 21.1623 53.4125C21.1015 53.4808 21.0415 53.5498 20.9824 53.6195C20.4343 54.2723 19.9733 54.9929 19.6111 55.7635L19.522 55.9642C19.3659 56.3151 19.2301 56.6745 19.1155 57.0409C19.103 57.0813 19.0826 57.1187 19.0701 57.1607H12.9125H12.9016ZM35.8339 60.0173C35.8339 60.9538 35.6485 61.881 35.2884 62.7461C34.9282 63.6113 34.4004 64.3974 33.7349 65.0595C33.0695 65.7216 32.2795 66.2469 31.4101 66.6052C30.5406 66.9636 29.6088 67.148 28.6677 67.148C27.7266 67.148 26.7948 66.9636 25.9254 66.6052C25.0559 66.2469 24.2659 65.7216 23.6005 65.0595C22.935 64.3974 22.4072 63.6113 22.0471 62.7461C21.6869 61.881 21.5016 60.9538 21.5016 60.0173C21.5005 59.6181 21.5366 59.2197 21.6095 58.8271C21.6797 58.4263 21.7843 58.0322 21.9222 57.6493C21.9675 57.5201 22.0285 57.4003 22.0786 57.2758C22.1766 57.0325 22.2877 56.7946 22.4116 56.5632C22.4867 56.4294 22.568 56.305 22.654 56.1758C22.785 55.9692 22.9264 55.7693 23.0777 55.5768C23.17 55.4617 23.2685 55.3512 23.367 55.2407C23.5367 55.0545 23.7157 54.8769 23.9033 54.7086C24.0051 54.617 24.1093 54.5283 24.216 54.4425C24.4254 54.2783 24.6436 54.1256 24.8696 53.9851C24.976 53.9182 25.0807 53.8482 25.1902 53.7859C25.4345 53.6542 25.6861 53.5362 25.9439 53.4328C26.0549 53.3861 26.1612 53.3332 26.2754 53.2927C26.5542 53.1973 26.8389 53.1194 27.1275 53.0593C27.2323 53.036 27.3324 53.0002 27.4403 52.9815C27.5482 52.9629 27.6576 52.966 27.7655 52.9535C28.1104 52.9049 28.4585 52.8815 28.8069 52.8835C28.9632 52.8835 29.1196 52.91 29.276 52.9224C29.56 52.9441 29.8425 52.9825 30.1219 53.0376C30.2783 53.0687 30.4237 53.1091 30.5738 53.1496C30.8511 53.227 31.1236 53.3206 31.39 53.4296C31.5151 53.481 31.6418 53.5308 31.7637 53.5852C32.0803 53.7377 32.3851 53.9135 32.6753 54.1111C32.7332 54.1485 32.7957 54.1796 32.8504 54.2185C33.1897 54.4638 33.5068 54.7382 33.798 55.0385C33.8824 55.1256 33.9544 55.222 34.0341 55.3138C34.2298 55.5341 34.412 55.7658 34.5798 56.0078C34.6705 56.1416 34.7534 56.2801 34.8363 56.4201C34.9737 56.6571 35.0975 56.9018 35.2068 57.1529C35.2694 57.2945 35.3351 57.4345 35.3882 57.5808C35.5332 57.9703 35.6436 58.3717 35.7182 58.7804C35.7182 58.8022 35.7307 58.8224 35.7338 58.8442C35.8049 59.2301 35.84 59.6218 35.8386 60.0142L35.8339 60.0173ZM44.4339 57.1607V22.8624C44.4339 22.4837 44.5848 22.1205 44.8536 21.8524C45.1224 21.5844 45.4871 21.4334 45.8677 21.4325H57.3339C57.7144 21.4334 58.0791 21.5844 58.3479 21.8524C58.6167 22.1205 58.7677 22.4837 58.7677 22.8624V57.156H44.4339V57.1607ZM81.7 57.1607H67.3677V54.301H81.6953C82.0617 54.3212 82.4063 54.4801 82.6587 54.7451C82.9111 55.0102 83.052 55.3612 83.0526 55.7263C83.0532 56.0914 82.9134 56.4429 82.6619 56.7087C82.4104 56.9746 82.0663 57.1346 81.7 57.156V57.1607ZM28.649 55.7308C27.623 55.7394 26.6339 56.1124 25.8598 56.7825C25.0857 57.4526 24.5777 58.3758 24.4271 59.3856C24.3897 59.5946 24.3713 59.8066 24.3724 60.0189C24.3749 61.1531 24.828 62.2403 25.633 63.0434C26.438 63.8464 27.5294 64.3001 28.6693 64.3054C29.8113 64.2992 30.9044 63.8434 31.7096 63.0375C32.5148 62.2316 32.9666 61.1413 32.9662 60.0049C32.9638 59.7589 32.9392 59.5136 32.8927 59.2721C32.7173 58.2788 32.1957 57.3789 31.4195 56.7304C30.6434 56.0819 29.6624 55.7263 28.649 55.7262V55.7308ZM28.6677 61.4472C28.2877 61.4448 27.9239 61.2932 27.6555 61.0255C27.387 60.7578 27.2355 60.3955 27.2339 60.0173L27.2511 59.8415C27.2984 59.5007 27.4659 59.1876 27.7236 58.9582C27.9814 58.7288 28.3126 58.5979 28.6583 58.589C28.9992 58.5934 29.3274 58.7176 29.585 58.9398C29.8426 59.1619 30.0128 59.4676 30.0656 59.8026C30.0803 59.8733 30.0886 59.9452 30.0906 60.0173C30.0878 60.3928 29.9373 60.7523 29.6713 61.0187C29.4053 61.2851 29.0451 61.4373 28.6677 61.4425V61.4472ZM34.4 34.2936V22.8624C34.4 21.7269 33.9472 20.6378 33.141 19.8341C32.3349 19.0305 31.2412 18.578 30.1 18.5759H11.4677C10.3266 18.578 9.23287 19.0305 8.42668 19.8341C7.6205 20.6378 7.16772 21.7269 7.16772 22.8624V34.2936C7.16813 35.429 7.62105 36.5179 8.42714 37.3214C9.23323 38.125 10.3267 38.5777 11.4677 38.5801H30.1016C31.2423 38.5772 32.3354 38.1244 33.1411 37.3209C33.9469 36.5174 34.3996 35.4287 34.4 34.2936ZM10.0323 34.2936V22.8624C10.0323 22.4837 10.1833 22.1205 10.4521 21.8524C10.7209 21.5844 11.0856 21.4334 11.4662 21.4325H30.1C30.4804 21.4334 30.845 21.5844 31.1135 21.8525C31.3821 22.1206 31.5327 22.4839 31.5323 22.8624V34.2936C31.5323 34.6719 31.3815 35.0347 31.113 35.3025C30.8445 35.5703 30.4802 35.7211 30.1 35.7219H11.4677C11.0874 35.7211 10.723 35.5703 10.4542 35.3026C10.1854 35.0349 10.0343 34.672 10.0339 34.2936H10.0323ZM16.7794 24.7093C16.6465 24.5755 16.4882 24.4693 16.3137 24.3968C16.1393 24.3243 15.9521 24.2869 15.763 24.2869C15.574 24.2869 15.3868 24.3243 15.2123 24.3968C15.0379 24.4693 14.8796 24.5755 14.7467 24.7093L13.3128 26.1376C13.1703 26.2683 13.0558 26.4264 12.9762 26.6022C12.8966 26.7781 12.8535 26.9681 12.8496 27.161C12.8456 27.3538 12.8809 27.5455 12.9532 27.7244C13.0256 27.9033 13.1335 28.0659 13.2706 28.2023C13.4077 28.3386 13.571 28.4461 13.7508 28.5181C13.9307 28.5901 14.1233 28.6251 14.3171 28.6212C14.5109 28.6173 14.7019 28.5744 14.8786 28.4952C15.0553 28.416 15.2142 28.3021 15.3455 28.1603L16.7794 26.7319C17.0489 26.4638 17.2004 26.1002 17.2007 25.7209C17.201 25.3417 17.05 24.9778 16.781 24.7093H16.7794ZM21.9191 24.7093L16.1868 30.4256C16.0442 30.5564 15.9297 30.7144 15.8501 30.8903C15.7705 31.0661 15.7275 31.2562 15.7235 31.449C15.7196 31.6419 15.7548 31.8335 15.8272 32.0125C15.8995 32.1914 16.0075 32.3539 16.1446 32.4903C16.2816 32.6267 16.445 32.7341 16.6248 32.8061C16.8046 32.8781 16.9972 32.9132 17.191 32.9093C17.3848 32.9054 17.5758 32.8625 17.7526 32.7833C17.9293 32.7041 18.0881 32.5901 18.2195 32.4483L23.9518 26.7335C24.0944 26.6029 24.209 26.4449 24.2888 26.2691C24.3685 26.0933 24.4117 25.9033 24.4158 25.7105C24.4199 25.5176 24.3848 25.326 24.3126 25.147C24.2404 24.968 24.1325 24.8054 23.9956 24.6689C23.8586 24.5324 23.6954 24.4248 23.5156 24.3527C23.3358 24.2806 23.1433 24.2453 22.9495 24.2491C22.7557 24.2529 22.5646 24.2956 22.3878 24.3747C22.211 24.4537 22.0521 24.5675 21.9206 24.7093H21.9191ZM54.4661 37.1565C54.2776 37.1565 54.0909 37.1935 53.9167 37.2654C53.7425 37.3373 53.5843 37.4426 53.4512 37.5755C53.318 37.7083 53.2124 37.8659 53.1405 38.0394C53.0687 38.2129 53.0319 38.3987 53.0323 38.5863V41.4445C53.0259 41.6358 53.0583 41.8263 53.1275 42.0048C53.1966 42.1834 53.3012 42.3462 53.4349 42.4837C53.5686 42.6212 53.7287 42.7306 53.9057 42.8053C54.0828 42.8799 54.2731 42.9184 54.4654 42.9184C54.6576 42.9184 54.848 42.8799 55.025 42.8053C55.202 42.7306 55.3622 42.6212 55.4959 42.4837C55.6296 42.3462 55.7341 42.1834 55.8033 42.0048C55.8724 41.8263 55.9048 41.6358 55.8984 41.4445V38.5863C55.8997 38.3985 55.8636 38.2122 55.7923 38.0382C55.721 37.8642 55.6158 37.706 55.4829 37.5725C55.35 37.4391 55.1919 37.3331 55.0176 37.2606C54.8434 37.1882 54.6565 37.1507 54.4677 37.1503L54.4661 37.1565ZM51.6 24.2907C50.7477 24.2892 49.914 24.5393 49.2046 25.0093C48.4951 25.4794 47.9418 26.1483 47.6145 26.9315C47.2873 27.7146 47.2009 28.5767 47.3662 29.4087C47.5315 30.2407 47.9412 31.0052 48.5433 31.6055C49.1455 32.2058 49.913 32.6148 50.7489 32.7808C51.5847 32.9468 52.4513 32.8624 53.2389 32.5382C54.0265 32.214 54.6998 31.6646 55.1735 30.9595C55.6472 30.2544 55.9 29.4254 55.9 28.5772C55.8996 27.4419 55.4467 26.353 54.6406 25.5494C53.8345 24.7459 52.741 24.2932 51.6 24.2907ZM51.6 30.0071C51.3157 30.0077 51.0375 29.9244 50.8008 29.7676C50.5641 29.6109 50.3794 29.3878 50.2702 29.1266C50.1609 28.8654 50.132 28.5778 50.1871 28.3002C50.2422 28.0226 50.3788 27.7676 50.5797 27.5673C50.7805 27.367 51.0366 27.2305 51.3154 27.1751C51.5942 27.1196 51.8833 27.1478 52.1461 27.2559C52.4088 27.364 52.6334 27.5473 52.7915 27.7825C52.9495 28.0177 53.0339 28.2943 53.0339 28.5772C53.0339 28.9559 52.8829 29.3191 52.6141 29.5872C52.3453 29.8553 51.9806 30.0063 51.6 30.0071Z" fill="#B8C0D1"/>
<path d="M34.4003 34.2939V22.8627C34.4003 21.7272 33.9475 20.6381 33.1413 19.8344C32.3351 19.0308 31.2414 18.5782 30.1003 18.5762H11.468C10.3268 18.5782 9.23312 19.0308 8.42693 19.8344C7.62075 20.6381 7.16797 21.7272 7.16797 22.8627V34.2939C7.16838 35.4293 7.6213 36.5181 8.42739 37.3217C9.23348 38.1253 10.3269 38.5779 11.468 38.5804H30.1018C31.2426 38.5775 32.3356 38.1247 33.1414 37.3212C33.9471 36.5176 34.3998 35.429 34.4003 34.2939ZM10.0325 34.2939V22.8627C10.0325 22.484 10.1835 22.1208 10.4523 21.8527C10.7211 21.5846 11.0858 21.4336 11.4664 21.4328H30.1003C30.4807 21.4336 30.8452 21.5847 31.1138 21.8528C31.3823 22.1209 31.533 22.4841 31.5325 22.8627V34.2939C31.5326 34.6722 31.3817 35.035 31.1132 35.3028C30.8447 35.5705 30.4804 35.7214 30.1003 35.7222H11.468C11.0877 35.7214 10.7232 35.5706 10.4544 35.3029C10.1857 35.0351 10.0345 34.6723 10.0341 34.2939H10.0325ZM16.7796 24.7095C16.6467 24.5757 16.4884 24.4695 16.314 24.397C16.1395 24.3245 15.9523 24.2872 15.7633 24.2872C15.5742 24.2872 15.387 24.3245 15.2126 24.397C15.0381 24.4695 14.8798 24.5757 14.7469 24.7095L13.3131 26.1379C13.1705 26.2686 13.056 26.4266 12.9764 26.6025C12.8968 26.7783 12.8537 26.9684 12.8498 27.1612C12.8459 27.3541 12.8811 27.5457 12.9535 27.7247C13.0258 27.9036 13.1338 28.0661 13.2708 28.2025C13.4079 28.3389 13.5713 28.4463 13.7511 28.5183C13.9309 28.5903 14.1235 28.6254 14.3173 28.6215C14.5111 28.6176 14.7021 28.5747 14.8788 28.4955C15.0556 28.4163 15.2144 28.3023 15.3458 28.1605L16.7796 26.7322C17.0491 26.464 17.2006 26.1004 17.2009 25.7212C17.2012 25.342 17.0503 24.9781 16.7812 24.7095H16.7796ZM21.9193 24.7095L16.187 30.4259C16.0445 30.5566 15.93 30.7147 15.8504 30.8905C15.7708 31.0664 15.7277 31.2565 15.7238 31.4493C15.7198 31.6421 15.7551 31.8338 15.8274 32.0127C15.8998 32.1917 16.0077 32.3542 16.1448 32.4906C16.2819 32.627 16.4452 32.7344 16.6251 32.8064C16.8049 32.8784 16.9975 32.9135 17.1913 32.9096C17.3851 32.9056 17.5761 32.8628 17.7528 32.7836C17.9295 32.7043 18.0884 32.5904 18.2197 32.4486L23.952 26.7338C24.0947 26.6031 24.2093 26.4452 24.289 26.2694C24.3688 26.0936 24.412 25.9036 24.4161 25.7107C24.4202 25.5179 24.3851 25.3262 24.3128 25.1472C24.2406 24.9682 24.1328 24.8056 23.9958 24.6691C23.8589 24.5326 23.6956 24.4251 23.5158 24.353C23.3361 24.2808 23.1435 24.2456 22.9497 24.2494C22.7559 24.2531 22.5649 24.2958 22.3881 24.3749C22.2113 24.454 22.0524 24.5678 21.9209 24.7095H21.9193Z" fill="#FF871C"/>
</svg>
