<svg width="58" height="70" viewBox="0 0 58 70" fill="none" xmlns="http://www.w3.org/2000/svg">
<rect width="58" height="70" fill="black" fill-opacity="0"/>
<rect width="58" height="70" fill="black" fill-opacity="0"/>
<rect width="58" height="70" fill="black" fill-opacity="0"/>
<rect width="58" height="70" fill="black" fill-opacity="0"/>
<rect width="58" height="70" fill="black" fill-opacity="0"/>
<rect width="58" height="70" fill="black" fill-opacity="0"/>
<path d="M58 44.1695V44.0556C58 41.5382 55.9634 39.49 53.4601 39.49H40.5056L41.348 20.5259C41.3669 20.0988 41.1262 19.7028 40.7395 19.5252C37.3433 17.9653 35.1488 14.5341 35.1488 10.7839C35.1488 7.56474 36.7559 4.59332 39.3524 2.82583V9.29012C39.3524 10.7809 40.5585 11.9937 42.0409 11.9937H47.3628C48.8451 11.9937 50.0512 10.7809 50.0512 9.29012V2.82596C52.6478 4.59345 54.2548 7.56488 54.2548 10.784C54.2548 14.6298 51.9833 18.096 48.468 19.6147C48.0671 19.7879 47.8159 20.1938 47.8383 20.6321L48.5716 34.939C48.6012 35.5171 49.0906 35.9631 49.6665 35.9321C50.2416 35.9023 50.6837 35.4093 50.654 34.831L49.9568 21.2286C53.8575 19.244 56.3398 15.2214 56.3398 10.7839C56.3398 6.16844 53.6287 1.9712 49.4328 0.0907825C49.1104 -0.0537284 48.737 -0.024334 48.4407 0.169122C48.1446 0.362441 47.9658 0.693435 47.9658 1.04849V9.28985C47.9658 9.6244 47.6952 9.89647 47.3626 9.89647H42.0408C41.7081 9.89647 41.4376 9.6244 41.4376 9.28985V1.04877C41.4376 0.693709 41.2588 0.362714 40.9627 0.169395C40.6665 -0.0240606 40.293 -0.053455 39.9706 0.0910559C35.7747 1.97134 33.0636 6.16872 33.0636 10.7842C33.0636 15.1135 35.4631 19.0933 39.2343 21.1154L39.1984 23.3722C38.4767 22.797 37.5662 22.4516 36.5768 22.4492C36.1403 22.4407 34.6895 22.5172 33.5475 23.7167C32.5796 24.7336 32.4224 25.9312 32.415 26.5542C32.414 26.6383 32.3984 26.7267 32.3686 26.8172C31.6651 28.9581 30.7474 30.9863 29.6411 32.8454C29.3454 33.3422 29.5063 33.9862 30.0003 34.2835C30.4944 34.581 31.1346 34.4192 31.4303 33.9223C32.6151 31.9312 33.597 29.7621 34.3484 27.4755C34.4453 27.1809 34.4963 26.8797 34.5 26.58C34.5038 26.2656 34.5807 25.6639 35.0537 25.167C35.6055 24.5875 36.3264 24.5459 36.5207 24.5459C36.5402 24.5459 36.5527 24.5463 36.5669 24.5463C37.7593 24.5463 38.7294 25.5235 38.7294 26.7247C38.7294 27.1922 38.7326 27.6248 38.7358 28.0339C38.7408 28.6919 38.7451 29.2601 38.7352 29.823C38.7061 31.4882 38.6323 32.9698 38.5611 34.4026C38.4684 36.2647 38.3725 38.1901 38.3725 40.5388C38.3725 41.1179 38.8394 41.5873 39.4151 41.5873H53.4597C54.8132 41.5873 55.9143 42.6947 55.9143 44.0559V44.1697C55.9143 45.5309 54.8132 46.6385 53.4597 46.6385H50.4322C49.8563 46.6385 49.3896 47.1078 49.3896 47.6869C49.3896 48.2661 49.8564 48.7354 50.4322 48.7354H53.4597C54.8132 48.7354 55.9143 49.843 55.9143 51.2042V51.2281C55.9143 52.5892 54.8132 53.6967 53.4597 53.6967H50.4322C49.8563 53.6967 49.3896 54.166 49.3896 54.7452C49.3896 55.3243 49.8564 55.7936 50.4322 55.7936H53.4597C54.8132 55.7936 55.9143 56.9012 55.9143 58.2624V58.4002C55.9143 59.7613 54.8132 60.8689 53.4597 60.8689H50.4322C49.8563 60.8689 49.3896 61.3382 49.3896 61.9174C49.3896 62.4965 49.8564 62.9659 50.4322 62.9659H53.4597C54.8132 62.9659 55.9143 64.0734 55.9143 65.4346C55.9143 66.7957 54.8132 67.9032 53.4597 67.9032H28.5764C26.1241 67.9032 23.8012 66.9605 22.0356 65.2488L20.9892 64.2343V44.1559C22.4137 43.3597 23.7665 42.4405 25.0173 41.4172C25.7736 40.7984 26.5054 40.1312 27.1925 39.434C27.5977 39.0226 27.5947 38.3588 27.1858 37.9511C26.7769 37.5434 26.1167 37.5466 25.7113 37.9578C25.0765 38.602 24.4003 39.2186 23.7014 39.7905C22.8168 40.5142 21.8759 41.1803 20.893 41.784C20.5545 40.4666 19.3627 39.4904 17.9484 39.4904H1.04257C0.466703 39.4904 0 39.9598 0 40.5389V68.9515C0 69.5307 0.466839 70 1.04257 70H17.9483C19.5644 70 20.8896 68.7254 20.9834 67.1235C23.0853 68.9823 25.7608 70 28.5764 70H53.4601C55.9634 70 58 67.9518 58 65.4343C58 64.0209 57.3581 62.7555 56.3519 61.9172C57.3581 61.0792 58 59.8136 58 58.4V58.2622C58 56.8488 57.3581 55.5832 56.3519 54.745C57.3581 53.9069 58 52.6415 58 51.2279V51.204C58 49.7905 57.3579 48.525 56.3518 47.6868C57.3578 46.8486 58 45.583 58 44.1695ZM18.9041 43.5171C18.9041 43.5186 18.9041 43.5201 18.9041 43.5216V66.9415C18.9041 67.4715 18.4753 67.9027 17.9484 67.9027H2.08514V41.5871H17.9483C18.4753 41.5871 18.904 42.0183 18.904 42.5483V43.5171H18.9041Z" fill="#B8C0D1"/>
<rect width="2.92066" height="2.93725" fill="black" fill-opacity="0" transform="translate(11.4004 45.5293)"/>
<rect width="2.92066" height="2.93725" fill="black" fill-opacity="0" transform="translate(11.4004 45.5293)"/>
<rect width="2.92066" height="2.93725" fill="black" fill-opacity="0" transform="translate(11.4004 45.5293)"/>
<path d="M12.8607 48.4665C13.6672 48.4665 14.3211 47.809 14.3211 46.9979C14.3211 46.1868 13.6672 45.5293 12.8607 45.5293C12.0542 45.5293 11.4004 46.1868 11.4004 46.9979C11.4004 47.809 12.0542 48.4665 12.8607 48.4665Z" fill="#B8C0D1"/>
<rect width="58" height="70" fill="black" fill-opacity="0"/>
<mask id="mask0" mask-type="alpha" maskUnits="userSpaceOnUse" x="0" y="0" width="58" height="70">
<rect width="58" height="70" fill="black" fill-opacity="0"/>
<rect width="58" height="70" fill="black" fill-opacity="0"/>
<rect width="58" height="70" fill="black" fill-opacity="0"/>
<rect width="58" height="70" fill="black" fill-opacity="0"/>
<rect width="58" height="70" fill="black" fill-opacity="0"/>
<path d="M58 44.1695V44.0556C58 41.5382 55.9634 39.49 53.4601 39.49H40.5056L41.348 20.5259C41.3669 20.0988 41.1262 19.7028 40.7395 19.5252C37.3433 17.9653 35.1488 14.5341 35.1488 10.7839C35.1488 7.56474 36.7559 4.59332 39.3524 2.82583V9.29012C39.3524 10.7809 40.5585 11.9937 42.0409 11.9937H47.3628C48.8451 11.9937 50.0512 10.7809 50.0512 9.29012V2.82596C52.6478 4.59345 54.2548 7.56488 54.2548 10.784C54.2548 14.6298 51.9833 18.096 48.468 19.6147C48.0671 19.7879 47.8159 20.1938 47.8383 20.6321L48.5716 34.939C48.6012 35.5171 49.0906 35.9631 49.6665 35.9321C50.2416 35.9023 50.6837 35.4093 50.654 34.831L49.9568 21.2286C53.8575 19.244 56.3398 15.2214 56.3398 10.7839C56.3398 6.16844 53.6287 1.9712 49.4328 0.0907825C49.1104 -0.0537284 48.737 -0.024334 48.4407 0.169122C48.1446 0.362441 47.9658 0.693435 47.9658 1.04849V9.28985C47.9658 9.6244 47.6952 9.89647 47.3626 9.89647H42.0408C41.7081 9.89647 41.4376 9.6244 41.4376 9.28985V1.04877C41.4376 0.693709 41.2588 0.362714 40.9627 0.169395C40.6665 -0.0240606 40.293 -0.053455 39.9706 0.0910559C35.7747 1.97134 33.0636 6.16872 33.0636 10.7842C33.0636 15.1135 35.4631 19.0933 39.2343 21.1154L39.1984 23.3722C38.4767 22.797 37.5662 22.4516 36.5768 22.4492C36.1403 22.4407 34.6895 22.5172 33.5475 23.7167C32.5796 24.7336 32.4224 25.9312 32.415 26.5542C32.414 26.6383 32.3984 26.7267 32.3686 26.8172C31.6651 28.9581 30.7474 30.9863 29.6411 32.8454C29.3454 33.3422 29.5063 33.9862 30.0003 34.2835C30.4944 34.581 31.1346 34.4192 31.4303 33.9223C32.6151 31.9312 33.597 29.7621 34.3484 27.4755C34.4453 27.1809 34.4963 26.8797 34.5 26.58C34.5038 26.2656 34.5807 25.6639 35.0537 25.167C35.6055 24.5875 36.3264 24.5459 36.5207 24.5459C36.5402 24.5459 36.5527 24.5463 36.5669 24.5463C37.7593 24.5463 38.7294 25.5235 38.7294 26.7247C38.7294 27.1922 38.7326 27.6248 38.7358 28.0339C38.7408 28.6919 38.7451 29.2601 38.7352 29.823C38.7061 31.4882 38.6323 32.9698 38.5611 34.4026C38.4684 36.2647 38.3725 38.1901 38.3725 40.5388C38.3725 41.1179 38.8394 41.5873 39.4151 41.5873H53.4597C54.8132 41.5873 55.9143 42.6947 55.9143 44.0559V44.1697C55.9143 45.5309 54.8132 46.6385 53.4597 46.6385H50.4322C49.8563 46.6385 49.3896 47.1078 49.3896 47.6869C49.3896 48.2661 49.8564 48.7354 50.4322 48.7354H53.4597C54.8132 48.7354 55.9143 49.843 55.9143 51.2042V51.2281C55.9143 52.5892 54.8132 53.6967 53.4597 53.6967H50.4322C49.8563 53.6967 49.3896 54.166 49.3896 54.7452C49.3896 55.3243 49.8564 55.7936 50.4322 55.7936H53.4597C54.8132 55.7936 55.9143 56.9012 55.9143 58.2624V58.4002C55.9143 59.7613 54.8132 60.8689 53.4597 60.8689H50.4322C49.8563 60.8689 49.3896 61.3382 49.3896 61.9174C49.3896 62.4965 49.8564 62.9659 50.4322 62.9659H53.4597C54.8132 62.9659 55.9143 64.0734 55.9143 65.4346C55.9143 66.7957 54.8132 67.9032 53.4597 67.9032H28.5764C26.1241 67.9032 23.8012 66.9605 22.0356 65.2488L20.9892 64.2343V44.1559C22.4137 43.3597 23.7665 42.4405 25.0173 41.4172C25.7736 40.7984 26.5054 40.1312 27.1925 39.434C27.5977 39.0226 27.5947 38.3588 27.1858 37.9511C26.7769 37.5434 26.1167 37.5466 25.7113 37.9578C25.0765 38.602 24.4003 39.2186 23.7014 39.7905C22.8168 40.5142 21.8759 41.1803 20.893 41.784C20.5545 40.4666 19.3627 39.4904 17.9484 39.4904H1.04257C0.466703 39.4904 0 39.9598 0 40.5389V68.9515C0 69.5307 0.466839 70 1.04257 70H17.9483C19.5644 70 20.8896 68.7254 20.9834 67.1235C23.0853 68.9823 25.7608 70 28.5764 70H53.4601C55.9634 70 58 67.9518 58 65.4343C58 64.0209 57.3581 62.7555 56.3519 61.9172C57.3581 61.0792 58 59.8136 58 58.4V58.2622C58 56.8488 57.3581 55.5832 56.3519 54.745C57.3581 53.9069 58 52.6415 58 51.2279V51.204C58 49.7905 57.3579 48.525 56.3518 47.6868C57.3578 46.8486 58 45.583 58 44.1695ZM18.9041 43.5171C18.9041 43.5186 18.9041 43.5201 18.9041 43.5216V66.9415C18.9041 67.4715 18.4753 67.9027 17.9484 67.9027H2.08514V41.5871H17.9483C18.4753 41.5871 18.904 42.0183 18.904 42.5483V43.5171H18.9041Z" fill="#B8C0D1"/>
<rect width="2.92066" height="2.93725" fill="black" fill-opacity="0" transform="translate(11.4004 45.5293)"/>
<rect width="2.92066" height="2.93725" fill="black" fill-opacity="0" transform="translate(11.4004 45.5293)"/>
<rect width="2.92066" height="2.93725" fill="black" fill-opacity="0" transform="translate(11.4004 45.5293)"/>
<path d="M12.8607 48.4665C13.6672 48.4665 14.3211 47.809 14.3211 46.9979C14.3211 46.1868 13.6672 45.5293 12.8607 45.5293C12.0542 45.5293 11.4004 46.1868 11.4004 46.9979C11.4004 47.809 12.0542 48.4665 12.8607 48.4665Z" fill="#B8C0D1"/>
</mask>
<g mask="url(#mask0)">
<rect width="38.5" height="49.6111" fill="black" fill-opacity="0" transform="translate(28 -11.5)"/>
<path d="M28 11L35.5 -3.5L46.5 -11.5L62.5 -1L66.5 22.5L53 38L46.5 37.5C45.6667 38.5 43.9 39 43.5 33C43.1 27 40 23.1667 38.5 22L28 11Z" fill="#FF871C"/>
</g>
</svg>
