<svg width="79" height="70" viewBox="0 0 79 70" fill="none" xmlns="http://www.w3.org/2000/svg">
<rect width="78.751" height="70.0003" fill="black" fill-opacity="0"/>
<rect width="74.211" height="69.4658" fill="black" fill-opacity="0"/>
<rect width="74.211" height="69.4658" fill="black" fill-opacity="0"/>
<path d="M59.8297 65.6571H60.2047V65.2821V36.1695C60.2047 35.183 60.9787 34.4102 61.9741 34.4102C62.8771 34.4102 63.6577 35.1479 63.6577 36.1695V67.4165C63.6577 68.3176 62.8838 69.0904 61.9741 69.0904H42.6173C41.6118 69.0904 40.8479 68.3077 40.8479 67.4165V55.521V55.146H40.4729H33.6966H33.3216V55.521V67.4165C33.3216 68.3176 32.5476 69.0904 31.6379 69.0904H12.1953C11.2857 69.0904 10.5117 68.3176 10.5117 67.4165V37.1371C10.5117 36.236 11.2857 35.4631 12.1953 35.4631C13.2008 35.4631 13.9648 36.2458 13.9648 37.1371V65.2821V65.6571H14.3398H29.4649H29.8399V65.2821V53.3866C29.8399 52.4952 30.6327 51.6842 31.6379 51.6842H42.6173C43.5203 51.6842 44.3009 52.4789 44.3009 53.3866V65.2821V65.6571H44.6759H59.8297Z" fill="#B8C0D1" stroke="white" stroke-width="0.75" stroke-miterlimit="10"/>
<path d="M56.3661 18.8108V18.9661L56.4759 19.0759L73.3414 35.9477C73.342 35.9483 73.3426 35.9489 73.3432 35.9495C74.02 36.6485 73.9748 37.7942 73.3602 38.4227C72.9957 38.7076 72.5679 38.8687 72.095 38.8687C71.5134 38.8687 71.1027 38.6939 70.8451 38.4381C70.8448 38.4378 70.8445 38.4375 70.8442 38.4372L37.3927 4.82945L37.1285 4.56401L36.8628 4.82787L3.32428 38.1238L3.32394 38.1241C2.62301 38.8218 1.53263 38.8365 0.925706 38.143L0.908676 38.1235L0.889134 38.1066C0.193448 37.5035 0.207915 36.4215 0.907933 35.7246C0.907969 35.7246 0.908005 35.7246 0.908042 35.7245L35.9046 0.920431L35.9047 0.920322C36.2705 0.55621 36.6926 0.375 37.1556 0.375C37.5244 0.375 37.9477 0.549488 38.3199 0.919617C38.3201 0.919852 38.3204 0.920087 38.3206 0.920322L52.2441 14.864L52.8845 15.5052V14.599V7.31372C52.8845 6.31724 53.6684 5.55437 54.5681 5.55437C55.5701 5.55437 56.3661 6.33369 56.3661 7.31372V18.8108Z" fill="#B8C0D1" stroke="white" stroke-width="0.75" stroke-miterlimit="10"/>
<rect width="48.4332" height="48.2127" fill="black" fill-opacity="0" transform="translate(30.3184 21.7881)"/>
<rect width="48.4332" height="48.2127" fill="black" fill-opacity="0" transform="translate(30.3184 21.7881)"/>
<rect width="48.4332" height="48.2127" fill="black" fill-opacity="0" transform="translate(30.3184 21.7881)"/>
<path d="M75.6105 61.3271C77.1545 62.8638 77.1545 65.3681 75.6105 66.8764C74.0665 68.4131 71.5504 68.4131 70.035 66.8764L72.1223 64.7989C72.5511 64.3721 72.5511 63.8314 72.1223 63.4045C71.6934 62.9776 71.1501 62.9776 70.7212 63.4045L68.634 65.4819L67.233 64.0875L69.3202 62.01C69.7491 61.5832 69.7491 61.0425 69.3202 60.6156C68.8913 60.1887 68.3481 60.1887 67.9192 60.6156L65.832 62.693L53.9663 50.8829C52.2508 49.1755 50.3065 47.781 48.1621 46.6142C49.7061 45.9882 51.1643 45.049 52.4223 43.7969C53.6804 42.5447 54.6239 41.0934 55.2529 39.5566C56.4252 41.691 57.8262 43.5977 59.5417 45.3336L75.6105 61.3271Z" fill="white"/>
<path d="M77.0146 59.9337C79.3306 62.2388 79.3306 65.9668 77.0146 68.2719C74.6986 70.577 70.9531 70.577 68.6371 68.2719L52.597 52.307C50.5098 50.2295 48.0508 48.5505 45.2774 47.4406C41.3889 48.0098 37.3002 46.8146 34.3267 43.8265C30.9814 40.4969 29.5804 35.4882 30.6955 31.1911C30.7527 30.8496 31.0386 30.565 31.3817 30.5081C31.7248 30.4512 32.0679 30.5081 32.3538 30.7927L38.8442 37.2526C41.8464 35.659 44.2195 33.297 45.8207 30.3089L39.3303 23.8489C39.0444 23.5643 38.9872 23.2228 39.0444 22.8813C39.1015 22.5398 39.3875 22.2552 39.7306 22.1983C44.1337 21.0031 49.0802 22.4829 52.4254 25.8125C55.4276 28.8006 56.6285 32.8416 56.0566 36.7119C57.2289 39.4439 58.8586 41.9482 60.9459 44.0257L77.0146 59.9337ZM75.6136 66.8775C77.1576 65.3407 77.1576 62.8364 75.6136 61.3282L59.5734 45.3632C57.8579 43.6557 56.4569 41.7206 55.2846 39.5862C54.6556 41.1229 53.7121 42.5743 52.454 43.8265C51.196 45.0786 49.7378 46.0177 48.1938 46.6438C50.3382 47.8106 52.2539 49.205 53.998 50.9125L65.8637 62.7226L67.9509 60.6452C68.3798 60.2183 68.923 60.2183 69.3519 60.6452C69.7808 61.072 69.7808 61.6127 69.3519 62.0396L67.2647 64.117L68.6657 65.5115L70.7529 63.4341C71.1818 63.0072 71.7251 63.0072 72.1539 63.4341C72.5828 63.8609 72.5828 64.4016 72.1539 64.8285L70.0667 66.9059C71.5821 68.4142 74.0982 68.4142 75.6136 66.8775ZM50.9958 42.3751C55.256 38.1348 55.256 31.3334 50.9958 27.0931C48.6227 24.7311 45.1916 23.5359 42.0465 23.7635L47.1359 28.8291C47.7649 29.4551 47.9079 30.4227 47.479 31.1342C45.7349 34.4068 43.0186 37.1104 39.7306 38.8463C39.0443 39.4155 38.0436 39.2732 37.4146 38.6471L32.2394 33.4962C32.0393 36.6266 33.2973 40.0984 35.5847 42.3751C39.9021 46.6153 46.7356 46.6153 50.9958 42.3751Z" fill="#FF7800"/>
</svg>
